<?xml version="1.0" encoding="utf-8"?>
<!-- Generator: Adobe Illustrator 19.0.0, SVG Export Plug-In . SVG Version: 6.00 Build 0)  -->
<svg version="1.1" id="图层_1" xmlns="http://www.w3.org/2000/svg" xmlns:xlink="http://www.w3.org/1999/xlink" x="0px" y="0px"
	 viewBox="0 0 16 16" style="enable-background:new 0 0 16 16;" xml:space="preserve">
<style type="text/css">
	.st0{fill:#040000;}
</style>
<path id="XMLID_2_" class="st0" d="M15.6,14.6L15.6,14.6L15.6,14.6L15.6,14.6c0.1,0.2,0.2,0.4,0.2,0.6c0,0.2-0.1,0.4-0.2,0.6
	C15.4,15.9,15.2,16,15,16c-0.1,0-0.2,0-0.3,0c-0.1,0-0.2-0.1-0.2-0.1l-0.1-0.1l-4.4-4.5c-1.1,0.8-2.3,1.1-3.6,1.1
	c-0.1,0-0.3,0-0.4,0c-0.1,0-0.3,0-0.4-0.1c-0.9-0.1-1.8-0.4-2.5-0.9c-0.8-0.5-1.5-1.2-2-2.1C0.8,8.9,0.6,8.5,0.5,8
	C0.3,7.5,0.2,7.1,0.2,6.6c0-0.5,0-1,0.1-1.4C0.4,4.4,0.7,3.7,1.1,3C1.5,2.3,2,1.8,2.6,1.3c0.5-0.4,1.1-0.7,1.8-1C5,0.1,5.7,0,6.4,0
	C6.7,0,6.9,0,7.2,0c0.7,0.1,1.4,0.3,2,0.6C9.9,1,10.4,1.4,10.9,2c0.6,0.6,1,1.3,1.3,2.1c0.3,0.8,0.4,1.6,0.4,2.4
	c0,1.4-0.5,2.6-1.4,3.7L15.6,14.6L15.6,14.6L15.6,14.6z M11.6,6.5c0-0.7-0.1-1.5-0.4-2.1c-0.2-0.4-0.4-0.8-0.6-1.2
	c-0.3-0.4-0.6-0.7-0.9-1C9.4,1.8,9,1.6,8.6,1.4C7.7,1,6.8,0.9,5.8,1C5.8,1,5.7,1,5.6,1L5.5,1C4.8,1.1,4,1.4,3.4,1.8
	c-0.6,0.4-1.2,1-1.5,1.7C1.4,4.3,1.2,5.1,1.1,6c0,0.9,0.1,1.7,0.5,2.5C1.9,9.1,2.4,9.8,3,10.2c0.6,0.5,1.3,0.9,2,1.1
	c0.8,0.2,1.5,0.3,2.3,0.1c0.4-0.1,0.8-0.2,1.2-0.4c0.4-0.2,0.7-0.4,1.1-0.6c0.3-0.2,0.6-0.5,0.9-0.8c0.3-0.3,0.5-0.7,0.7-1v0
	C11.4,7.9,11.6,7.2,11.6,6.5L11.6,6.5z"/>
</svg>
