<?xml version="1.0" encoding="utf-8"?>
<!-- Generator: Adobe Illustrator 19.0.0, SVG Export Plug-In . SVG Version: 6.00 Build 0)  -->
<svg version="1.1" id="图层_1" xmlns="http://www.w3.org/2000/svg" xmlns:xlink="http://www.w3.org/1999/xlink" x="0px" y="0px"
	 viewBox="0 0 16 16" style="enable-background:new 0 0 16 16;" xml:space="preserve">
<style type="text/css">
	.st0{fill:#040000;}
</style>
<path id="XMLID_6_" class="st0" d="M11.7,7.3H8.5V3.9c0-0.2-0.2-0.4-0.6-0.4c-0.4,0-0.6,0.2-0.6,0.4v3.4H4.1c0,0-0.6-0.1-0.6,0.5
	c0,0.7,0.3,0.7,0.5,0.7h3.4l0,3.6c0,0.3-0.1,0.7,0.5,0.7c0.6,0,0.6-0.6,0.6-0.7l0-3.6h3.1c0.1,0,0.7,0,0.7-0.6
	C12.4,7.2,11.7,7.3,11.7,7.3z M8,0C3.6,0,0,3.6,0,8c0,4.4,3.6,8,8,8s8-3.6,8-8S12.4,0,8,0z M8,14.9c-3.8,0-6.9-3.1-6.9-6.9
	c0-3.8,3.1-6.9,6.9-6.9s6.9,3.1,6.9,6.9C14.9,11.8,11.8,14.9,8,14.9z"/>
</svg>
