<?xml version="1.0" encoding="utf-8"?>
<!-- Generator: Adobe Illustrator 19.0.0, SVG Export Plug-In . SVG Version: 6.00 Build 0)  -->
<svg version="1.1" id="图层_1" xmlns="http://www.w3.org/2000/svg" xmlns:xlink="http://www.w3.org/1999/xlink" x="0px" y="0px"
	 viewBox="0 0 16 16" style="enable-background:new 0 0 16 16;" xml:space="preserve">
<style type="text/css">
	.st0{fill:#040000;}
</style>
<g>
	<path class="st0" d="M15.8,8.5l-0.4-0.4c-0.1-0.1-0.2-0.1-0.3,0l-2.6,2.6l-1.2-1.2c-0.1-0.1-0.2-0.1-0.3,0l-0.4,0.4
		c-0.1,0.1-0.1,0.2,0,0.3l1.4,1.4l0.3,0.3l0.1,0.1l0.1,0.1c0.1,0.1,0.2,0.1,0.3,0L16,9C15.9,8.7,15.9,8.6,15.8,8.5z"/>
	<path class="st0" d="M7.5,14.2c-1.7,0-3.3-0.7-4.4-1.8h1.3c0,0,0.6-4.3,0.7-5.9c0,0,0.9-1.4,1.3-2.5L5,3.5c0,0-0.4,1.8-2.1,3.8v2
		c0,0,0.5-0.5,0.7-0.9c0,0-0.2,1.6-0.8,3.8C1.8,11,1.2,9.6,1.2,8c0-3.4,2.8-6.2,6.2-6.2c3,0,5.5,2.1,6.1,4.9c0.1,0,0.1,0,0.2,0
		c0.4,0,0.7,0.1,1.1,0.3c-0.5-3.6-3.6-6.4-7.4-6.4C3.3,0.5,0,3.9,0,8s3.3,7.5,7.5,7.5c1.6,0,3.1-0.5,4.4-1.4c-0.3-0.3-0.5-0.6-0.7-1
		C10.1,13.8,8.8,14.2,7.5,14.2z"/>
	<path class="st0" d="M11.3,6.4l0.2-1.1h-1.1l0.2-1.6H9.4L9.2,5.2H8.1l0.2-1.6H7L6.8,5.2H5.9L5.7,6.4h0.9l-0.2,2H5.3L5.1,9.5h1.6
		c-0.7,0.8-2.1,1.8-2.1,1.8l0.9,1.1c2.1-1.4,2.9-2.9,2.9-2.9h2.5l0.2-1.1H10l0.4-2H11.3z M8.7,7.7L8.5,8.4H7.5l0.2-1.1l0.4-0.7h0.6
		V7.7z"/>
	<path class="st0" d="M8.2,11.2c0,0.7,0.6,1.3,1.2,1.3s1.2-0.6,1.2-1.3c0-0.7-0.5-1.3-1.2-1.3C8.8,9.9,8.2,10.5,8.2,11.2z"/>
</g>
</svg>
