<?xml version="1.0" encoding="utf-8"?>
<!-- Generator: Adobe Illustrator 19.0.0, SVG Export Plug-In . SVG Version: 6.00 Build 0)  -->
<svg version="1.1" id="图层_1" xmlns="http://www.w3.org/2000/svg" xmlns:xlink="http://www.w3.org/1999/xlink" x="0px" y="0px"
	 viewBox="0 0 16 16" style="enable-background:new 0 0 16 16;" xml:space="preserve">
<style type="text/css">
	.st0{fill:#040000;}
</style>
<path id="XMLID_7_" class="st0" d="M11.6,9.3c0-0.1-0.1-0.2-0.2-0.2l-6.9,0c-0.1,0-0.2,0.1-0.2,0.2V10c0,0.1,0.1,0.2,0.2,0.2h6.9
	c0.1,0,0.2-0.1,0.2-0.2L11.6,9.3L11.6,9.3z M11.5,11.6H4.5c-0.1,0-0.2,0.1-0.2,0.2v0.7c0,0.1,0.1,0.2,0.2,0.2h6.9
	c0.1,0,0.2-0.1,0.2-0.2v-0.7C11.6,11.7,11.6,11.6,11.5,11.6z M13.8,5.1h0.3V13c0,0.7,0,1.3,0,1.8H1.9V1.2c0.3,0,1,0,1.8,0h7.3
	L12,0.1H2.2c-0.8,0-1.5,0.6-1.5,1.4v13c0,0.8,0.7,1.4,1.5,1.4h11.6c0.8,0,1.5-0.6,1.5-1.4V4L13.8,5.1z M15.1,1.5
	c0.2-0.3,0.1-0.5,0-0.7c-0.2-0.3-0.5-0.5-0.7-0.6c-0.2-0.1-0.6-0.1-0.8,0.1c-0.1,0.1-0.3,0.3-0.4,0.4L14.7,2
	C14.7,2,14.9,1.8,15.1,1.5z M9.7,5.5C9.6,5.7,9.5,6.6,9.5,6.9c0,0.3,0.1,0.4,0.3,0.3c0.2-0.1,1.1-0.5,1.3-0.6
	c0.1-0.1,0.2-0.2,0.3-0.3c0.1-0.2,2.8-3.7,2.8-3.7l-1.5-1.2c0,0-2.7,3.5-2.8,3.8C9.8,5.3,9.7,5.4,9.7,5.5z"/>
</svg>
