<?xml version="1.0" encoding="utf-8"?>
<!-- Generator: Adobe Illustrator 19.0.0, SVG Export Plug-In . SVG Version: 6.00 Build 0)  -->
<svg version="1.1" id="图层_1" xmlns="http://www.w3.org/2000/svg" xmlns:xlink="http://www.w3.org/1999/xlink" x="0px" y="0px"
	 viewBox="0 0 45.3 45.3" style="enable-background:new 0 0 45.3 45.3;" xml:space="preserve">
<style type="text/css">
	.st0{fill:#272635;}
</style>
<g id="XMLID_2_">
	<g id="XMLID_3_" transform="scale(0.1953125, 0.1953125)">
		<path id="XMLID_4_" class="st0" d="M116.1,232.2c-72.5,0-103-25.9-103-79.3c0-44.2,34.5-90.3,76.3-104.8h53.3
			c41.8,14.5,76.3,60.6,76.3,104.8C219,206.2,188.6,232.2,116.1,232.2L116.1,232.2z M144.6,144.6L144.6,144.6c4.8,0,8.7-4,8.7-8.8
			c0-4.8-3.9-8.7-8.7-8.8v0H127c0-0.2,0-0.4,0-0.6l20.7-21.2c3.4-3.8,1.7-6.9-1.8-10.4c-3.4-3.5-9-4.2-11.8-1.2l-17.8,19L97.1,93.5
			c-2.4-2.4-7.2-1.6-10.6,1.8c-3.4,3.4-4.2,8.1-1.8,10.6l19.7,19.7c-0.4,0.5-0.6,1-0.7,1.5h-16v0c0,0,0,0,0,0
			c-4.8,0-8.8,3.9-8.8,8.8c0,4.8,3.9,8.8,8.8,8.8c0,0,0,0,0,0v0h17.5v8.7H87.7v0c0,0,0,0,0,0c-4.8,0-8.8,3.9-8.8,8.8
			c0,4.8,3.9,8.8,8.8,8.8c0,0,0,0,0,0v0h17.5v8.8h0.2c-0.1,0.7-0.2,1.4-0.2,2.1c0,6,4.9,11,11,11c6,0,11-4.9,11-11
			c0-0.7-0.1-1.4-0.2-2.1h0.1v-8.8l17.7,0c4.8,0,8.7-3.9,8.7-8.8c0-4.8-3.9-8.7-8.7-8.8v0h-17.7v-8.7L144.6,144.6L144.6,144.6z
			 M157.7,13.1l-1.8,2.3c0,0-0.1,0.1-0.1,0.1L140.2,35H87.6L72.1,15.6c-0.1-0.1-0.2-0.2-0.3-0.4l-1.7-2.1l0.3-0.6
			c-0.1-0.5-0.3-1.1-0.3-1.6c0-2.8,1.8-5.1,4.2-6.1l0.2-0.4c0,0,21.5-4.3,39.4-4.4c18.7-0.1,39.4,4.4,39.4,4.4l0.2,0.4
			c2.4,1,4.2,3.3,4.2,6.1c0,0.6-0.2,1.1-0.3,1.6L157.7,13.1L157.7,13.1z"/>
	</g>
</g>
</svg>
