<?xml version="1.0" encoding="utf-8"?>
<!-- Generator: Adobe Illustrator 19.0.0, SVG Export Plug-In . SVG Version: 6.00 Build 0)  -->
<svg version="1.1" id="图层_1" xmlns="http://www.w3.org/2000/svg" xmlns:xlink="http://www.w3.org/1999/xlink" x="0px" y="0px"
	 viewBox="0 0 16 16" style="enable-background:new 0 0 16 16;" xml:space="preserve">
<style type="text/css">
	.st0{fill:#040000;}
</style>
<g id="XMLID_104_">
	<path id="XMLID_120_" class="st0" d="M13,7.1c-0.1,0-0.3,0.1-0.4,0.2l-3.2,3.2L8.3,9C8.2,8.8,8.1,8.8,7.9,8.8c-0.1,0-0.2,0-0.3,0.1
		C7.4,9,7.3,9.4,7.5,9.6l1.5,2c0.1,0.1,0.2,0.2,0.4,0.2c0,0,0,0,0,0c0.1,0,0.3-0.1,0.4-0.2L13.4,8c0.2-0.2,0.2-0.5,0-0.7
		C13.3,7.2,13.1,7.1,13,7.1z"/>
	<path id="XMLID_116_" class="st0" d="M14.2,3.8h-3.1V2.6c0-1-0.8-1.8-1.7-1.8l-7.6,0C0.8,0.9,0,1.7,0,2.6v7.8c0,1,0.8,1.8,1.7,1.8
		h3.1v1.1c0,1,0.8,1.8,1.7,1.8h7.6c1,0,1.7-0.8,1.7-1.8V5.6C16,4.6,15.2,3.8,14.2,3.8z M4.9,5.6v5.6H1.8c-0.4,0-0.7-0.3-0.7-0.7
		l0-7.8c0-0.4,0.3-0.7,0.7-0.7h7.6c0.4,0,0.7,0.3,0.7,0.7v1.1H6.6C5.7,3.8,4.9,4.6,4.9,5.6z M15,13.4c0,0.4-0.3,0.7-0.7,0.7H6.6
		c-0.4,0-0.7-0.3-0.7-0.7l0-7.8c0-0.4,0.3-0.7,0.7-0.7h7.6c0.4,0,0.7,0.3,0.7,0.7L15,13.4L15,13.4z"/>
</g>
</svg>
