<?xml version="1.0" encoding="utf-8"?>
<!-- Generator: Adobe Illustrator 19.0.0, SVG Export Plug-In . SVG Version: 6.00 Build 0)  -->
<svg version="1.1" id="图层_1" xmlns="http://www.w3.org/2000/svg" xmlns:xlink="http://www.w3.org/1999/xlink" x="0px" y="0px"
	 viewBox="0 0 45.3 45.3" style="enable-background:new 0 0 45.3 45.3;" xml:space="preserve">
<style type="text/css">
	.st0{fill:#040000;}
</style>
<g id="XMLID_688_">
	<path id="XMLID_691_" class="st0" d="M15.3,25.3c-0.4,0.5-0.6,1.2-0.6,2.1l0.6,9.4l0,0c0,0.1,0,0.2,0,0.2H13
		c-0.7,0-1.2,0.5-1.2,1.2c0,0.6,0.5,1.2,1.2,1.2h22.1c0.7,0,1.2-0.5,1.2-1.2c0-0.6-0.5-1.2-1.2-1.2H20l6.2-3.9
		c0.7-0.6,1.2-1.2,1.4-1.8c0-0.1,0.1-0.1,0.2-0.2L40.1,7.5c0.6-1.1,0.3-2.4-0.7-2.8l-9-4.5c-0.9-0.5-2.1,0.1-2.7,1.1L15.3,25
		C15.3,25.1,15.3,25.2,15.3,25.3z M18.9,35c-1,0.8-1.8,0.5-1.7-0.8h0l-0.1-1.7l3.3,1.4L18.9,35z M19.4,23.2l9.8-18.8
		c0.3-0.5,0.8-0.7,1.2-0.5l6,3c0.4,0.2,0.5,0.8,0.2,1.3l-9.8,18.8c-0.1,0.2-0.2,0.3-0.3,0.4l-7.2-3.6C19.3,23.6,19.4,23.4,19.4,23.2
		z M18.5,26.7l5.8,2.8c0.8,0.4,0.6,1.3-0.4,2.2l-1,0.7L17.1,30c0,0-0.1,0-0.1,0L17,28.4C17,27.1,17.7,26.3,18.5,26.7z"/>
	<path id="XMLID_694_" class="st0" d="M28.3,32.5c-0.7,0-1.2,0.5-1.2,1.2c0,0.6,0.5,1.2,1.2,1.2h5.3c0.7,0,1.2-0.5,1.2-1.2
		c0-0.6-0.5-1.2-1.2-1.2H28.3z"/>
	<path id="XMLID_695_" class="st0" d="M42.6,26.6c-1,0-1.8,0.8-1.8,1.8v11.4c0,1-0.8,1.8-1.8,1.8H6.4c-1,0-1.8-0.8-1.8-1.8V7.3
		c0-1,0.8-1.8,1.8-1.8h14.3c1,0,1.8-0.8,1.8-1.8s-0.8-1.8-1.8-1.8H6.4C3.4,1.9,1,4.3,1,7.3v32.6c0,3,2.4,5.4,5.4,5.4H39
		c3,0,5.4-2.5,5.4-5.5V28.4C44.4,27.4,43.6,26.6,42.6,26.6z"/>
</g>
</svg>
