<?xml version="1.0" standalone="no"?>
<!DOCTYPE svg PUBLIC "-//W3C//DTD SVG 20010904//EN"
 "http://www.w3.org/TR/2001/REC-SVG-20010904/DTD/svg10.dtd">
<svg version="1.0" xmlns="http://www.w3.org/2000/svg"
 width="200.000000pt" height="200.000000pt" viewBox="0 0 200.000000 200.000000"
 preserveAspectRatio="xMidYMid meet">
<metadata>
Created by potrace 1.13, written by Peter Selinger 2001-2015
</metadata>
<g transform="translate(0.000000,200.000000) scale(0.100000,-0.100000)"
fill="#000000" stroke="none">
<path d="M545 1937 c-27 -13 -69 -44 -92 -70 -75 -81 -73 -57 -73 -872 0 -830
-4 -793 84 -880 86 -86 87 -86 552 -83 l399 3 53 29 c30 17 67 47 83 67 61 77
59 51 59 873 0 705 -2 753 -19 791 -25 56 -66 101 -120 133 l-46 27 -415 3
-415 2 -50 -23z m955 -892 l0 -715 -500 0 -500 0 0 715 0 715 500 0 500 0 0
-715z"/>
<path d="M693 1593 c-149 -123 -153 -127 -153 -165 l0 -39 179 158 c99 87 180
161 180 166 1 4 -11 7 -26 6 -20 0 -70 -35 -180 -126z"/>
<path d="M773 1494 c-231 -204 -233 -206 -233 -246 l0 -40 35 29 c95 79 514
449 514 456 1 4 -18 7 -41 7 -41 0 -51 -8 -275 -206z"/>
</g>
</svg>
