<?xml version="1.0" encoding="utf-8"?>
<!-- Generator: Adobe Illustrator 19.0.0, SVG Export Plug-In . SVG Version: 6.00 Build 0)  -->
<svg version="1.1" id="图层_1" xmlns="http://www.w3.org/2000/svg" xmlns:xlink="http://www.w3.org/1999/xlink" x="0px" y="0px"
	 viewBox="0 0 16 16" style="enable-background:new 0 0 16 16;" xml:space="preserve">
<style type="text/css">
	.st0{fill:#040000;}
</style>
<g id="XMLID_523_">
	<path id="XMLID_525_" class="st0" d="M15.3,14.2l-2.8-2.8c1.6-2,1.5-5-0.3-6.9c-2-2-5.3-2.1-7.3-0.1c-2,2-2.1,5.3-0.1,7.3
		c1.9,1.9,4.8,2.1,6.9,0.4l2.8,2.8c0.2,0.2,0.6,0.3,0.8,0C15.5,14.9,15.5,14.5,15.3,14.2L15.3,14.2z M5.7,11c-1.5-1.6-1.5-4.2,0-5.8
		c1.5-1.6,4-1.5,5.6,0.1c1.5,1.6,1.5,4.2,0,5.8C9.7,12.6,7.2,12.6,5.7,11z"/>
	<path id="XMLID_524_" class="st0" d="M14.2,0H1.5c-0.5,0-1,0.4-1,1v14c0,0.6,0.4,1,1,1H10c0,0,0,0,0.1,0h1c0.3,0,0.5-0.2,0.5-0.5
		s-0.2-0.5-0.5-0.5h-1c0,0,0,0-0.1,0H9.6l-8,0l0-13.8l12.6,0v3.5h0v0.2c0,0.3,0.2,0.5,0.5,0.5s0.5-0.2,0.5-0.5V4.5h0V1
		C15.2,0.4,14.8,0,14.2,0L14.2,0z"/>
</g>
</svg>
