<?xml version="1.0" encoding="utf-8"?>
<!-- Generator: Adobe Illustrator 19.0.0, SVG Export Plug-In . SVG Version: 6.00 Build 0)  -->
<svg version="1.1" id="图层_1" xmlns="http://www.w3.org/2000/svg" xmlns:xlink="http://www.w3.org/1999/xlink" x="0px" y="0px"
	 viewBox="0 0 16 16" style="enable-background:new 0 0 16 16;" xml:space="preserve">
<style type="text/css">
	.st0{fill:#070001;}
</style>
<g id="XMLID_218_">
	<path id="XMLID_233_" class="st0" d="M9.1,11.3H2.8c-0.1,0-0.2,0.1-0.2,0.2v0.7c0,0.1,0.1,0.2,0.2,0.2h6.3c0.1,0,0.2-0.1,0.2-0.2
		v-0.7C9.2,11.4,9.2,11.3,9.1,11.3z"/>
	<path id="XMLID_232_" class="st0" d="M9.2,9.2L9.2,9.2c0-0.1,0-0.2-0.1-0.2H2.8C2.7,9,2.6,9.1,2.6,9.2v0.7c0,0.1,0.1,0.2,0.2,0.2
		h6.3c0.1,0,0.2-0.1,0.2-0.2L9.2,9.2L9.2,9.2z"/>
	<path id="XMLID_231_" class="st0" d="M8.2,5.8C8.1,5.9,8,6.8,8,7c0,0.3,0,0.3,0.3,0.3c0.2-0.1,1-0.4,1.2-0.6
		c0.1-0.1,0.2-0.2,0.3-0.3C9.9,6.3,12.3,3,12.3,3l-1.4-1c0,0-2.4,3.2-2.6,3.4C8.2,5.5,8.2,5.6,8.2,5.8z"/>
	<path id="XMLID_230_" class="st0" d="M13.1,2.1c0.2-0.2,0.1-0.5,0-0.7c-0.2-0.3-0.5-0.5-0.7-0.6c-0.2-0.1-0.5-0.1-0.7,0.1
		c-0.1,0.1-0.2,0.3-0.3,0.4l1.4,1.1C12.8,2.5,12.9,2.3,13.1,2.1z"/>
	<path id="XMLID_227_" class="st0" d="M13.3,8.3V4.4l-1.3,1h0.3v3C11,8.7,10,9.9,10,11.3c0,1.4,1,2.6,2.3,2.9H1V1.8
		c0.2,0,0.9,0,1.6,0h6.6l1-1H1.3C0.6,0.8,0,1.4,0,2.1v11.8c0,0.7,0.6,1.3,1.3,1.3h10.6c0.6,0,1.1-0.4,1.3-0.9c1.6-0.1,2.8-1.4,2.8-3
		C16,9.7,14.8,8.4,13.3,8.3z M14.4,12.3h-2.7v-2.2c0-0.2,0.2-0.4,0.4-0.4s0.4,0.2,0.4,0.4v1.3h1.9c0.2,0,0.4,0.2,0.4,0.4
		C14.8,12.1,14.7,12.3,14.4,12.3z"/>
</g>
</svg>
