<?xml version="1.0" encoding="utf-8"?>
<!-- Generator: Adobe Illustrator 19.0.0, SVG Export Plug-In . SVG Version: 6.00 Build 0)  -->
<svg version="1.1" id="图层_1" xmlns="http://www.w3.org/2000/svg" xmlns:xlink="http://www.w3.org/1999/xlink" x="0px" y="0px"
	 viewBox="0 0 16 16" style="enable-background:new 0 0 16 16;" xml:space="preserve">
<style type="text/css">
	.st0{fill:#070001;}
</style>
<g id="XMLID_775_">
	<path id="XMLID_776_" class="st0" d="M9.1,11.3H2.9c-0.1,0-0.2,0.1-0.2,0.2v0.7c0,0.1,0.1,0.2,0.2,0.2h6.2c0.1,0,0.2-0.1,0.2-0.2
		v-0.7C9.2,11.4,9.2,11.3,9.1,11.3z"/>
	<path id="XMLID_777_" class="st0" d="M9.2,9.2L9.2,9.2c0-0.1,0-0.2-0.1-0.2H2.9C2.8,9,2.7,9.1,2.7,9.2v0.7c0,0.1,0.1,0.2,0.2,0.2
		h6.2c0.1,0,0.2-0.1,0.2-0.2L9.2,9.2L9.2,9.2z"/>
	<path id="XMLID_778_" class="st0" d="M8.2,5.9C8.1,6,8,6.9,8,7c0,0.3,0,0.3,0.3,0.3c0.2-0.1,1-0.4,1.2-0.6c0.1-0.1,0.2-0.2,0.3-0.3
		s2.5-3.3,2.5-3.3l-1.4-1c0,0-2.4,3.1-2.6,3.3C8.2,5.6,8.2,5.7,8.2,5.9z"/>
	<path id="XMLID_779_" class="st0" d="M13,2.2c0.2-0.2,0.1-0.5,0-0.7c-0.2-0.3-0.5-0.5-0.7-0.6c-0.2-0.1-0.5-0.1-0.7,0.1
		c-0.1,0.1-0.2,0.3-0.3,0.4l1.4,1.1C12.7,2.6,12.8,2.4,13,2.2z"/>
	<path id="XMLID_780_" class="st0" d="M13.2,8.3V4.5l-1.3,1h0.3v2.9C10.9,8.7,10,9.9,10,11.3s1,2.6,2.3,2.9l0,0H1.1V1.9
		c0.2,0,0.9,0,1.6,0h6.5l1-1H1.4C0.7,1,0.1,1.5,0.1,2.2v11.6c0,0.7,0.6,1.3,1.3,1.3h10.4c0.6,0,1.1-0.4,1.3-0.9
		c1.6-0.1,2.8-1.4,2.8-2.9S14.7,8.4,13.2,8.3z M12.4,13.1c-0.1,0.1-0.2,0.1-0.3,0L12,13l0,0l-0.1-0.1l-0.3-0.3l0,0l-1.2-1.2
		c-0.1-0.1-0.1-0.2,0-0.2l0.5-0.3c0.1-0.1,0.2-0.1,0.3,0l1.1,1.1l2.3-2.2c0.1-0.1,0.2-0.1,0.3,0l0.4,0.4c0.1,0.1,0.1,0.2,0,0.2
		L12.4,13.1z"/>
</g>
</svg>
