<?xml version="1.0" encoding="utf-8"?>
<!-- Generator: Adobe Illustrator 19.0.0, SVG Export Plug-In . SVG Version: 6.00 Build 0)  -->
<svg version="1.1" id="图层_1" xmlns="http://www.w3.org/2000/svg" xmlns:xlink="http://www.w3.org/1999/xlink" x="0px" y="0px"
	 viewBox="0 0 16 16" style="enable-background:new 0 0 16 16;" xml:space="preserve">
<style type="text/css">
	.st0{fill:#040000;}
</style>
<g id="XMLID_1_">
	<path id="XMLID_579_" class="st0" d="M15.3,7.3c-0.4,0-0.7-0.3-0.7-0.7l0-0.1h-0.2C13.7,3.6,11.1,1.4,8,1.4C4.4,1.4,1.4,4.4,1.4,8
		c0,3.6,2.9,6.6,6.6,6.6c2.9,0,5.3-1.8,6.2-4.4h0l0,0c0-0.4,0.3-0.7,0.7-0.7c0.4,0,0.7,0.3,0.7,0.7l0,0h0c0,0,0,0,0,0.1l0,0
		c0,0.2-0.1,0.3-0.1,0.4C14.4,13.8,11.5,16,8,16c-4.4,0-8-3.6-8-8s3.6-8,8-8c2.7,0,5.1,1.3,6.5,3.4l0-2c0-0.4,0.3-0.7,0.7-0.7
		C15.7,0.7,16,1,16,1.4l0,5.2C16,7,15.7,7.3,15.3,7.3z"/>
	<path id="XMLID_595_" class="st0" d="M11.6,7.1c0-0.2-0.1-0.3-0.2-0.4c-0.2-0.1-0.4-0.2-0.6-0.2c-0.2,0-0.4,0-0.6,0
		c-0.1,0-0.1,0-0.1-0.1c0-0.2,0-0.5,0-0.7c0-0.3-0.1-0.5-0.2-0.8C9.8,4.7,9.6,4.5,9.4,4.3c0,0-0.1-0.1-0.1-0.1h0
		c0,0-0.4-0.4-1.3-0.4S6.7,4.2,6.7,4.2h0c0,0,0,0,0,0C6.6,4.3,6.5,4.4,6.4,4.5C6.2,4.7,6.1,4.9,6,5.1C5.9,5.3,5.9,5.6,5.9,5.9
		c0,0.2,0,0.4,0,0.6c0,0.1,0,0.1-0.1,0.1c0,0-0.1,0-0.1,0c-0.2,0-0.5,0-0.7,0c-0.2,0-0.4,0.1-0.6,0.3C4.4,6.9,4.4,7,4.4,7.1v3.6
		c0,0.1,0,0.1,0.1,0.2c0.1,0.1,0.2,0.2,0.3,0.3c0.1,0,0.2,0,0.3,0.1H11c0,0,0,0,0,0c0.2,0,0.3-0.1,0.4-0.2c0.1-0.1,0.2-0.2,0.2-0.4
		L11.6,7.1C11.6,7.1,11.6,7.1,11.6,7.1z M6.7,5.8c0-0.4,0.1-0.7,0.4-0.9c0.2-0.2,0.4-0.3,0.6-0.3c0.3,0,0.6,0,0.8,0.1
		C9,4.8,9.2,5.1,9.3,5.5c0,0.1,0,0.2,0,0.3c0,0.2,0,0.4,0,0.7c0,0.1,0,0.1-0.1,0.1c-0.4,0-0.8,0-1.2,0c-0.4,0-0.8,0-1.2,0
		c-0.1,0-0.1,0-0.1-0.1C6.7,6.2,6.7,6,6.7,5.8z M10.8,10.6C10.8,10.6,10.8,10.6,10.8,10.6c-1.9,0.1-3.8,0.1-5.6,0.1
		c-0.1,0-0.1,0-0.1-0.1c0-1.1,0-2.2,0-3.3c0-0.1,0-0.1,0.1-0.1c0.9,0,1.8,0,2.8,0c0.9,0,1.8,0,2.8,0c0.1,0,0.1,0,0.1,0.1
		C10.8,8.4,10.8,9.5,10.8,10.6z"/>
	<path id="XMLID_584_" class="st0" d="M8,7.6c-0.3,0-0.4,0-0.6,0.1C6.9,8,6.8,8.7,7.2,9c0.4,0.3,0.9,0.4,1.3,0.1
		C8.9,8.9,8.9,8.3,8.6,8C8.5,7.7,8.2,7.6,8,7.6z"/>
	<path id="XMLID_583_" class="st0" d="M8.2,9.5c-0.2-0.2-0.5-0.2-0.6,0C7.4,9.6,7.4,9.8,7.4,9.9c0.1,0.2,0.2,0.3,0.5,0.3
		c0.1,0,0.2,0,0.3-0.1C8.4,10,8.4,9.7,8.2,9.5z"/>
</g>
</svg>
