<?xml version="1.0" encoding="utf-8"?>
<!-- Generator: Adobe Illustrator 19.0.0, SVG Export Plug-In . SVG Version: 6.00 Build 0)  -->
<svg version="1.1" id="图层_1" xmlns="http://www.w3.org/2000/svg" xmlns:xlink="http://www.w3.org/1999/xlink" x="0px" y="0px"
	 viewBox="0 0 16 16" style="enable-background:new 0 0 16 16;" xml:space="preserve">
<g id="XMLID_2_">
	<g id="XMLID_3_" transform="scale(0.1953125, 0.1953125)">
		<path id="XMLID_4_" class="st0" d="M71.7,45.8c-0.3-9.9-8.3-17.9-18.3-17.9c-5.8,0-11,2.7-14.3,7c-1.9-2.4-4.8-4-8.1-4
			c-5.7,0-10.3,4.6-10.3,10.3c0,0.5,0,1,0.1,1.5c-0.9-0.2-1.7-0.2-2.7-0.2c-8.2,0-14.9,6.7-14.9,14.9s6.7,14.9,14.9,14.9h50.4
			c7.4,0,13.4-6,13.4-13.4C81.9,52.5,77.6,47.2,71.7,45.8z M7.9,34.6l3.8,0.4c0-3.5,1.3-7,4-9.7c2.7-2.7,6.4-4.1,10-4l-0.4-3.8
			c-4.5,0-8.9,1.7-12.3,5.1C9.7,25.9,8,30.2,7.9,34.6z M10.2,19.7c4-3.9,9.1-6,14.3-6.2L24,9.6C18,9.9,12,12.4,7.4,17
			C2.8,21.6,0.3,27.4,0,33.4L3.9,34C4.1,28.8,6.2,23.7,10.2,19.7z"/>
	</g>
</g>
</svg>
