<?xml version="1.0" encoding="utf-8"?>
<!-- Generator: Adobe Illustrator 19.0.0, SVG Export Plug-In . SVG Version: 6.00 Build 0)  -->
<svg version="1.1" id="commodity" xmlns="http://www.w3.org/2000/svg" xmlns:xlink="http://www.w3.org/1999/xlink" x="0px" y="0px"
	 viewBox="0 0 16 16" style="enable-background:new 0 0 16 16;" xml:space="preserve">
<g id="XMLID_4_">
	<g id="XMLID_5_" transform="scale(0.1953125, 0.1953125)">
		<path id="XMLID_6_" class="st0" d="M78,18.7c-2,1.8-5.6,2.8-8.7,2.4L69,18c2.2,0.2,4.9-0.3,6.5-1.5c2-1.4,2.8-4.4,2.5-6.6
			c-0.4-2.4-2.1-4.7-4.4-5.8c-1.8-0.9-4.8-1.4-8.8,1c-3,1.8-5.7,5.9-8,11.9c-0.3,0.7-0.5,1.3-0.7,2c0,0,0,0,0,0
			c-0.4,1.4-1.2,4.1-1.4,4.9c1.7,1.6,1.8,4.3,0.2,6c-1.6,1.7-4.3,1.8-6,0.2c-1.7-1.6-1.8-4.3-0.2-6c0.8-0.8,1.8-1.3,2.8-1.4
			c0.2-0.8,1-3.4,1.3-4.8c-0.3,0-0.6,0-0.9,0c-4.9,0-8.9,4-8.9,8.9s4,8.9,8.9,8.9s8.9-4,8.9-8.9c0-2.8-1.3-5.3-3.3-7
			c0.2-0.8,0.5-1.6,0.8-2.4c0.5-1.3,1-2.6,1.5-3.7l2.2-0.1c1.2,0,2.2,0.9,2.2,2l1.1,25.2c0,0.6-0.2,1.1-0.6,1.5L30.5,79.7
			c-0.8,0.9-2.1,0.9-3,0.1L1.1,55.5c-0.9-0.8-0.9-2.1-0.1-3l34.4-37.3c0.4-0.4,0.9-0.7,1.5-0.7l17.6-0.6c1.9-4.6,4.8-9.4,8.7-11.8
			c4.1-2.4,8.4-2.8,12-1.1c3.3,1.6,5.8,4.8,6.3,8.4C81.9,12.7,80.6,16.3,78,18.7L78,18.7z M69.4,24.6l0.8,19c0,0.6-0.2,1.1-0.6,1.5
			L38.6,78.9l2.8,2.6c0.8,0.7,2,0.7,2.7-0.1l31-33.6c0.3-0.4,0.5-0.9,0.5-1.4l-1-22.4C73,24.5,71.2,24.7,69.4,24.6L69.4,24.6z"/>
	</g>
</g>
</svg>
