<?xml version="1.0" encoding="utf-8"?>
<!-- Generator: Adobe Illustrator 19.0.0, SVG Export Plug-In . SVG Version: 6.00 Build 0)  -->
<svg version="1.1" id="图层_1" xmlns="http://www.w3.org/2000/svg" xmlns:xlink="http://www.w3.org/1999/xlink" x="0px" y="0px"
	 viewBox="0 0 16 16" style="enable-background:new 0 0 16 16;" xml:space="preserve">
<style type="text/css">
	.st0{fill:#040000;}
</style>
<g id="XMLID_69_">
	<path id="XMLID_74_" class="st0" d="M8.6,9.5C8.6,9.8,8.3,10,8,10l0,0c-0.3,0-0.6-0.2-0.6-0.5V3.6C7.4,3.3,7.7,3,8,3l0,0
		c0.3,0,0.6,0.2,0.6,0.5V9.5z"/>
	<path id="XMLID_71_" class="st0" d="M8,16L8,16c-0.4,0-0.8-0.1-1.3-0.4c-6-3.2-5.9-5.5-5.9-11.5c0-0.7,0-1.4,0-2.3
		c0-0.3,0.2-0.5,0.4-0.6c1-0.3,2-0.6,3.1-0.8C5.5,0.2,6.7,0.1,8,0c0,0,0.1,0,0.1,0c2.5,0.3,4.4,0.6,6.6,1.3c0.3,0.1,0.4,0.3,0.4,0.6
		c0,0.9,0,1.7,0,2.5c0.1,6.2,0.1,8.1-5.8,11.3C8.8,15.9,8.4,16,8,16L8,16z M2,2.2c0,0.7,0,1.3,0,1.9c-0.1,6-0.1,7.7,5.3,10.6
		c0.3,0.2,0.5,0.2,0.7,0.2c0.2,0,0.4-0.1,0.7-0.2c5.4-2.9,5.4-4.2,5.3-10.4c0-0.6,0-1.3,0-2.1c-1.9-0.5-3.7-0.9-6-1.1
		C6.8,1.1,5.6,1.3,4.6,1.5C3.7,1.7,2.8,2,2,2.2L2,2.2z"/>
	<path id="XMLID_70_" class="st0" d="M7.3,11.8L7.3,11.8c0,0.4,0.3,0.7,0.7,0.7c0.4,0,0.7-0.3,0.7-0.7l0,0l0,0
		c0-0.4-0.3-0.7-0.7-0.7C7.6,11.1,7.3,11.5,7.3,11.8S7.3,11.8,7.3,11.8z"/>
</g>
</svg>
