<?xml version="1.0" encoding="utf-8"?>
<!-- Generator: Adobe Illustrator 19.0.0, SVG Export Plug-In . SVG Version: 6.00 Build 0)  -->
<svg version="1.1" id="图层_1" xmlns="http://www.w3.org/2000/svg" xmlns:xlink="http://www.w3.org/1999/xlink" x="0px" y="0px"
	 viewBox="0 0 16 16" style="enable-background:new 0 0 16 16;" xml:space="preserve">
<style type="text/css">
	.st0{fill:#040000;}
</style>
<g id="XMLID_158_">
	<path id="XMLID_163_" class="st0" d="M7,10c0.3,0,0.6-0.2,0.6-0.5V3.7c0-0.3-0.3-0.5-0.6-0.5c-0.3,0-0.6,0.2-0.6,0.5v5.8
		C6.4,9.8,6.7,10,7,10z"/>
	<circle id="XMLID_170_" class="st0" cx="7" cy="11.8" r="0.7"/>
	<path id="XMLID_191_" class="st0" d="M13.9,8.3C14,7.2,14,6,14,4.5c0-0.7,0-1.5,0-2.4c0-0.3-0.2-0.5-0.4-0.6
		c-2.1-0.6-3.9-1-6.4-1.2c0,0-0.1,0-0.1,0C5.7,0.2,4.6,0.4,3.5,0.6c-1.1,0.2-2.1,0.5-3,0.8C0.2,1.5,0,1.7,0,2c0,0.8,0,1.5,0,2.2
		c-0.1,5.8-0.1,8,5.7,11.2c0.5,0.3,0.9,0.4,1.3,0.4v0c0.4,0,0.8-0.1,1.3-0.4c0.7-0.4,1.4-0.8,1.9-1.1c0.6,0.5,1.4,0.8,2.2,0.8
		c2,0,3.6-1.6,3.6-3.6C16,10.1,15.1,8.9,13.9,8.3z M9.5,13.5c-0.5,0.3-1.1,0.6-1.7,1c-0.3,0.2-0.5,0.2-0.7,0.2
		c-0.2,0-0.4-0.1-0.7-0.2C1,11.6,1,10.1,1.1,4.2c0-0.6,0-1.2,0-1.8h0c0.8-0.2,1.7-0.5,2.6-0.7c1-0.2,2.1-0.4,3.3-0.4
		c2.3,0.2,4,0.6,5.9,1.1c0,0.7,0,1.4,0,2c0,1.5,0,2.6,0,3.6c-0.2,0-0.3,0-0.5,0c-2,0-3.6,1.6-3.6,3.6C8.8,12.3,9.1,13,9.5,13.5z
		 M14.7,13.1l-0.6,0.6l-1.6-1.6l-1.6,1.6l-0.6-0.6l1.6-1.6l-1.6-1.6l0.6-0.6l1.6,1.6l1.6-1.6l0.6,0.6l-1.6,1.6L14.7,13.1z"/>
</g>
</svg>
