<?xml version="1.0" encoding="utf-8"?>
<!-- Generator: Adobe Illustrator 19.0.0, SVG Export Plug-In . SVG Version: 6.00 Build 0)  -->
<svg version="1.1" id="图层_1" xmlns="http://www.w3.org/2000/svg" xmlns:xlink="http://www.w3.org/1999/xlink" x="0px" y="0px"
	 viewBox="0 0 16 16" style="enable-background:new 0 0 16 16;" xml:space="preserve">
<style type="text/css">
	.st0{fill:#040000;}
</style>
<g>
	<path id="XMLID_128_" class="st0" d="M14.9,2.5l-1.7-1.7l-0.9,0.9l1,1H8.5c-2.3,0-4.1,1.8-4.1,4.1S6.3,11,8.5,11h2.7V9.7H8.5
		C7,9.7,5.7,8.5,5.7,6.9S7,4.1,8.5,4.1h4.7l-1,1l0.9,0.9l1.7-1.7l0.9-0.9L14.9,2.5z"/>
	<path id="XMLID_127_" class="st0" d="M13.4,13.5c0,0.6-0.5,1.1-1.1,1.1H2.6c-0.6,0-1.1-0.5-1.1-1.1V2.5c0-0.6,0.5-1.1,1.1-1.1h6.1
		V0H2.6C1.3,0,0.2,1.1,0.2,2.5v11.1c0,1.3,1.1,2.4,2.4,2.4h9.7c1.3,0,2.4-1.1,2.4-2.4V8.4h-1.3V13.5z"/>
</g>
</svg>
