<?xml version="1.0" encoding="utf-8"?>
<!-- Generator: Adobe Illustrator 19.0.0, SVG Export Plug-In . SVG Version: 6.00 Build 0)  -->
<svg version="1.1" id="图层_1" xmlns="http://www.w3.org/2000/svg" xmlns:xlink="http://www.w3.org/1999/xlink" x="0px" y="0px"
	 viewBox="0 0 16 16" style="enable-background:new 0 0 16 16;" xml:space="preserve">
<style type="text/css">
	.st0{fill:#040000;}
</style>
<path id="XMLID_35_" class="st0" d="M4.2,16c-1.1,0-2.1-0.4-2.9-1.2l-0.1-0.1C0.4,14,0,12.9,0,11.8c0-1.1,0.4-2.1,1.2-2.9l1.5-1.4
	c0.3-0.2,0.7-0.2,0.9,0c0.2,0.3,0.2,0.7,0,0.9L2.1,9.8c-0.5,0.5-0.8,1.2-0.8,2c0,0.8,0.3,1.5,0.8,2l0.1,0.1c1.1,1.1,2.9,1.1,4,0
	l3.1-3.1c1.1-1.1,1.2-2.9,0.1-4L9.4,6.8C9.3,6.7,9,6.5,8.8,6.4C8.5,6.3,8.3,6,8.4,5.6c0.1-0.3,0.4-0.5,0.8-0.4
	c0.5,0.1,0.9,0.5,1.1,0.7l0.1,0.1c1.6,1.6,1.5,4.1-0.1,5.7l-3.1,3.1C6.3,15.6,5.2,16,4.2,16 M6.2,10.1C6,10.1,5.8,10,5.7,9.9
	C4.1,8.3,4.2,6,5.8,4.3l3.1-3.1c1.6-1.6,4.2-1.6,5.8,0l0.1,0.1C15.6,2,16,3.1,16,4.2c0,1.1-0.4,2.1-1.2,2.9l-1.5,1.4
	c-0.3,0.2-0.7,0.2-0.9,0c-0.2-0.3-0.2-0.7,0-0.9l1.5-1.3c0.5-0.5,0.8-1.2,0.8-2c0-0.8-0.3-1.5-0.8-2l-0.1-0.1c-1.1-1.1-2.9-1.1-4,0
	L6.7,5.2C5.5,6.4,5.5,7.9,6.6,9c0.2,0.2,0.2,0.6,0,0.9C6.5,10,6.3,10.1,6.2,10.1"/>
</svg>
