<?xml version="1.0" encoding="utf-8"?>
<!-- Generator: Adobe Illustrator 19.0.0, SVG Export Plug-In . SVG Version: 6.00 Build 0)  -->
<svg version="1.1" id="图层_1" xmlns="http://www.w3.org/2000/svg" xmlns:xlink="http://www.w3.org/1999/xlink" x="0px" y="0px"
	 viewBox="0 0 16 16" style="enable-background:new 0 0 16 16;" xml:space="preserve">
<style type="text/css">
	.st0{fill:#040000;}
</style>
<g id="XMLID_1_">
	<path id="XMLID_2_" class="st0" d="M9.8,8.7H3.7C3.4,8.7,3.1,9,3.1,9.3c0,0.3,0.3,0.6,0.6,0.6h6.1c0.3,0,0.6-0.3,0.6-0.6
		C10.4,9,10.2,8.7,9.8,8.7z"/>
	<path id="XMLID_10_" class="st0" d="M9.8,11.3H3.7c-0.3,0-0.6,0.3-0.6,0.6c0,0.3,0.3,0.6,0.6,0.6h6.1c0.3,0,0.6-0.3,0.6-0.6
		S10.2,11.3,9.8,11.3z"/>
	<path id="XMLID_11_" class="st0" d="M10.4,6.8c0-0.3-0.3-0.6-0.6-0.6h-4v1.2h4C10.2,7.4,10.4,7.1,10.4,6.8z"/>
	<path id="XMLID_14_" class="st0" d="M12.2,3H3.7L0.5,6.2v8.6c0,0.4,0.3,0.8,0.8,0.8h11c0.4,0,0.8-0.3,0.8-0.8v-11
		C13,3.4,12.6,3,12.2,3z M11.4,14H2V7h2.3V4.6l0,0h7.1V14z"/>
	<path id="XMLID_15_" class="st0" d="M14.8,0.5H6.4c-0.3,0-0.6,0.3-0.6,0.7c0,0.3,0.3,0.7,0.6,0.7h7.8v9.1c0,0.3,0.4,0.6,0.7,0.6
		c0.3,0,0.6-0.3,0.6-0.6V1.2C15.6,0.8,15.2,0.5,14.8,0.5z"/>
</g>
</svg>
