<?xml version="1.0" encoding="utf-8"?>
<!-- Generator: Adobe Illustrator 19.0.0, SVG Export Plug-In . SVG Version: 6.00 Build 0)  -->
<svg version="1.1" id="图层_1" xmlns="http://www.w3.org/2000/svg" xmlns:xlink="http://www.w3.org/1999/xlink" x="0px" y="0px"
	 viewBox="0 0 16 16" style="enable-background:new 0 0 16 16;" xml:space="preserve">
<style type="text/css">
	.st0{fill:#040000;}
</style>
<g id="XMLID_1_">
	<path id="XMLID_339_" class="st0" d="M16,8.9l-1.5-2.6C14.3,6,14,5.8,13.7,5.8c-0.3-0.1-0.6,0.1-0.9,0.3l-2.1,2
		c-0.2,0.1-0.4,0.4-0.4,0.5c0,0.2,0,0.4,0.1,0.5c0.2,0.4,0.3,0.5,0.8,0.6c-0.4,1.4-2,2.9-3.5,3c-0.3,0-0.5,0.2-0.5,0.2
		c0,0.2,0.1,0.4,0.3,0.5c0.4,0.1,0.8,0.3,1.3,0.4c2.4,0.3,5.2-0.5,6-3.6l0.1,0l0.1,0c0.2-0.1,0.5,0,0.8-0.4C15.9,9.8,16,9.6,16,9.5
		C16,9.3,16,9.1,16,8.9C16,8.9,16,8.9,16,8.9z M15.1,9.6l-0.5,0c-0.3,0-0.6,0.1-0.6,0.4c-0.7,2.9-3.5,3.5-5.4,3.1
		c1.6-0.4,3.4-1.9,3.5-3.5c0-0.2-0.2-0.5-0.5-0.5L11.2,9c-0.1,0-0.2,0-0.2,0l2.3-2c0-0.1,0.1-0.1,0.1-0.1l0.1,0l1.7,2.7
		C15.2,9.6,15.2,9.6,15.1,9.6z"/>
	<path id="XMLID_325_" class="st0" d="M6.9,13H1.4c-0.3,0-0.6-0.3-0.6-0.6V5.2c0,0,0,0,0.1,0H14v0.2h0.9V3.2c0-0.6-0.5-1.2-1.2-1.2
		H1.1c-0.6,0-1.2,0.5-1.2,1.2v9.5c0,0.6,0.5,1.2,1.2,1.2h6.3 M14,4.1H0.9c0,0,0,0-0.1,0V3.6C0.8,3.3,1.1,3,1.4,3h11.9
		C13.7,3,14,3.3,14,3.6V4.1z"/>
	<path id="XMLID_302_" d="M7.3,8H2.2C2,8,1.8,7.8,1.8,7.6l0-0.3C1.8,7,2,6.8,2.2,6.8h5.1c0.2,0,0.4,0.2,0.4,0.4v0.3
		C7.7,7.8,7.5,8,7.3,8z"/>
	<path id="XMLID_159_" d="M5.6,10.4H2.2c-0.2,0-0.4-0.2-0.4-0.4l0-0.3c0-0.2,0.2-0.4,0.4-0.4h3.4C5.8,9.3,6,9.5,6,9.7L6,10
		C6,10.2,5.8,10.4,5.6,10.4z"/>
</g>
</svg>
