<?xml version="1.0" encoding="utf-8"?>
<!-- Generator: Adobe Illustrator 19.0.0, SVG Export Plug-In . SVG Version: 6.00 Build 0)  -->
<svg version="1.1" id="图层_1" xmlns="http://www.w3.org/2000/svg" xmlns:xlink="http://www.w3.org/1999/xlink" x="0px" y="0px"
	 viewBox="0 0 16 16" style="enable-background:new 0 0 16 16;" xml:space="preserve">
<style type="text/css">
	.st0{fill:#040000;}
	.st1{fill:#100307;}
</style>
<g id="XMLID_221_">
	<path id="XMLID_220_" class="st0" d="M11.9,10.9v3.4c0,0.3-0.2,0.5-0.5,0.5H1.8c-0.3,0-0.5-0.2-0.5-0.5V4.7c0-0.3,0.2-0.5,0.5-0.5
		H6c0.3,0,0.5-0.2,0.5-0.5S6.3,3.1,6,3.1H1.8c-0.9,0-1.6,0.7-1.6,1.6v9.6c0,0.9,0.7,1.6,1.6,1.6h9.6c0.9,0,1.6-0.7,1.6-1.6v-3.4
		c0-0.3-0.2-0.5-0.5-0.5S11.9,10.6,11.9,10.9z"/>
	<path id="XMLID_219_" class="st1" d="M14.2,0.1H4c-0.9,0-1.6,0.7-1.6,1.6v2v0.4h1.1V1.9c0-0.4,0.3-0.7,0.7-0.7H14
		c0.4,0,0.7,0.3,0.7,0.7v9.7c0,0.4-0.3,0.7-0.7,0.7h-2v1.1h2.2c0.9,0,1.6-0.7,1.6-1.6V1.7C15.8,0.8,15.1,0.1,14.2,0.1z"/>
	<path id="XMLID_218_" class="st0" d="M13.5,5.8c-2.2-1.1-3.7-0.2-5.2,2.5l1.4,0.8c0.1,0.1,0.2,0.2,0.1,0.3c0,0,0,0.1,0,0.1
		c0,0.1-0.1,0.1-0.2,0.1l-3.9,1.5c-0.1,0-0.3-0.1-0.3-0.2L4.7,6.8c0-0.1,0-0.2,0.1-0.3c0.1-0.1,0.2-0.1,0.3,0l1.4,0.8
		c1.6-2.8,3.8-4.6,7-1.8L13.5,5.8L13.5,5.8z"/>
</g>
</svg>
