<?xml version="1.0" encoding="utf-8"?>
<!-- Generator: Adobe Illustrator 19.0.0, SVG Export Plug-In . SVG Version: 6.00 Build 0)  -->
<svg version="1.1" id="图层_1" xmlns="http://www.w3.org/2000/svg" xmlns:xlink="http://www.w3.org/1999/xlink" x="0px" y="0px"
	 viewBox="0 0 16 16" style="enable-background:new 0 0 16 16;" xml:space="preserve">
<style type="text/css">
	.st0{fill:#040000;}
</style>
<g id="XMLID_218_">
	<path id="XMLID_576_" class="st0" d="M9.5,3.8C8.9,4.6,8.8,5.5,8.8,5.6c0,0.3,0.1,0.5,0.4,0.5c0,0,0,0,0.1,0c0.2,0,0.4-0.2,0.5-0.4
		c0,0,0.1-0.7,0.6-1.4C10.9,3.4,11.8,3,13,2.9c0,0,0,0,0,0c0.3,0,0.5-0.2,0.5-0.5V1.9l1.3,1.2l-1.3,1.1V3.8c0-0.3-0.2-0.5-0.5-0.5
		c-0.3,0-0.5,0.2-0.5,0.5v1.4c0,0.2,0.1,0.3,0.3,0.4c0.1,0,0.1,0,0.2,0c0.1,0,0.2,0,0.3-0.1l2.5-2.1c0.1-0.1,0.2-0.2,0.2-0.3
		c0-0.1,0-0.3-0.1-0.4l-2.5-2.3c-0.1-0.1-0.3-0.2-0.5-0.1c-0.2,0.1-0.3,0.2-0.3,0.4V2C10.9,2.2,10,3.1,9.5,3.8L9.5,3.8z"/>
	<path id="XMLID_651_" class="st0" d="M14.3,6.4v7.3c0,0.4-0.3,0.7-0.7,0.7H1.9c-0.4,0-0.7-0.3-0.7-0.7V2.4c0-0.4,0.3-0.7,0.7-0.7v0
		h7.9c0-0.4,0.1-0.8,0.2-1.2H1.9c-1,0-1.9,0.8-1.9,1.9v11.4c0,1,0.8,1.9,1.9,1.9h11.7c1,0,1.9-0.8,1.9-1.9V6.3
		C15.1,6.4,14.7,6.4,14.3,6.4z"/>
	<path id="XMLID_653_" class="st0" d="M9.1,12.3C9.1,12.3,9.1,12.3,9.1,12.3c0-0.1,0-0.1,0-0.1c-0.2-1.4-1.1-2.5-2.3-3
		C7.6,8.7,8,7.9,8,7c0-1.5-1.2-2.7-2.7-2.7C3.9,4.4,2.7,5.5,2.7,7c0,0.9,0.5,1.7,1.2,2.2c-1.2,0.5-2.1,1.6-2.3,3c0,0,0,0.1,0,0.1
		l0,0c0,0,0,0,0,0l0,0l0,0c0,0.2,0.2,0.4,0.4,0.4c0.2,0,0.4-0.2,0.4-0.4l0,0h0c0.2-1.4,1.4-2.6,2.8-2.7c0.1,0,0.1,0,0.2,0
		c0.1,0,0.1,0,0.2,0c1.5,0.1,2.7,1.2,2.8,2.7h0l0,0c0,0.2,0.2,0.4,0.4,0.4C9,12.7,9.1,12.5,9.1,12.3L9.1,12.3L9.1,12.3z M3.5,7
		c0-1,0.9-1.9,1.9-1.9c1,0,1.9,0.9,1.9,1.9c0,1-0.8,1.8-1.7,1.9c-0.1,0-0.1,0-0.2,0c-0.1,0-0.1,0-0.2,0C4.2,8.8,3.5,8,3.5,7z"/>
	<path id="XMLID_226_" class="st0" d="M13,9.3H9.9c-0.2,0-0.4,0.2-0.4,0.4c0,0.2,0.2,0.4,0.4,0.4H13c0.2,0,0.4-0.2,0.4-0.4
		C13.4,9.5,13.3,9.3,13,9.3L13,9.3L13,9.3z"/>
	<path id="XMLID_652_" class="st0" d="M13,10.8H9.9c-0.2,0-0.4,0.2-0.4,0.4c0,0.2,0.2,0.4,0.4,0.4H13c0.2,0,0.4-0.2,0.4-0.4
		C13.4,11,13.3,10.8,13,10.8L13,10.8L13,10.8z"/>
</g>
</svg>
