<?xml version="1.0" encoding="utf-8"?>
<!-- Generator: Adobe Illustrator 19.0.0, SVG Export Plug-In . SVG Version: 6.00 Build 0)  -->
<svg version="1.1" id="图层_1" xmlns="http://www.w3.org/2000/svg" xmlns:xlink="http://www.w3.org/1999/xlink" x="0px" y="0px"
	 viewBox="0 0 16 16" style="enable-background:new 0 0 16 16;" xml:space="preserve">
<style type="text/css">
	.st0{fill:#040000;}
</style>
<g id="XMLID_45_">
	<path id="XMLID_49_" class="st0" d="M9.8,5.1c-0.3,0-0.5,0.2-0.5,0.5v0v0.5v5.3V12v0h0c0,0.3,0.2,0.5,0.5,0.5
		c0.3,0,0.5-0.2,0.5-0.5h0v0v-0.5V6.2V5.7v0C10.3,5.4,10.1,5.1,9.8,5.1z"/>
	<path id="XMLID_48_" class="st0" d="M6.3,5.1C6,5.1,5.8,5.4,5.8,5.7v0v0.5v5.3V12v0h0c0,0.3,0.2,0.5,0.5,0.5c0.3,0,0.5-0.2,0.5-0.5
		h0v0v-0.5V6.2V5.7v0C6.9,5.4,6.6,5.1,6.3,5.1z"/>
	<path id="XMLID_47_" class="st0" d="M13.7,5.7c0-0.3-0.2-0.5-0.5-0.5s-0.5,0.2-0.5,0.5v0.5c0,0,0,0,0,0l0,0v8
		c0,0.4-0.3,0.8-0.8,0.8H4.1c-0.4,0-0.8-0.3-0.8-0.8v-8c0,0,0,0,0,0V5.7c0-0.3-0.2-0.5-0.5-0.5c-0.3,0-0.5,0.2-0.5,0.5v0.5v0v8.2
		C2.3,15.2,3,16,4,16H12c0.9,0,1.7-0.8,1.7-1.7v-8c0,0,0,0,0-0.1c0,0,0,0,0-0.1L13.7,5.7L13.7,5.7z"/>
	<path id="XMLID_46_" class="st0" d="M15.5,2.9L15.5,2.9H15h-2.4V2V1.8V1.7c0-0.9-0.8-1.7-1.7-1.7H5.1C4.2,0,3.5,0.7,3.4,1.6h0v0.1
		V2v0.9L1,2.9H0.6H0.5C0.2,2.9,0,3.2,0,3.5C0,3.8,0.2,4,0.5,4h0.1H1H15h0.4h0.1C15.8,4,16,3.8,16,3.5C16,3.2,15.8,2.9,15.5,2.9z
		 M11.5,1.8v1.1c0,0,0,0.1,0,0.1h-7c0,0,0-0.1,0-0.1V1.7c0-0.3,0.3-0.6,0.6-0.6h5.8c0.3,0,0.6,0.3,0.6,0.6V1.8z"/>
</g>
</svg>
