<?xml version="1.0" encoding="utf-8"?>
<!-- Generator: Adobe Illustrator 19.0.0, SVG Export Plug-In . SVG Version: 6.00 Build 0)  -->
<svg version="1.1" id="图层_1" xmlns="http://www.w3.org/2000/svg" xmlns:xlink="http://www.w3.org/1999/xlink" x="0px" y="0px"
	 viewBox="0 0 16 16" style="enable-background:new 0 0 16 16;" xml:space="preserve">
<style type="text/css">
	.st0{fill:#040000;}
</style>
<path id="XMLID_93_" class="st0" d="M5,8.9C5,8.9,5,8.9,5,8.9L4.2,12c0,0.2,0,0.4,0.1,0.5c0.1,0.1,0.3,0.2,0.5,0.1l2.9-0.8l0,0
	c0,0,0.1,0,0.1,0l7.8-8.1C15.9,3.4,16,3.1,16,2.7c0-0.4-0.2-0.8-0.5-1.1l-0.7-0.8c-0.3-0.3-0.7-0.5-1.1-0.5c-0.3,0-0.7,0.1-0.9,0.4
	L5,8.9C5,8.8,5,8.9,5,8.9L5,8.9z M14.9,2.8l-0.8,0.8l-1.3-1.3l0.8-0.8c0.1-0.1,0.4-0.1,0.5,0l0.7,0.8C14.9,2.4,15,2.5,15,2.6
	C15,2.7,14.9,2.8,14.9,2.8L14.9,2.8z M6.4,9L12,3.1l1.3,1.3l-5.6,5.8L6.4,9 M5.4,11.4l0.4-1.6l1.1,1.1L5.4,11.4 M15.4,6.1
	c-0.3,0-0.5,0.3-0.5,0.6v7.6c0,0.4-0.3,0.7-0.7,0.7l0,0H1.8c-0.4,0-0.7-0.3-0.7-0.7V1.8c0-0.4,0.3-0.7,0.7-0.7h8
	c0.3,0,0.5-0.3,0.5-0.6l0,0C10.3,0.3,10,0,9.7,0h-8C0.8,0,0,0.8,0,1.8v12.5c0,1,0.8,1.8,1.7,1.8h12.5c0.9,0,1.7-0.8,1.7-1.8V6.6
	C15.9,6.3,15.7,6.1,15.4,6.1z"/>
</svg>
