<?xml version="1.0" encoding="utf-8"?>
<!-- Generator: Adobe Illustrator 19.0.0, SVG Export Plug-In . SVG Version: 6.00 Build 0)  -->
<svg version="1.1" id="图层_1" xmlns="http://www.w3.org/2000/svg" xmlns:xlink="http://www.w3.org/1999/xlink" x="0px" y="0px"
	 viewBox="0 0 16 16" style="enable-background:new 0 0 16 16;" xml:space="preserve">
<style type="text/css">
	.st0{fill:#040000;}
</style>
<g id="XMLID_24_">
	<path id="XMLID_29_" class="st0" d="M8,16c-1.1,0-2.1-0.2-3.1-0.6c-1-0.4-1.8-1-2.5-1.7S1,12.1,0.6,11.1C0.2,10.1,0,9.1,0,8
		s0.2-2.1,0.6-3.1c0.4-1,1-1.8,1.7-2.5C3.1,1.6,3.9,1,4.9,0.6C5.9,0.2,6.9,0,8,0s2.1,0.2,3.1,0.6c1,0.4,1.8,1,2.5,1.7
		c0.7,0.7,1.3,1.6,1.7,2.5c0.4,1,0.6,2,0.6,3.1c0,1.1-0.2,2.1-0.6,3.1c-0.4,1-1,1.8-1.7,2.5c-0.7,0.7-1.6,1.3-2.5,1.7
		C10.1,15.8,9.1,16,8,16z M8,1.1c-1.8,0-3.6,0.7-4.9,2s-2,3-2,4.9s0.7,3.6,2,4.9s3,2,4.9,2s3.6-0.7,4.9-2s2-3,2-4.9s-0.7-3.6-2-4.9
		C11.6,1.9,9.8,1.1,8,1.1z"/>
	<path id="XMLID_25_" class="st0" d="M11.1,8l-4.5,3.5v-7L11.1,8z"/>
</g>
</svg>
