<?xml version="1.0" encoding="utf-8"?>
<!-- Generator: Adobe Illustrator 19.0.0, SVG Export Plug-In . SVG Version: 6.00 Build 0)  -->
<svg version="1.1" id="图层_1" xmlns="http://www.w3.org/2000/svg" xmlns:xlink="http://www.w3.org/1999/xlink" x="0px" y="0px"
	 viewBox="0 0 16 16" style="enable-background:new 0 0 16 16;" xml:space="preserve">
<style type="text/css">
	.st0{fill:#040000;}
</style>
<path id="XMLID_12_" class="st0" d="M9.1,2.5V0.3L1.3,2.6v11l7.8,2.3v-2.2h5.8V2.5L9.1,2.5L9.1,2.5z M9.1,10.6h1.5V12H9.1V10.6z
	 M9.1,8.4h1.5v1.4H9.1V8.4z M9.1,6.2h1.5v1.4H9.1V6.2z M9.1,4h1.5v1.4H9.1C9.1,5.4,9.1,4,9.1,4z M11.5,10.6h1.8V12h-1.8V10.6z
	 M11.5,8.4h1.8v1.4h-1.8V8.4z M11.5,6.2h1.8v1.4h-1.8V6.2z M11.5,4h1.8v1.4h-1.8C11.5,5.4,11.5,4,11.5,4z M4.3,5.8l0.9,1.6l1-1.7
	l0.8,0L5.7,8l1.5,2.5l-0.9,0l-1-1.8l-1.1,1.7l-0.8,0L4.8,8L3.4,5.8L4.3,5.8L4.3,5.8z"/>
</svg>
