<?xml version="1.0" encoding="utf-8"?>
<!-- Generator: Adobe Illustrator 19.0.0, SVG Export Plug-In . SVG Version: 6.00 Build 0)  -->
<svg version="1.1" id="图层_1" xmlns="http://www.w3.org/2000/svg" xmlns:xlink="http://www.w3.org/1999/xlink" x="0px" y="0px"
	 viewBox="0 0 16 16" style="enable-background:new 0 0 16 16;" xml:space="preserve">
<style type="text/css">
	.st0{fill:#040000;}
</style>
<g id="XMLID_3_">
	<path id="XMLID_2_" class="st0" d="M14.6,9.7v4.2c0,0.4-0.3,0.7-0.7,0.7H2c-0.4,0-0.7-0.3-0.7-0.7V2c0-0.4,0.3-0.7,0.7-0.7h5.2
		c0.4,0,0.7-0.3,0.7-0.7S7.6,0,7.3,0H2C0.9,0,0,0.9,0,2v12c0,1.1,0.9,2,2,2h12c1.1,0,2-0.9,2-2V9.7c0-0.4-0.3-0.7-0.7-0.7
		S14.6,9.4,14.6,9.7z"/>
	<path id="XMLID_1_" class="st0" d="M13.3,2.2c-0.1,4.8-3.3,8.4-7.9,8.4c-0.4,0-0.7-0.3-0.7-0.7c0-0.4,0.3-0.7,0.7-0.7
		c3.7,0,6.4-2.8,6.6-6.8L11.3,3c-0.3,0.3-0.7,0.2-0.9,0c-0.3-0.3-0.3-0.7,0-0.9l1.8-1.8c0,0,0-0.1,0.1-0.1C12.4,0.1,12.6,0,12.7,0
		c0.2,0,0.3,0.1,0.5,0.2c0,0,0.1,0.1,0.1,0.1l1.8,1.8c0.3,0.3,0.3,0.7,0,0.9c-0.3,0.3-0.7,0.3-0.9,0L13.3,2.2z"/>
</g>
</svg>
