<?xml version="1.0" encoding="utf-8"?>
<!-- Generator: Adobe Illustrator 19.0.0, SVG Export Plug-In . SVG Version: 6.00 Build 0)  -->
<svg version="1.1" id="图层_1" xmlns="http://www.w3.org/2000/svg" xmlns:xlink="http://www.w3.org/1999/xlink" x="0px" y="0px"
	 viewBox="0 0 16 16" style="enable-background:new 0 0 16 16;" xml:space="preserve">
<path id="XMLID_1_" class="st0" d="M15.4,15.2V0.8c0-0.5-0.5-0.8-1.1-0.8h-0.9h-2v0H3.5C3.1,0,2.7,0.4,2.7,0.8v0.8h1.4
	c0.9,0,1.7,0.7,1.7,1.7C5.8,4.2,5,5,4.1,5H2.7v1.4h1.4C5,6.3,5.8,7.1,5.8,8c0,0.9-0.7,1.7-1.7,1.7H2.7V11h1.4c0.9,0,1.7,0.7,1.7,1.7
	c0,0.9-0.7,1.7-1.7,1.7H2.7v0.8c0,0.5,0.4,0.8,0.8,0.8h7.9h0.3h2.5v0C14.9,16,15.4,15.6,15.4,15.2z M13.1,8.6L13.1,8.6
	c0.4,0,0.8,0.3,0.8,0.7c0,0.4-0.4,0.7-0.8,0.7h-1.9v1.8c0,0.4-0.3,0.8-0.7,0.8c-0.4,0-0.7-0.4-0.7-0.8v-1.8H7.7
	c-0.4,0-0.8-0.3-0.8-0.7c0-0.4,0.4-0.7,0.8-0.7h1.9v-1H7.7c-0.4,0-0.8-0.3-0.8-0.7c0-0.4,0.4-0.7,0.8-0.7h1.1L8.4,5.4l0,0L7.9,4.5
	C7.7,4.1,7.8,3.6,8.2,3.4c0.4-0.2,0.8,0,1,0.4l0.4,0.7c0,0,0,0,0,0L10,5.3l0,0l0.4,0.8l0.4-0.8l0,0l0.4-0.7c0,0,0,0,0,0l0.4-0.7
	c0.2-0.4,0.7-0.6,1-0.4c0.4,0.2,0.5,0.7,0.3,1.1l-0.5,0.9l0,0L12,6.1h0h1.1c0.4,0,0.8,0.3,0.8,0.7c0,0.4-0.4,0.7-0.8,0.7h-1.9v1
	H13.1z M1.9,4.1h2.2c0.5,0,0.8-0.4,0.8-0.8c0-0.5-0.4-0.8-0.8-0.8H1.9c-0.5,0-0.8,0.4-0.8,0.8C1.1,3.8,1.4,4.1,1.9,4.1z M4.9,12.7
	c0-0.5-0.4-0.8-0.8-0.8H1.9c-0.5,0-0.8,0.4-0.8,0.8c0,0.5,0.4,0.8,0.8,0.8h2.2C4.6,13.5,4.9,13.1,4.9,12.7z M1.1,8
	c0,0.5,0.4,0.8,0.8,0.8h2.2c0.5,0,0.8-0.4,0.8-0.8c0-0.5-0.4-0.8-0.8-0.8l-2.2,0C1.4,7.2,1.1,7.5,1.1,8z M11.8,6.3L11.8,6.3
	L11.8,6.3L11.8,6.3z"/>
</svg>
