<?xml version="1.0" encoding="utf-8"?>
<!-- Generator: Adobe Illustrator 19.0.0, SVG Export Plug-In . SVG Version: 6.00 Build 0)  -->
<svg version="1.1" id="图层_1" xmlns="http://www.w3.org/2000/svg" xmlns:xlink="http://www.w3.org/1999/xlink" x="0px" y="0px"
	 viewBox="0 0 16 16" style="enable-background:new 0 0 16 16;" xml:space="preserve">
<g id="XMLID_9_">
	<g id="XMLID_10_" transform="scale(0.1953125, 0.1953125)">
		<path id="XMLID_11_" class="st0" d="M42.5,64.1c0-3.2,0.7-6.3,2.1-9.1l-34.1,0c-1.5,0-3.1,1.3-3.5,2.9L1.6,77.4
			C1,79.8,2,81.8,4,81.8h47.4C45.9,77.2,42.5,71,42.5,64.1z M30.7,52.9c14.6,0,26.4-11.8,26.4-26.4S45.3,0.1,30.7,0.1
			S4.4,11.9,4.4,26.5C4.4,41.1,16.2,52.9,30.7,52.9z M22.2,15.1c0,0-0.2-7,4.3-7.5c0,0-2.3,9.2,6.4,11.8c0,0,13.5,3.1,18.2,6.8
			c0,0.1,0,0.2,0,0.3c0,11.2-9.1,20.3-20.3,20.3c-11.2,0-20.2-9.1-20.3-20.2C13.3,25.9,19.8,23.5,22.2,15.1z M65.4,65.9v5.2
			c0.7-0.1,0.9-0.4,1.3-0.9c0.4-0.5,0.6-1.1,0.6-1.7c0-0.6-0.2-1.1-0.5-1.5C66.5,66.4,66.2,66.1,65.4,65.9z M75.6,52.8
			c-6.5-6.5-16.9-6.5-23.4,0c-6.5,6.5-6.5,17,0,23.4c6.5,6.5,17,6.5,23.4,0C82.1,69.8,82.1,59.3,75.6,52.8z M69.2,72
			c-1,1.1-2,1.8-3.8,2v3.2h-2.4v-3.1c-1.5-0.2-2.6-0.8-3.6-1.7c-1-1-1.6-2.3-1.8-4.1l3.5-0.4c0.1,0.7,0.4,1.3,0.8,1.8
			c0.4,0.5,0.7,0.9,1.2,1.1v-5.6c-1.7-0.5-2.9-1.2-3.7-2.3c-0.8-1-1.2-2.2-1.2-3.7c0-1.5,0.5-2.7,1.4-3.7c0.9-1,2-1.6,3.5-1.7v-1.9
			h2.4V54c1.4,0.2,2.2,0.7,3.1,1.4c0.8,0.8,1.4,1.9,1.6,3.2l-3.4,0.4c-0.2-1-0.5-1.8-1.3-2.1v5.2c2.1,0.6,3.3,1.3,4.1,2.2
			c0.8,0.9,1.2,2.1,1.2,3.5C70.6,69.5,70.2,70.9,69.2,72z M62,57.8c-0.3,0.4-0.5,0.9-0.5,1.4c0,0.5,0.1,0.9,0.4,1.3
			c0.3,0.4,0.6,0.7,1.1,1l0-4.6C62.5,57.1,62.3,57.4,62,57.8z"/>
	</g>
</g>
</svg>
