<?xml version="1.0" encoding="utf-8"?>
<!-- Generator: Adobe Illustrator 19.0.0, SVG Export Plug-In . SVG Version: 6.00 Build 0)  -->
<svg version="1.1" id="图层_1" xmlns="http://www.w3.org/2000/svg" xmlns:xlink="http://www.w3.org/1999/xlink" x="0px" y="0px"
	 viewBox="0 0 16 16" style="enable-background:new 0 0 16 16;" xml:space="preserve">
<style type="text/css">
	.st0{fill:#040000;}
</style>
<g id="XMLID_1_">
	<g id="XMLID_27_">
		<path id="XMLID_36_" class="st0" d="M6.1,4.3L4.9,3.9c0,0-0.4,1.6-2,3.5v1.8c0,0,0.4-0.5,0.7-0.8c0,0-0.2,1.6-0.8,3.7h1.5
			c0,0,0.5-3.9,0.7-5.4C4.9,6.6,5.8,5.3,6.1,4.3z"/>
		<path id="XMLID_103_" class="st0" d="M10.7,6.5l0.2-1h-1l0.2-1.4H9L8.8,5.5h-1l0.2-1.4H6.8L6.6,5.5H5.8l-0.2,1h0.8L6.1,8.4h-1
			L5,9.4h1.5C5.8,10.1,4.6,11,4.6,11l0.8,1c2-1.3,2.7-2.7,2.7-2.7h2.3l0.2-1H9.5l0.4-1.8H10.7z M8.4,7.8L8.2,8.4h-1l0.2-1l0.4-0.6
			h0.6V7.8z"/>
		<path id="XMLID_104_" class="st0" d="M9,9.8c-0.6,0-1.1,0.5-1.1,1.1c0,0.6,0.5,1.1,1.1,1.1c0.6,0,1.1-0.5,1.1-1.1
			C10.2,10.3,9.7,9.8,9,9.8z"/>
	</g>
	<path id="XMLID_98_" class="st0" d="M15.9,11.7h-4.6c-0.1,0-0.1,0.1-0.1,0.1V12c0,0.1,0,0.1,0.1,0.1h4.6c0.1,0,0.1-0.1,0.1-0.1
		v-0.1C16,11.8,15.9,11.7,15.9,11.7z M16,11.2v-0.3c0-0.2,0-0.2-0.2-0.2H15c-0.1,0-0.1,0-0.2-0.1c0,0,0,0,0,0c0,0,0,0-0.1-0.1
		c0,0,0,0,0,0v0c0,0,0-0.1-0.1-0.1c-0.4-0.5-0.1-0.8,0.2-1.3C14.9,9,15,8.9,15,8.8c0.1-0.2,0.2-0.5,0.2-0.7c0-0.8-0.7-1.5-1.6-1.5
		c-0.9,0-1.6,0.7-1.6,1.5c0,0.4,0.1,0.7,0.3,0.9c0.3,0.5,0.9,0.9,0,1.6h-0.9c-0.2,0-0.2,0.1-0.2,0.2v0.4c0,0.1,0.1,0.1,0.3,0.1h4.4
		C16,11.3,16,11.3,16,11.2L16,11.2z"/>
	<path id="XMLID_99_" class="st0" d="M7.4,14.2C4,14.2,1.2,11.4,1.2,8c0-3.4,2.8-6.2,6.2-6.2c2.6,0,4.8,1.6,5.7,3.9
		c0.4-0.2,0.8-0.3,1.2-0.3c-1.1-2.8-3.7-4.8-6.9-4.8C3.3,0.6,0,3.9,0,8s3.3,7.4,7.4,7.4c1.6,0,3.1-0.5,4.3-1.4
		c-0.3-0.3-0.5-0.6-0.7-1C10,13.7,8.7,14.2,7.4,14.2z"/>
</g>
</svg>
