<?xml version="1.0" encoding="utf-8"?>
<!-- Generator: Adobe Illustrator 19.0.0, SVG Export Plug-In . SVG Version: 6.00 Build 0)  -->
<svg version="1.1" id="图层_1" xmlns="http://www.w3.org/2000/svg" xmlns:xlink="http://www.w3.org/1999/xlink" x="0px" y="0px"
	 viewBox="0 0 16 16" style="enable-background:new 0 0 16 16;" xml:space="preserve">
<style type="text/css">
	.st0{fill:#040000;}
</style>
<g id="XMLID_1_">
	<path id="XMLID_8_" class="st0" d="M13.6,4.2L6.9,1.3L0.7,4.1c-0.2,0.1-0.2,0.3,0,0.4l6.5,2.7c0.1,0,0.1,0,0.2,0l6.3-2.7
		C13.8,4.5,13.8,4.3,13.6,4.2z"/>
	<path id="XMLID_13_" class="st0" d="M6.7,7.8L0.5,5.3c-0.1-0.1-0.3,0-0.3,0.2v6.2l6.3,3c0.1,0.1,0.3,0,0.3-0.2V8
		C6.8,7.9,6.8,7.9,6.7,7.8z M4.9,9.3c0,0.2-0.2,0.3-0.3,0.2l-2.2-1c-0.1,0-0.1-0.1-0.1-0.2V7.5l2.5,1.2c0.1,0,0.1,0.1,0.1,0.2V9.3z"
		/>
	<path id="XMLID_14_" class="st0" d="M13,7.4c0.4,0,0.7,0.1,1.1,0.2c0.1,0,0.3-0.1,0.3-0.2v-2c0-0.2-0.2-0.3-0.3-0.2L7.8,7.8
		C7.7,7.9,7.7,7.9,7.7,8v6.4c0,0.2,0.2,0.3,0.3,0.2l2.5-1.2c0.1-0.1,0.2-0.2,0.1-0.4c-0.6-0.6-0.9-1.4-0.9-2.3
		C9.6,8.9,11.1,7.4,13,7.4z"/>
	<path id="XMLID_17_" class="st0" d="M15.6,11.5c-0.2-0.1-0.3-0.3-0.3-0.5c0-0.2,0.1-0.4,0.3-0.5l0.1-0.1c0.1-0.1,0.2-0.2,0.1-0.3
		c0-0.1,0-0.1-0.1-0.2c0-0.1-0.1-0.1-0.1-0.2c-0.1-0.1-0.2-0.1-0.3-0.1l-0.1,0c-0.2,0-0.4,0-0.5-0.1c-0.1-0.1-0.2-0.3-0.1-0.5l0-0.1
		c0-0.1,0-0.3-0.1-0.3c-0.1,0-0.1-0.1-0.2-0.1c-0.1,0-0.1,0-0.2-0.1c-0.1,0-0.2,0-0.3,0.1l-0.1,0.1C13.7,8.9,13.5,9,13.3,9
		c-0.2,0-0.4-0.1-0.5-0.3l-0.1-0.1c-0.1-0.1-0.2-0.2-0.3-0.1c-0.1,0-0.1,0-0.2,0.1c-0.1,0-0.1,0.1-0.2,0.1C12,8.7,12,8.8,12,8.9
		L12,9c0,0.2,0,0.4-0.1,0.5c-0.1,0.1-0.3,0.2-0.5,0.1l-0.1,0c-0.1,0-0.3,0-0.3,0.1c0,0.1-0.1,0.1-0.1,0.2c0,0.1,0,0.1-0.1,0.2
		c0,0.1,0,0.2,0.1,0.3l0.1,0.1c0.2,0.1,0.3,0.3,0.3,0.5c0,0.2-0.1,0.4-0.3,0.5l-0.1,0.1c-0.1,0.1-0.2,0.2-0.1,0.3
		c0,0.1,0,0.1,0.1,0.2c0,0.1,0.1,0.1,0.1,0.2c0.1,0.1,0.2,0.1,0.3,0.1l0.1,0c0.2,0,0.4,0,0.5,0.1c0.1,0.1,0.2,0.3,0.1,0.5l0,0.1
		c0,0.1,0,0.3,0.1,0.3c0.1,0,0.1,0.1,0.2,0.1c0.1,0,0.1,0,0.2,0.1c0.1,0,0.2,0,0.3-0.1l0.1-0.1c0.1-0.2,0.3-0.3,0.5-0.3
		c0.2,0,0.4,0.1,0.5,0.3l0.1,0.1c0.1,0.1,0.2,0.2,0.3,0.1c0.1,0,0.1,0,0.2-0.1c0.1,0,0.1-0.1,0.2-0.1c0.1-0.1,0.1-0.2,0.1-0.3l0-0.1
		c0-0.2,0-0.4,0.1-0.5c0.1-0.1,0.3-0.2,0.5-0.1l0.1,0c0.1,0,0.3,0,0.3-0.1c0-0.1,0.1-0.1,0.1-0.2c0-0.1,0-0.1,0.1-0.2
		c0-0.1,0-0.2-0.1-0.3L15.6,11.5z M13.3,12.3c-0.7,0-1.3-0.6-1.3-1.3s0.6-1.3,1.3-1.3s1.3,0.6,1.3,1.3S14,12.3,13.3,12.3z"/>
</g>
</svg>
