<?xml version="1.0" encoding="utf-8"?>
<!-- Generator: Adobe Illustrator 19.0.0, SVG Export Plug-In . SVG Version: 6.00 Build 0)  -->
<svg version="1.1" id="图层_1" xmlns="http://www.w3.org/2000/svg" xmlns:xlink="http://www.w3.org/1999/xlink" x="0px" y="0px"
	 viewBox="0 0 16 16" style="enable-background:new 0 0 16 16;" xml:space="preserve">
<style type="text/css">
	.st0{fill:#040000;}
</style>
<path id="XMLID_2_" class="st0" d="M7.2,12.3c-0.2,0-0.4-0.1-0.5-0.2L3.6,9c-0.3-0.3-0.3-0.8,0-1.1c0.3-0.3,0.8-0.3,1.1,0l2.6,2.6
	l6.5-6.5c0.3-0.3,0.8-0.3,1.1,0c0.3,0.3,0.3,0.8,0,1.1l-7.1,7.1C7.6,12.2,7.4,12.3,7.2,12.3L7.2,12.3L7.2,12.3z M8,16
	c-4.4,0-8-3.6-8-8c0-4.4,3.6-8,8-8c1.6,0,3.1,0.5,4.4,1.3c0.3,0.2,0.3,0.5,0.2,0.8c-0.2,0.3-0.5,0.3-0.8,0.2C10.7,1.5,9.4,1.1,8,1.1
	C4.2,1.1,1.1,4.2,1.1,8s3.1,6.9,6.9,6.9s6.9-3.1,6.9-6.9c0-0.2,0-0.5,0-0.7c0-0.3,0.2-0.6,0.5-0.6s0.6,0.2,0.6,0.5
	c0,0.3,0,0.6,0,0.8C16,12.4,12.4,16,8,16L8,16L8,16z"/>
</svg>
