<?xml version="1.0" encoding="utf-8"?>
<!-- Generator: Adobe Illustrator 19.0.0, SVG Export Plug-In . SVG Version: 6.00 Build 0)  -->
<svg version="1.1" id="图层_1" xmlns="http://www.w3.org/2000/svg" xmlns:xlink="http://www.w3.org/1999/xlink" x="0px" y="0px"
	 viewBox="0 0 45.3 45.3" style="enable-background:new 0 0 45.3 45.3;" xml:space="preserve">
<style type="text/css">
	.st0{fill:#040000;}
</style>
<g id="XMLID_3_">
	<path id="XMLID_2_" class="st0" d="M22.7,45C10.5,45,0.6,35.1,0.6,23c0-5.2,1.9-10.5,5.5-14.6C7.2,7.2,8.9,6.9,10,8.1
		c1.1,1.1,1.4,2.8,0.3,3.9c-2.8,3-4.1,6.9-4.1,11c0,9.1,7.4,16.6,16.6,16.6c9.1,0,16.6-7.4,16.6-16.6c0-4.1-1.4-8-4.1-11
		c-1.1-1.1-0.8-2.8,0.3-3.9c1.1-1.1,2.8-0.8,3.9,0.3c3.6,4.1,5.5,9.1,5.5,14.6C44.7,35.1,34.8,45,22.7,45z"/>
	<path id="XMLID_1_" class="st0" d="M25.4,16.9c0,1.4-1.1,2.8-2.8,2.8l0,0c-1.7,0-2.8-1.1-2.8-2.8l0-13.8c0-1.4,1.1-2.8,2.8-2.8l0,0
		c1.4,0,2.8,1.1,2.8,2.8V16.9z"/>
</g>
</svg>
