<?xml version="1.0" encoding="utf-8"?>
<!-- Generator: Adobe Illustrator 19.0.0, SVG Export Plug-In . SVG Version: 6.00 Build 0)  -->
<svg version="1.1" id="图层_1" xmlns="http://www.w3.org/2000/svg" xmlns:xlink="http://www.w3.org/1999/xlink" x="0px" y="0px"
	 viewBox="0 0 16 16" style="enable-background:new 0 0 16 16;" xml:space="preserve">
<style type="text/css">
	.st0{fill:#040000;}
</style>
<path id="XMLID_4_" class="st0" d="M14.6,9.7v4.2c0,0.4-0.3,0.7-0.7,0.7H2c-0.4,0-0.7-0.3-0.7-0.7V2c0-0.4,0.3-0.7,0.7-0.7h5.2
	c0.4,0,0.7-0.3,0.7-0.7S7.6,0,7.3,0H2C0.9,0,0,0.9,0,2v12c0,1.1,0.9,2,2,2h12c1.1,0,2-0.9,2-2V9.7c0-0.4-0.3-0.7-0.7-0.7
	S14.6,9.4,14.6,9.7z M6.7,8.4C6.8,3.6,10,0,14.6,0c0.4,0,0.7,0.3,0.7,0.7S15,1.3,14.6,1.3c-3.7,0-6.4,2.8-6.6,6.8l0.6-0.6
	c0.3-0.3,0.7-0.2,0.9,0c0.3,0.3,0.3,0.7,0,0.9l-1.8,1.8c0,0,0,0.1-0.1,0.1c-0.1,0.1-0.3,0.2-0.5,0.2c-0.2,0-0.3-0.1-0.5-0.2
	c0,0-0.1-0.1-0.1-0.1L4.9,8.4c-0.3-0.3-0.3-0.7,0-0.9c0.3-0.3,0.7-0.3,0.9,0L6.7,8.4z"/>
</svg>
