<?xml version="1.0" encoding="utf-8"?>
<!-- Generator: Adobe Illustrator 19.0.0, SVG Export Plug-In . SVG Version: 6.00 Build 0)  -->
<svg version="1.1" id="图层_1" xmlns="http://www.w3.org/2000/svg" xmlns:xlink="http://www.w3.org/1999/xlink" x="0px" y="0px"
	 viewBox="0 0 16 16" style="enable-background:new 0 0 16 16;" xml:space="preserve">
<g id="XMLID_2_">
	<g id="XMLID_3_" transform="scale(0.1953125, 0.1953125)">
		<path id="XMLID_4_" class="st0" d="M70.6,10.1L70.6,10.1H53.1c-1.3-6.7-7.8-11.1-14.5-9.8c-5,1-8.9,4.8-9.8,9.8H11.3
			c-4.4,0-8,3.6-8,8V74c0,4.4,3.6,8,8,8h59.3c4.4,0,8-3.6,8-8V18C78.6,13.6,75,10.1,70.6,10.1z M36.4,10.1c1.3-2.5,4.4-3.5,6.9-2.2
			c2.5,1.3,3.5,4.4,2.2,6.9c-1.3,2.5-4.4,3.5-6.9,2.2c-1.7-0.9-2.8-2.6-2.7-4.6C35.8,11.6,36,10.8,36.4,10.1z M41,25.8L41,25.8
			c7.1,0,12.9,5.8,12.9,12.9S48.1,51.5,41,51.5s-12.9-5.8-12.9-12.9C28.1,31.5,33.9,25.8,41,25.8z M72,74.2L72,74.2H9.9v-3.1h0
			c6.9-9.7,18.2-15.9,31-15.9s24.1,6.3,31,15.9h0L72,74.2L72,74.2z"/>
	</g>
</g>
</svg>
