<?xml version="1.0" encoding="utf-8"?>
<!-- Generator: Adobe Illustrator 19.0.0, SVG Export Plug-In . SVG Version: 6.00 Build 0)  -->
<svg version="1.1" id="图层_1" xmlns="http://www.w3.org/2000/svg" xmlns:xlink="http://www.w3.org/1999/xlink" x="0px" y="0px"
	 viewBox="0 0 16 16" style="enable-background:new 0 0 16 16;" xml:space="preserve">
<path d="M10.1,4.8H9.5v2H10c0.8,0,1.1-0.3,1.1-1C11.2,5.1,10.8,4.8,10.1,4.8z M8,0C4.4,0,1.5,2.9,1.5,6.5S8,16,8,16s6.5-5.9,6.5-9.5
	S11.6,0,8,0z M7,4.8H6.5v4H7v1H4.7v-1h0.5v-4H4.7v-1H7V4.8z M11.9,7.2c-0.5,0.4-1,0.6-1.7,0.5H9.5v2.1H8.2v-6h2.1
	c1.5,0,2.3,0.6,2.3,1.9C12.5,6.4,12.3,6.9,11.9,7.2z"/>
</svg>
