<?xml version="1.0" encoding="utf-8"?>
<!-- Generator: Adobe Illustrator 19.0.0, SVG Export Plug-In . SVG Version: 6.00 Build 0)  -->
<svg version="1.1" id="图层_1" xmlns="http://www.w3.org/2000/svg" xmlns:xlink="http://www.w3.org/1999/xlink" x="0px" y="0px"
	 viewBox="0 0 218.4 67" style="enable-background:new 0 0 218.4 67;" xml:space="preserve">
<style type="text/css">
	.st0{fill-rule:evenodd;clip-rule:evenodd;fill:#14ABA4;}
	.st1{fill-rule:evenodd;clip-rule:evenodd;fill:#15928E;}
	.st2{fill:#231815;}
</style>
<g>
	<path class="st0" d="M60.4,21.6c0.1-1.5-0.3-4.5-3.1-6L33.4,1.8c-2-1.4-4.1-1.3-6.1,0L3.1,15.9C1,17.3,0.2,19.1,0.2,21
		c0,1.2,0,3.1,0,4.2c0,3,0.4,3.9,1.8,4.3l46,14.7c1.1,0.5,0.7,1.3,0,1.6l-15.1,7.4c-1.7,1.1-3,0.9-4.2,0.1L1.5,37.9
		c-0.2-0.1-1.1-0.6-1.1,0.3l0,7.8c0.3,3.6,2.7,4.8,4.9,6l20.3,11.4c3.8,2.6,6.9,2.6,10.4,0l19.8-11.9c2.7-1.8,4.4-2.9,4.7-5.9l0-6.1
		c0.1-1.9-0.4-2-4.1-3.5L12.3,22c-0.4-0.1-0.7-0.7,0-1l16.7-9.6c1.2-0.6,2-0.5,3,0l26.5,15.5c1.7,1,1.8,0.6,1.8-0.1L60.4,21.6z"/>
	<path class="st1" d="M30.4,11c5.8-2.5,18.8,0.6,27.9,5.4c2.4,1.7,2.1,5.5,2,10.2c0,0.9-0.3,1.1-1.1,0.7c-4.6-2.3-9-5-13.4-7.8
		c-3.2-2.1-6.4-4-9.9-5.9c-1-0.5-2.3-1.4-3.3-1.9c-0.5-0.3-1-0.5-1.4-0.6C31,11,30.7,11,30.4,11z"/>
	<path class="st1" d="M31.8,53.8c-14.7,7.4-20.2,1.3-29.3-3.5c-3.2-2.4-2-6.6-2.2-11.8c0-0.8,0.3-1.1,1.1-0.7
		c4.6,2.7,15.7,9.2,23.4,13.4c0.9,0.5,2.5,1.4,3.5,2C29.9,54,30.1,54,31.8,53.8z"/>
</g>
<g>
	<path class="st2" d="M135.4,18.8h21.4c3.7,0,6.1,3,6,5.6v6.7c0,2.3-2.7,5.4-5.7,5.4h-13.9l-0.1-4.3h13.7c0.6,0,1.4-0.9,1.4-1.6
		v-4.4c0-0.7,0.1-2.6-1.9-2.6h-19.9c-1.6,0-2.7,0.9-2.7,2.8v13.8c0,1.8,1,2.8,3.1,2.8c14.8,0,29.5,0,44.3,0c0,0,0.1,0,0.1,0
		c0.1,3.6-2.4,4.6-3.8,4.6l-43.1,0c-4.1,0-5.6-3.5-5.6-7.1V25.7C128.7,21.8,131.6,18.8,135.4,18.8z"/>
	<g>
		<path class="st2" d="M94.3,25.8h24.6v-5.3H94.3V15h18.8V9.8H94.3V5.7h-5.5v14.8H75l0,5.2h10.3c3.9,0,3.5,4.4,3.5,5.9V49h5.5V25.8
			L94.3,25.8z M96.9,29.3h4.3c1.8,0,3,0.6,3.6,1.8l8.4,16.2h-6.6L96.9,29.3z"/>
		<path class="st2" d="M139.8,5.7h12.1c9.4,0,15.3,14.7,23.2,18.3c-1,2.3-5.6,2.3-7.4,0.3c-4.9-4.8-9.4-13.6-15.8-13.5l-11.8,0
			c-0.2,0-0.4,0.1-0.6,0.1c-5.3,0.3-13.5,13.2-18.2,14.6c-0.7,0.2-1.7,0.4-2.2,0.3c-3-0.6-3.2-4.3-0.3-5.2
			C126.7,17.9,132,5.7,139.8,5.7z"/>
		<path class="st2" d="M210.5,5.7c5.2,0,7.9,3.4,7.9,8.3v28.2c0,1.4-0.1,5.3-4.8,5.7l-7.3,0.1l0-4.7l4.2-0.1c1.6,0,2.5-1.3,2.5-3.1
			V14c0-1.8-0.7-3.3-2.5-3.3h-26.8c-1.7,0-2.5,1.2-2.5,2.9l0,29.2l-0.3,1.5l-4.9,0l0-31.1c0-2.8,1.7-7.5,6.9-7.5H210.5L210.5,5.7z
			 M200.8,14.5l-3.6,1.5l5,11.5c-1,2.8-2.3,6.1-5.7,10.9c0.3,0.3,2.8,2,3,1.8c2.6-2.8,3.7-5.8,5.3-8.5l0.1,0.2
			c2.1,4.5,3.2,6.6,4,8.1l3.2-1.5l-5.4-11.1c2.5-6.3,4.3-10.2,4.3-12.1l-4.2-0.5c-0.4,3.2-1.1,5.7-2.1,8.6h0
			C202,17.1,201.2,15.1,200.8,14.5L200.8,14.5z M192.5,14.7c-0.2,1.3-0.9,8.5-2.1,8.9c-1.9-4-3.3-7.9-3.6-8.5l-3.7,1.5l5.2,10.9
			c-1.1,3.2-2.4,6.3-5.7,10.9c0.2,0.4,1.7,1,3.2,2c2.5-3.5,3.3-5.6,4.9-9c0.1,0,1,1.7,3.1,5.7c0.4,0,1.7-0.5,3.2-1.5
			c-0.1-0.5-1.1-3.2-3.9-8.1c2.5-7,3.3-10.5,3.3-12.2C196.4,15.3,194.5,15,192.5,14.7z"/>
		<path class="st2" d="M99.2,61.4c0,1.9-1.2,2.9-3.5,2.9H91v-1.9h4.6c0.7,0,1.1-0.1,1.4-0.2c0.3-0.2,0.4-0.4,0.4-0.8
			c0-0.7-0.5-1-1.4-1h-1.9c-2.3,0-3.4-0.9-3.4-2.7c0-1,0.4-1.7,1.1-2.2c0.6-0.3,1.2-0.5,2.1-0.5h4.7v1.8h-4.7c-1,0-1.4,0.3-1.4,0.8
			c0,0.4,0.2,0.7,0.6,0.8c0.2,0,0.5,0.1,1.1,0.1H96c1,0,1.7,0.3,2.4,0.8C98.9,59.7,99.2,60.4,99.2,61.4L99.2,61.4z M110.9,64.2h-4
			c-3,0-4.5-1.5-4.5-4.5V55h1.7v4.7c0,1.1,0.3,1.8,0.8,2.2c0.4,0.3,1,0.4,1.9,0.4h2.2V55h1.7V64.2L110.9,64.2z M123.6,59.6
			c0,1.3-0.4,2.4-1.2,3.3c-0.8,0.9-1.9,1.3-3.1,1.3h-2.6v3.2h-1.7V55h4.3c1.3,0,2.3,0.4,3.1,1.3C123.2,57.2,123.6,58.2,123.6,59.6
			L123.6,59.6z M121.7,59.6c0-0.8-0.2-1.5-0.7-2c-0.5-0.5-1.1-0.8-1.8-0.8h-2.6v5.6h2.6c0.7,0,1.3-0.3,1.8-0.8
			C121.5,61.2,121.7,60.5,121.7,59.6L121.7,59.6z M128.9,64.6h-2.3v-2.3h2.3V64.6L128.9,64.6z M138.8,53.1H137
			c-1.1,0-1.7,0.5-1.7,1.5V55h3.5v1.9h-3.5v7.4h-1.7v-7.4h-2.1V55h2.1v-0.3c0-1,0.3-1.8,0.8-2.4c0.6-0.7,1.5-1,2.6-1h1.8V53.1
			L138.8,53.1z M150,64.2h-4c-3,0-4.5-1.5-4.5-4.5V55h1.7v4.7c0,1.1,0.3,1.8,0.8,2.2c0.4,0.3,1,0.4,1.9,0.4h2.2V55h1.7V64.2
			L150,64.2z M155.9,64.2h-1.8v-13h1.8V64.2L155.9,64.2z M168.4,64.2h-4c-3,0-4.5-1.5-4.5-4.5V55h1.7v4.7c0,1.1,0.3,1.8,0.8,2.2
			c0.4,0.3,1,0.4,1.9,0.4h2.2V55h1.7V64.2L168.4,64.2z M174.3,64.6H172v-2.3h2.3V64.6L174.3,64.6z M185.8,64.2h-4.3
			c-1.1,0-2-0.4-2.9-1.2c-0.9-0.8-1.3-2-1.3-3.4c0-1.5,0.4-2.7,1.3-3.6c0.8-0.7,1.8-1.1,2.9-1.1h4.3v1.8h-4.2
			c-0.7,0-1.2,0.2-1.7,0.7c-0.6,0.5-0.8,1.2-0.8,2.2c0,0.9,0.3,1.6,0.8,2.1c0.5,0.4,1,0.6,1.7,0.6h4.2V64.2L185.8,64.2z M198.4,59.6
			c0,1.4-0.5,2.6-1.4,3.5c-1,1-2.1,1.5-3.5,1.5c-1.4,0-2.5-0.5-3.5-1.5c-0.9-1-1.4-2.2-1.4-3.5c0-1.4,0.5-2.6,1.4-3.5
			c1-1,2.1-1.5,3.5-1.5c1.4,0,2.5,0.5,3.5,1.5C197.9,57,198.4,58.2,198.4,59.6L198.4,59.6z M196.6,59.6c0-0.9-0.3-1.6-1-2.2
			c-0.6-0.6-1.3-0.9-2.2-0.9c-0.9,0-1.6,0.3-2.2,0.9c-0.6,0.6-0.9,1.4-0.9,2.2c0,0.9,0.3,1.6,0.9,2.2c0.6,0.6,1.3,0.9,2.2,0.9
			c0.9,0,1.6-0.3,2.2-0.9C196.3,61.2,196.6,60.5,196.6,59.6L196.6,59.6z M214.5,64.2h-1.8v-4.9c0-1-0.2-1.6-0.7-2
			c-0.4-0.4-1.1-0.5-2-0.5h-1v7.4h-1.8v-7.4h-3.7v7.4h-1.7V55h8.2c3,0,4.5,1.4,4.5,4.3V64.2z"/>
	</g>
</g>
</svg>
