<?xml version="1.0" encoding="utf-8"?>
<!-- Generator: Adobe Illustrator 19.0.0, SVG Export Plug-In . SVG Version: 6.00 Build 0)  -->
<svg version="1.1" id="图层_1" xmlns="http://www.w3.org/2000/svg" xmlns:xlink="http://www.w3.org/1999/xlink" x="0px" y="0px"
	 viewBox="0 0 45.3 45.3" style="enable-background:new 0 0 45.3 45.3;" xml:space="preserve">
<style type="text/css">
	.st0{fill:#030000;}
	.st1{fill:#040000;}
</style>
<g>
	<path id="XMLID_5_" class="st0" d="M24.5,15.4l-9.9,7.2c-0.7,0.6-0.9,1.5,0,2.2l9.9,7.2c0.7,0.6,1.5,0.2,1.5-0.7V16.3
		C26,15.2,25.5,14.8,24.5,15.4z"/>
	<path class="st1" d="M42.3,11.4L42.3,11.4C42.3,11.4,42.3,11.4,42.3,11.4c0-0.1-0.1-0.1-0.1-0.1C38.3,4.6,31,0,22.7,0
		C10.1,0,0,10.2,0,22.7c0,1,0.1,2,0.2,2.9h3.7c-0.1-1-0.2-1.9-0.2-2.9c0-10.5,8.5-19,19-19c5.8,0,11,2.6,14.5,6.8h-5.8
		c-1.1,0-1.9,0.9-1.9,1.9s0.9,1.9,1.9,1.9h9.3c1.1,0,1.9-0.9,1.9-1.9C42.6,12,42.5,11.7,42.3,11.4z"/>
	<path class="st1" d="M41.6,22.7c0,10.5-8.5,19-19,19c-4.4,0-8.4-1.5-11.6-4h5.8c1.1,0,1.9-0.9,1.9-1.9s-0.9-1.9-1.9-1.9H6.6
		c-1.1,0-1.9,0.9-1.9,1.9c0,0.4,0.1,0.8,0.4,1.2h0c4.2,5.1,10.5,8.4,17.6,8.4c12.5,0,22.6-10.1,22.6-22.6H41.6z"/>
</g>
</svg>
