<?xml version="1.0" encoding="utf-8"?>
<!-- Generator: Adobe Illustrator 19.0.0, SVG Export Plug-In . SVG Version: 6.00 Build 0)  -->
<svg version="1.1" id="图层_1" xmlns="http://www.w3.org/2000/svg" xmlns:xlink="http://www.w3.org/1999/xlink" x="0px" y="0px"
	 viewBox="0 0 16 16" style="enable-background:new 0 0 16 16;" xml:space="preserve">
<g id="XMLID_147_">
	<path id="XMLID_362_" d="M12.7,5.8H0.6c-0.3,0-0.5-0.2-0.5-0.5v0c0-0.3,0.2-0.5,0.5-0.5h12.1c0.3,0,0.5,0.2,0.5,0.5v0
		C13.2,5.5,13,5.8,12.7,5.8z"/>
	<path id="XMLID_363_" d="M7.9,8.3H1.8C1.5,8.3,1.3,8,1.3,7.8v0c0-0.3,0.2-0.5,0.5-0.5h6.1c0.3,0,0.5,0.2,0.5,0.5v0
		C8.4,8,8.2,8.3,7.9,8.3z"/>
	<path id="XMLID_366_" d="M12.6,9.9c-0.2,0-0.3,0-0.4,0.1c-0.3,0.2-0.4,0.7-0.1,0.9c0.3,0.2,0.6,0.3,0.9,0.1
		c0.3-0.2,0.3-0.6,0.1-0.8C12.9,10,12.7,9.9,12.6,9.9z"/>
	<path id="XMLID_308_" d="M12.7,11.4c-0.1-0.1-0.3-0.1-0.4,0c-0.1,0.1-0.1,0.2-0.1,0.3c0,0.1,0.2,0.2,0.3,0.2c0.1,0,0.1,0,0.2-0.1
		C12.9,11.8,12.9,11.6,12.7,11.4z"/>
	<path id="XMLID_387_" d="M15.9,9.2c0-0.2-0.1-0.3-0.2-0.4c-0.2-0.1-0.4-0.2-0.6-0.2c-0.2,0-0.4,0-0.6,0c-0.1,0-0.1,0-0.1-0.1
		c0-0.2,0-0.5,0-0.8c0-0.3-0.1-0.5-0.2-0.8c-0.1-0.2-0.3-0.5-0.5-0.6c0,0-0.1-0.1-0.1-0.1h0c0,0-0.2-0.2-0.5-0.3V3.6
		c0-0.6-0.5-1.1-1-1.1h-11c-0.6,0-1,0.5-1,1.1v8.8c0,0.6,0.5,1.1,1,1.1h8.4h2.6h3.1c0,0,0,0,0,0c0.2,0,0.3-0.1,0.4-0.2
		c0.1-0.1,0.2-0.2,0.2-0.4L15.9,9.2C15.9,9.3,15.9,9.2,15.9,9.2z M13,6.7c0.4,0.2,0.6,0.5,0.7,0.9c0,0.1,0,0.2,0,0.3
		c0,0.2,0,0.5,0,0.7c0,0.1,0,0.1-0.1,0.1c-0.4,0-0.8,0-1.2,0c-0.4,0-0.8,0-1.2,0c-0.1,0-0.1,0-0.1-0.1c0-0.2,0-0.5,0-0.7
		c0-0.4,0.1-0.7,0.4-0.9c0.2-0.2,0.4-0.3,0.6-0.3C12.5,6.6,12.7,6.6,13,6.7z M9.1,9C9,9.1,9,9.2,9,9.3v3.3H1.4
		c-0.3,0-0.5-0.2-0.5-0.5V4c0-0.3,0.2-0.5,0.5-0.5h10.5c0.3,0,0.5,0.2,0.5,0.5v1.9c-0.8,0-1.3,0.4-1.3,0.4h0c0,0,0,0,0,0
		c-0.1,0.1-0.2,0.2-0.3,0.3c-0.1,0.2-0.3,0.4-0.3,0.6c-0.1,0.3-0.1,0.5-0.1,0.8c0,0.2,0,0.4,0,0.6c0,0.1,0,0.1-0.1,0.1
		c0,0,0,0-0.1,0c-0.2,0-0.5,0-0.7,0C9.4,8.7,9.2,8.8,9.1,9z M15.1,12.5C15.1,12.6,15.1,12.6,15.1,12.5c-1.8,0.1-3.6,0.1-5.4,0.1
		c-0.1,0-0.1,0-0.1-0.1c0-1,0-2,0-3.1c0-0.1,0-0.1,0.1-0.1c0.9,0,1.8,0,2.7,0c0.9,0,1.8,0,2.6,0c0.1,0,0.1,0,0.1,0.1
		C15.1,10.5,15.1,11.5,15.1,12.5z"/>
	<path id="XMLID_368_" d="M6.2,10.2H2c-0.3,0-0.5-0.2-0.5-0.5v0c0-0.3,0.2-0.5,0.5-0.5h4.2c0.3,0,0.5,0.2,0.5,0.5v0
		C6.7,9.9,6.5,10.2,6.2,10.2z"/>
</g>
</svg>
