<?xml version="1.0" encoding="utf-8"?>
<!-- Generator: Adobe Illustrator 19.0.0, SVG Export Plug-In . SVG Version: 6.00 Build 0)  -->
<svg version="1.1" id="图层_1" xmlns="http://www.w3.org/2000/svg" xmlns:xlink="http://www.w3.org/1999/xlink" x="0px" y="0px"
	 viewBox="0 0 16 16" style="enable-background:new 0 0 16 16;" xml:space="preserve">
<style type="text/css">
	.st0{fill:#040000;}
</style>
<g id="XMLID_218_">
	<path id="XMLID_223_" class="st0" d="M13,13.5c-0.6,0-1.1,0.5-1.1,1.1c0,0.6,0.5,1.1,1.1,1.1c0.6,0,1.1-0.5,1.1-1.1
		C14.1,14.1,13.6,13.5,13,13.5z"/>
	<path id="XMLID_222_" class="st0" d="M5.2,13.5c-0.6,0-1.1,0.5-1.1,1.1c0,0.6,0.5,1.1,1.1,1.1c0.6,0,1.1-0.5,1.1-1.1
		C6.3,14.1,5.8,13.5,5.2,13.5z"/>
	<path id="XMLID_221_" class="st0" d="M15.3,2.4c-0.3-0.3-0.7-0.5-1.1-0.5H4.7c-0.3,0-0.5,0.2-0.5,0.5C4.1,2.8,4.4,3,4.7,3h9.6
		c0.1,0,0.2,0,0.3,0.1c0.1,0.1,0.2,0.3,0.2,0.5l-0.9,5c0,0.2-0.3,0.5-0.5,0.5L5.8,9.7c-0.3,0-0.5,0.3-0.5,0.6c0,0.3,0.3,0.5,0.5,0.5
		c0,0,0,0,0,0l7.5-0.5c0.8,0,1.5-0.6,1.6-1.4l0.9-5C15.8,3.3,15.6,2.8,15.3,2.4z"/>
	<path id="XMLID_220_" class="st0" d="M14.1,11.8h-9c-0.2,0-0.5-0.2-0.5-0.5L3.7,4.7L3.1,1.6C3,0.8,2.3,0.2,1.5,0.2H0.8
		c-0.3,0-0.5,0.2-0.5,0.6c0,0.3,0.2,0.5,0.5,0.5h0.7C1.7,1.3,2,1.5,2,1.8l0.5,3.1l0.9,6.7C3.6,12.4,4.3,13,5.1,13h9
		c0.3,0,0.5-0.3,0.5-0.6C14.6,12.1,14.4,11.8,14.1,11.8z"/>
	<path id="XMLID_219_" class="st0" d="M9.4,4C9.3,4,9.1,4.2,9.1,4.3v3.2L8,6.4C7.9,6.4,7.9,6.3,7.8,6.3s-0.2,0-0.2,0.1
		c-0.1,0.1-0.1,0.3,0,0.5l1.7,1.7c0.1,0.1,0.3,0.1,0.5,0l1.7-1.7c0.1-0.1,0.1-0.3,0-0.5c-0.1-0.1-0.3-0.1-0.5,0L9.8,7.5V4.3
		C9.8,4.2,9.6,4,9.4,4z"/>
</g>
</svg>
