<?xml version="1.0" encoding="utf-8"?>
<!-- Generator: Adobe Illustrator 19.0.0, SVG Export Plug-In . SVG Version: 6.00 Build 0)  -->
<svg version="1.1" id="图层_1" xmlns="http://www.w3.org/2000/svg" xmlns:xlink="http://www.w3.org/1999/xlink" x="0px" y="0px"
	 viewBox="0 0 218.4 63.5" style="enable-background:new 0 0 218.4 63.5;" xml:space="preserve">
<style type="text/css">
	.st0{fill:#231815;}
	.st1{fill-rule:evenodd;clip-rule:evenodd;fill:#231815;stroke:#231815;stroke-width:0.5669;stroke-miterlimit:22.9256;}
	.st2{fill-rule:evenodd;clip-rule:evenodd;fill:#1578B3;}
	.st3{fill-rule:evenodd;clip-rule:evenodd;fill:#185982;}
</style>
<g>
	<path class="st0" d="M125.2,14.4v32.9h5.7V14.4L125.2,14.4L125.2,14.4z M166.3,40.3L166.3,40.3V11.9c0-5.3-2.8-7.6-8.1-7.6h-20
		l0,5.4h18.2c3.4,0,4,1.4,4,4.2V37c0,2.7,0,5-2.7,5.1l-6.2,0l0,5.1l8.2,0C164.1,47.1,166.2,44.4,166.3,40.3L166.3,40.3z M210,4
		c5.4,0,8.3,3.5,8.3,8.4v28.8c0,1.4-0.1,5.4-5.1,5.8l-7.7,0.1l0-4.8l4.4-0.1c1.7,0,2.7-1.3,2.7-3.1V12.4c0-1.8-0.8-3.4-2.7-3.4H182
		c-1.8,0-2.7,1.3-2.7,3l0,35c0,0.1-0.1,0.2-0.2,0.2H174c-0.1,0-0.2-0.1-0.2-0.2l0-35.4c0-2.9,1.8-7.7,7.2-7.7H210L210,4z
		 M199.9,12.9L199.9,12.9l-3.7,1.5l5.2,11.8c-1,2.9-2.4,6.3-6,11.1c0.3,0.3,2.9,2.1,3.1,1.8c2.7-2.9,3.9-6,5.5-8.7l0.1,0.2
		c2.1,4.6,3.3,6.7,4.2,8.2l3.4-1.5L206.1,26c2.6-6.4,4.5-10.4,4.5-12.4l-4.4-0.6c-0.4,3.2-1.1,5.8-2.2,8.8h0
		C201.2,15.6,200.3,13.5,199.9,12.9L199.9,12.9z M191.2,13.1L191.2,13.1c-0.2,1.3-1,8.7-2.2,9.1c-2-4.1-3.4-8.1-3.8-8.7l-3.9,1.5
		l5.4,11.2c-1.1,3.3-2.5,6.4-6,11.2c0.3,0.4,1.8,1.1,3.3,2.1c2.6-3.5,3.4-5.8,5.1-9.1c0.1,0,1.1,1.7,3.2,5.9c0.4,0,1.7-0.5,3.4-1.5
		c-0.1-0.5-1.1-3.3-4-8.3c2.7-7.1,3.5-10.7,3.5-12.5C195.3,13.7,193.3,13.4,191.2,13.1L191.2,13.1z M95.2,23.4h25.7V18H95.2v-5.5
		h19.7V7.1H95.2V2.9h-5.7V18H75l0,5.3h10.8c4.1,0,3.6,4.4,3.6,6.1v17.8h5.7V23.4L95.2,23.4z M97.9,27.1L97.9,27.1h4.5
		c1.9,0,3.1,0.6,3.8,1.8l8.8,16.6h-6.9L97.9,27.1L97.9,27.1z M98.5,60c0,1.8-1.2,2.8-3.5,2.8h-4.6v-1.8H95c0.7,0,1.1-0.1,1.4-0.2
		c0.3-0.1,0.4-0.4,0.4-0.7c0-0.6-0.5-1-1.4-1h-1.9c-2.3,0-3.4-0.9-3.4-2.6c0-0.9,0.4-1.6,1.1-2.1c0.6-0.3,1.2-0.4,2-0.4h4.7v1.7
		h-4.7c-1,0-1.4,0.3-1.4,0.8c0,0.4,0.2,0.6,0.6,0.7c0.2,0,0.5,0.1,1.1,0.1h1.9c1,0,1.7,0.2,2.3,0.7C98.2,58.4,98.5,59.1,98.5,60
		L98.5,60z M110,62.7h-5.6c-0.7,0-1.3-0.2-1.8-0.5c-0.8-0.5-1.2-1.3-1.2-2.3c0-1,0.4-1.8,1.2-2.3c0.6-0.3,1.2-0.5,1.8-0.5h3.8
		c-0.2-1-0.9-1.5-2.3-1.5h-4.4v-1.8h4.4c1.4,0,2.4,0.3,3.1,1c0.7,0.7,1.1,1.6,1.1,2.8V62.7L110,62.7z M108.3,61v-2.2h-3.9
		c-0.4,0-0.7,0.1-0.9,0.2c-0.3,0.2-0.4,0.5-0.4,0.8c0,0.3,0.1,0.6,0.4,0.8c0.3,0.2,0.6,0.3,0.9,0.3H108.3L108.3,61z M115.8,62.7H114
		V50.2h1.7V62.7L115.8,62.7z M128,59.1h-6.8c0.1,0.7,0.4,1.2,0.8,1.5c0.4,0.2,1.2,0.4,2.1,0.4h3.6v1.8h-3.6c-3.2,0-4.7-1.5-4.7-4.5
		c0-1.2,0.3-2.3,1-3.1c0.8-1.1,2-1.6,3.5-1.6c1.5,0,2.6,0.6,3.3,1.9c0.6,0.8,0.8,1.8,0.8,2.9V59.1L128,59.1z M126.2,57.3
		c-0.3-1.4-1.1-2.1-2.3-2.1c-1.5,0-2.3,0.7-2.6,2.1H126.2L126.2,57.3z M133.6,63.1h-2.3v-2.2h2.3V63.1L133.6,63.1z M143.4,52h-1.8
		c-1.1,0-1.7,0.5-1.7,1.5v0.3h3.5v1.8H140v7.1h-1.7v-7.1h-2.1v-1.8h2.1v-0.3c0-0.9,0.3-1.7,0.8-2.3c0.6-0.6,1.5-1,2.6-1h1.8V52
		L143.4,52z M154.5,62.7h-3.9c-3,0-4.4-1.4-4.4-4.3v-4.5h1.7v4.5c0,1,0.3,1.8,0.8,2.2c0.4,0.2,1,0.4,1.9,0.4h2.2v-7.1h1.7V62.7
		L154.5,62.7z M160.3,62.7h-1.7V50.2h1.7V62.7L160.3,62.7z M172.8,62.7h-3.9c-3,0-4.4-1.4-4.4-4.3v-4.5h1.7v4.5c0,1,0.3,1.8,0.8,2.2
		c0.4,0.2,1,0.4,1.9,0.4h2.2v-7.1h1.7V62.7L172.8,62.7z M178.6,63.1h-2.3v-2.2h2.3V63.1L178.6,63.1z M189.9,62.7h-4.2
		c-1.1,0-2-0.4-2.9-1.1c-0.9-0.8-1.3-1.9-1.3-3.3c0-1.4,0.4-2.6,1.3-3.4c0.8-0.7,1.8-1,2.9-1h4.2v1.7h-4.1c-0.7,0-1.2,0.2-1.7,0.7
		c-0.6,0.5-0.8,1.2-0.8,2.1c0,0.8,0.3,1.5,0.8,2c0.5,0.4,1,0.6,1.7,0.6h4.1V62.7L189.9,62.7z M202.4,58.3c0,1.3-0.5,2.5-1.4,3.4
		c-1,0.9-2.1,1.4-3.5,1.4c-1.4,0-2.5-0.5-3.5-1.4c-0.9-0.9-1.4-2.1-1.4-3.4c0-1.3,0.5-2.5,1.4-3.4c1-0.9,2.1-1.4,3.5-1.4
		c1.4,0,2.5,0.5,3.5,1.4C202,55.8,202.4,56.9,202.4,58.3L202.4,58.3z M200.7,58.3c0-0.8-0.3-1.6-1-2.2c-0.6-0.6-1.3-0.9-2.2-0.9
		c-0.9,0-1.6,0.3-2.2,0.9c-0.6,0.6-0.9,1.3-0.9,2.2c0,0.8,0.3,1.6,0.9,2.2c0.6,0.6,1.3,0.9,2.2,0.9c0.9,0,1.6-0.3,2.2-0.9
		C200.4,59.8,200.7,59.1,200.7,58.3L200.7,58.3z M218.4,62.7h-1.8V58c0-0.9-0.2-1.6-0.7-1.9c-0.4-0.3-1.1-0.5-2-0.5h-1v7.1h-1.8
		v-7.1h-3.6v7.1h-1.7v-8.9h8.1c3,0,4.4,1.4,4.4,4.2V62.7z"/>
	<path class="st1" d="M131.4,11.9c2.1,0,3.9-1.7,3.9-3.9s-1.7-3.9-3.9-3.9c-2.1,0-3.9,1.7-3.9,3.9S129.2,11.9,131.4,11.9z"/>
</g>
<g>
	<g>
		<path class="st2" d="M2.2,38.9l26.3,22.4c3.2,2.9,7.6,3.1,10.4-0.2l22.9-27c3.8-4.5-2.3-9.4-5.8-6.3c-5.3,5.7-14.4,15.8-19.6,21.5
			c-2,3.2-5.1,2.6-7.2,0.4l-17-14.3c-1.4-1-2.5-3.1-1-4.6C17,24,22.3,17.5,28,10.8c1.7-1.7,2.9-1,4.1,0l5.4,3.9
			c5.3,3.8,8.9-2.4,5.6-5.2l-9.7-8.2c-2.2-1.9-6.1-1.9-8.4,0.5L13.4,15.7L2,29.6C0.8,31.1-1.9,35.1,2.2,38.9z"/>
		<path class="st2" d="M13.9,46.8l6.4,5.5L38.8,30c2.4-4.6-2.5-8-6.2-4.7L13.9,46.8z"/>
	</g>
	<path class="st3" d="M41.9,8.5c2.4,1.5,3.6,4.1,1.2,6.6c-1.4,1.5-3.7,1.1-5.6-0.4c-2.2-1.7-5.4-3.9-6.5-4.7
		c-0.7-0.4-1.4-0.4-2.2,0.1C28,10.7,32.8,2.2,41.9,8.5z"/>
	<path class="st3" d="M62.1,33.7c-3.7,4.7-10.9,12.8-14,16.5c-3.9,4.6-9.2,7.3-17,0.7c3,0.6,5.4-1.6,8.3-5
		c4.7-4.8,11.6-13.4,16-17.8c1.2-1.2,2.7-1.7,4.3-1.2C61.6,27.5,64.7,30.4,62.1,33.7z"/>
</g>
</svg>
