<?xml version="1.0" encoding="utf-8"?>
<!-- Generator: Adobe Illustrator 19.0.0, SVG Export Plug-In . SVG Version: 6.00 Build 0)  -->
<svg version="1.1" id="图层_1" xmlns="http://www.w3.org/2000/svg" xmlns:xlink="http://www.w3.org/1999/xlink" x="0px" y="0px"
	 viewBox="0 0 45.3 45.3" style="enable-background:new 0 0 45.3 45.3;" xml:space="preserve">
<style type="text/css">
	.st0{fill:#272635;}
</style>
<g id="XMLID_2_">
	<g id="XMLID_3_" transform="scale(0.1953125, 0.1953125)">
		<path id="XMLID_4_" class="st0" d="M149.1,116.2l82.2-80.8c-1.9-3.9-5.9-6.6-10.5-6.6H11.3c-4.6,0-8.6,2.7-10.5,6.6l82.2,80.8
			C101.3,127.7,130.9,127.7,149.1,116.2z M-0.3,51.5v129.7l68.4-65L-0.3,51.5z M164.2,116.2l68.4,65V51.5L164.2,116.2z M153.4,126.3
			c-20.6,13.1-54.1,13.1-74.7,0l-3.1-2.9L1,197.1c1.9,3.7,5.8,6.3,10.3,6.3h209.6c4.5,0,8.4-2.5,10.3-6.3l-74.7-73.8L153.4,126.3z"
			/>
	</g>
</g>
</svg>
