<?xml version="1.0" encoding="utf-8"?>
<!-- Generator: Adobe Illustrator 19.0.0, SVG Export Plug-In . SVG Version: 6.00 Build 0)  -->
<svg version="1.1" id="图层_1" xmlns="http://www.w3.org/2000/svg" xmlns:xlink="http://www.w3.org/1999/xlink" x="0px" y="0px"
	 viewBox="0 0 16 16" style="enable-background:new 0 0 16 16;" xml:space="preserve">
<style type="text/css">
	.st0{fill:#272635;}
</style>
<g id="XMLID_4_">
	<g id="XMLID_5_" transform="scale(0.1953125, 0.1953125)">
		<path id="XMLID_6_" class="st0" d="M76,66.4c-0.3-6.7-3.7-12.7-8.7-16.6V31.5c0-10.6-7.6-19.5-17.6-21.6V9.5c0-4.8-4-8.8-8.8-8.8
			l0,0c-4.8,0-8.8,3.9-8.8,8.8v0.4c-10,2.1-17.6,11-17.6,21.6v18.3c-5.1,3.9-8.4,9.8-8.7,16.6h8.7v0.1h52.7v-0.1H76L76,66.4z
			 M39.1,81.2h2.2c5.7,0,10.5-4.3,11.2-9.8h-23c0.7,5.5,5.4,9.8,11.2,9.8H39.1z"/>
	</g>
</g>
</svg>
