<?xml version="1.0" encoding="utf-8"?>
<!-- Generator: Adobe Illustrator 19.0.0, SVG Export Plug-In . SVG Version: 6.00 Build 0)  -->
<svg version="1.1" id="图层_1" xmlns="http://www.w3.org/2000/svg" xmlns:xlink="http://www.w3.org/1999/xlink" x="0px" y="0px"
	 viewBox="0 0 16 16" style="enable-background:new 0 0 16 16;" xml:space="preserve">
<path d="M7.5,4.3l0.3-0.5c0.4-0.8,1.3-1,2.1-0.6c0.4,0.2,0.7,0.5,0.8,0.9c0.1,0.4,0.1,0.8-0.1,1.2L9.7,7c-0.3,0.5-0.6,0.9-1,1
	C8.4,8.1,8,8.1,7.7,7.9C7.4,7.8,7.4,7.5,7.5,7.3C7.6,7.1,7.8,7,8,7.1C8.2,7.2,8.6,7.4,9,6.6l0.9-1.7C10,4.8,10,4.6,9.9,4.4
	C9.9,4.2,9.7,4,9.6,3.9c-0.3-0.2-0.8-0.2-1,0.2L8.3,4.7C8.2,4.9,7.9,5,7.7,4.9C7.5,4.8,7.4,4.5,7.5,4.3L7.5,4.3z M6.1,10.5
	c0.4,0.2,0.8,0.2,1.2,0.1c0.4-0.1,0.7-0.4,1-0.8l0.2-0.4c0.1-0.2,0-0.5-0.2-0.6C8.1,8.7,7.8,8.8,7.7,9L7.5,9.4
	c-0.2,0.4-0.7,0.5-1,0.3C6.3,9.7,6.1,9.5,6.1,9.3C6,9.1,6,8.9,6.1,8.8L7,7.2c0.2-0.3,0.5-0.8,1-0.6c0.2,0.1,0.5,0,0.6-0.2
	c0.1-0.2,0-0.5-0.2-0.6c-0.8-0.4-1.6,0-2.1,1L5.4,8.4C5.2,8.8,5.1,9.2,5.3,9.6C5.4,10,5.7,10.3,6.1,10.5L6.1,10.5z M13.3,1.3v13.3
	c0,0.7-0.6,1.3-1.3,1.3H4c-0.7,0-1.3-0.6-1.3-1.3V1.3C2.7,0.6,3.2,0,4,0H12C12.8,0,13.3,0.6,13.3,1.3L13.3,1.3z M9,14.1
	c0-0.5-0.4-1-1-1c-0.5,0-1,0.4-1,1c0,0.5,0.4,1,1,1C8.5,15.1,9,14.7,9,14.1L9,14.1z M12,1.4H4v10.9h8L12,1.4L12,1.4z"/>
</svg>
