<?xml version="1.0" encoding="utf-8"?>
<!-- Generator: Adobe Illustrator 19.0.0, SVG Export Plug-In . SVG Version: 6.00 Build 0)  -->
<svg version="1.1" id="图层_1" xmlns="http://www.w3.org/2000/svg" xmlns:xlink="http://www.w3.org/1999/xlink" x="0px" y="0px"
	 viewBox="0 0 16 16" style="enable-background:new 0 0 16 16;" xml:space="preserve">
<g id="XMLID_5_">
	<g id="XMLID_6_" transform="scale(0.1953125, 0.1953125)">
		<path id="XMLID_7_" class="st0" d="M5.9,42.4c0-9.7,4.1-18.4,10.6-24.5c2.1,3.3,5.7,5.5,9.9,5.5c6.5,0,11.7-5.2,11.7-11.7
			S32.8,0,26.3,0S14.6,5.2,14.6,11.7c0,0,0,0,0,0C5.7,19,0,30,0,42.4c0,1.7,0.1,3.3,0.3,5c0,0,0,0,0,0c0.1,1.5,1.4,2.8,2.9,2.8
			c1.6,0,2.9-1.3,2.9-2.9c0-0.2,0-0.4-0.1-0.6C5.9,45.3,5.9,43.9,5.9,42.4z M78.8,38.9c-1.3-14.6-10.6-27-23.4-32.6
			c-0.5-0.4-1.1-0.6-1.8-0.6c-1.7,0-3.1,1.4-3.1,3.1c0,1.6,1.3,3,2.9,3.1c0,0,0,0,0,0c9.5,4.3,16.7,13,19,23.5
			c-0.7-0.1-1.4-0.2-2.2-0.2c-6.5,0-11.7,5.2-11.7,11.7s5.2,11.7,11.7,11.7s11.7-5.2,11.7-11.7C81.9,43.8,80.8,41,78.8,38.9z
			 M63.7,67c-0.9,0-1.6,0.4-2.2,0.9c0,0,0,0,0,0c-5.9,5.1-13.6,8.2-22,8.2c-2.4,0-4.8-0.3-7-0.7c0.8-1.5,1.2-3.3,1.2-5.1
			c0-6.5-5.2-11.7-11.7-11.7s-11.7,5.2-11.7,11.7s5.2,11.7,11.7,11.7c2.2,0,4.3-0.6,6.1-1.7c3.6,1.1,7.5,1.7,11.5,1.7
			c9.7,0,18.6-3.5,25.5-9.3c1-0.5,1.7-1.5,1.7-2.7C66.6,68.3,65.3,67,63.7,67z"/>
	</g>
</g>
</svg>
