<?xml version="1.0" encoding="utf-8"?>
<!-- Generator: Adobe Illustrator 19.0.0, SVG Export Plug-In . SVG Version: 6.00 Build 0)  -->
<svg version="1.1" id="图层_1" xmlns="http://www.w3.org/2000/svg" xmlns:xlink="http://www.w3.org/1999/xlink" x="0px" y="0px"
	 viewBox="0 0 16 16" style="enable-background:new 0 0 16 16;" xml:space="preserve">
<g id="XMLID_2_">
	<g id="XMLID_3_" transform="scale(0.1953125, 0.1953125)">
		<path id="XMLID_4_" class="st0" d="M57.7,37.2H24.2c-2.1,0-3.7,1.7-3.7,3.7c0,2.1,1.7,3.7,3.7,3.7h33.5c2.1,0,3.7-1.7,3.7-3.7
			C61.4,38.9,59.8,37.2,57.7,37.2z M35.4,52.1H24.2c-2.1,0-3.7,1.7-3.7,3.7c0,2.1,1.7,3.7,3.7,3.7h11.2c2.1,0,3.7-1.7,3.7-3.7
			C39.1,53.8,37.4,52.1,35.4,52.1z M57.7,22.3H24.2c-2.1,0-3.7,1.7-3.7,3.7s1.7,3.7,3.7,3.7h33.5c2.1,0,3.7-1.7,3.7-3.7
			S59.8,22.3,57.7,22.3z M61.4,0h-41C12.3,0,5.6,6.7,5.6,14.9V67c0,8.2,6.7,14.9,14.9,14.9H54v0c0.8-0.1,1.6-0.4,2.2-1l19.1-18.7
			c0.7-0.7,1.1-1.6,1.1-2.6h0V14.9C76.3,6.7,69.7,0,61.4,0z M54,72.5v-9.2c0-2.1,1.7-3.7,3.7-3.7h9.5L54,72.5z M68.9,52.1H54
			c-4.1,0-7.4,3.3-7.4,7.4v14.9H22.3c-5.1,0-9.3-4.2-9.3-9.3l0-48.4c0-5.1,4.2-9.3,9.3-9.3h37.2c5.1,0,9.3,4.2,9.3,9.3V52.1z"/>
	</g>
</g>
</svg>
