<?xml version="1.0" encoding="utf-8"?>
<!-- Generator: Adobe Illustrator 19.0.0, SVG Export Plug-In . SVG Version: 6.00 Build 0)  -->
<svg version="1.1" id="图层_1" xmlns="http://www.w3.org/2000/svg" xmlns:xlink="http://www.w3.org/1999/xlink" x="0px" y="0px"
	 viewBox="0 0 16 16" style="enable-background:new 0 0 16 16;" xml:space="preserve">
<path d="M13.3,6.3h-1V4.4C12.4,1.9,10.4,0,8,0S3.6,1.9,3.6,4.4v1.9h-1c-0.5,0-1,0.4-1,1V15c0,0.5,0.4,1,1,1h10.7c0.5,0,1-0.4,1-1
	V7.3C14.3,6.7,13.9,6.3,13.3,6.3z M9,11.9v1c0,0.4-0.3,0.7-0.7,0.7c-0.4,0-0.7-0.3-0.7-0.7v-1c-0.3-0.2-0.5-0.6-0.5-1
	c0-0.7,0.5-1.2,1.2-1.2s1.2,0.5,1.2,1.2C9.5,11.3,9.3,11.6,9,11.9z M10.9,6.3H5.1V4.4c0-1.6,1.3-2.9,2.9-2.9c1.6,0,2.9,1.3,2.9,2.9
	V6.3z"/>
</svg>
