<?xml version="1.0" encoding="utf-8"?>
<!-- Generator: Adobe Illustrator 19.0.0, SVG Export Plug-In . SVG Version: 6.00 Build 0)  -->
<svg version="1.1" id="图层_1" xmlns="http://www.w3.org/2000/svg" xmlns:xlink="http://www.w3.org/1999/xlink" x="0px" y="0px"
	 viewBox="0 0 16 16" style="enable-background:new 0 0 16 16;" xml:space="preserve">
<g id="XMLID_6_">
	<g id="XMLID_7_" transform="scale(0.1953125, 0.1953125)">
		<path id="XMLID_8_" class="st0" d="M52,77.3c0-2.5-2-4.4-4.5-4.6v0H26.2c-2.6,0-4.7,2.1-4.7,4.6c0,2.5,2.1,4.6,4.7,4.6h21.3v0
			C50,81.8,52,79.8,52,77.3L52,77.3z M73.6,26.2L47.6,1c-1.3-1.3-3.4-1.3-4.8,0L8.4,33.7C7.1,35,7,37.1,8.3,38.3l11.5,11.5v-0.2
			L35.7,63h3c3.9-3.3,9.6-8.2,11.8-9.8l0.6-0.6c0,0,0,0,0-0.1c-0.5-0.8-1.5-2.5-2.5-4.4l-9.7,9.5c-1.1,1-2.7,1-3.7,0L15.2,37.5
			c-1-1-0.9-2.6,0.1-3.6L42.8,7.7c1.1-1,2.7-1,3.7,0L66.7,27c1,1,0.9,2.6-0.1,3.6l-8,7.8c0.5,1,1.3,2.8,2.3,4.7l12.6-12.3
			C74.8,29.6,74.9,27.5,73.6,26.2L73.6,26.2z M21.5,53.2v15.5c0,0,1.1,2.7,5.4,2.7h20.3c0,0,1.4,0.2,2.6-0.9
			c2.9-2.7,11.8-11,13.4-12.5c1.8-1.8,0.8-4.9,0-6.5c-0.8-1.6-6.4-13.2-6.4-13.2s-1.2-2.4-4.7-0.9c-3.5,1.5-3.7,3.1-3.3,5.9
			c0.4,2.8,4.2,8.8,4.2,8.8s0.1,1.5-0.8,2.1c-1,0.5-12.6,10.5-12.6,10.5h-4.3L21.5,53.2L21.5,53.2z M21.1,34.7l15.9-4l-4.6-4.5
			l2.2-2.2l5.4,5.3l3.1-3L37.6,21l2.2-2.2l5.4,5.3l4.4-4.3l2.8,2.7l-4.4,4.3l5.6,5.5l-2.2,2.2L45.8,29l-3.1,3l5.6,5.5l-2.2,2.2
			L41.4,35l-4.2,15.5L34,47.4c2.3-7.5,3.8-12.2,4.5-14.1l-0.1-0.1c-0.7,0.3-2.4,0.9-5,1.6L24,37.6L21.1,34.7L21.1,34.7z"/>
	</g>
</g>
</svg>
