<?xml version="1.0" encoding="utf-8"?>
<!-- Generator: Adobe Illustrator 19.0.0, SVG Export Plug-In . SVG Version: 6.00 Build 0)  -->
<svg version="1.1" id="图层_1" xmlns="http://www.w3.org/2000/svg" xmlns:xlink="http://www.w3.org/1999/xlink" x="0px" y="0px"
	 viewBox="0 0 16 16" style="enable-background:new 0 0 16 16;" xml:space="preserve">
<style type="text/css">
	.st0{fill:#040000;}
	.st1{fill:#040000;stroke:#000000;stroke-width:0.15;stroke-miterlimit:10;}
	.st2{fill:#040000;stroke:#000000;stroke-width:0.25;stroke-miterlimit:10;}
</style>
<g>
	<path id="XMLID_108_" class="st0" d="M13.3,2.3h-1.4h-0.6h-0.1c-0.2,0-0.4,0.2-0.4,0.4s0.2,0.4,0.4,0.4h0.1h0.6h1.2
		c0.4,0,0.8,0.4,0.8,0.8v10.2c0,0.4-0.4,0.8-0.8,0.8H2.9c-0.4,0-0.8-0.4-0.8-0.8V4c0-0.4,0.4-0.8,0.8-0.8h1.2h0.2h0.1
		c0.2,0,0.4-0.2,0.4-0.4c0-0.2-0.2-0.4-0.4-0.4H4.3H4.1H2.7C1.9,2.3,1.2,3,1.2,3.8v10.6c0,0.8,0.7,1.5,1.5,1.5h10.6
		c0.8,0,1.5-0.7,1.5-1.5l0-10.6C14.8,3,14.1,2.3,13.3,2.3z"/>
	<path id="XMLID_107_" class="st1" d="M4,3.9c0,0.4,0.3,0.7,0.7,0.7s0.7-0.3,0.7-0.7c0-0.2-0.1-0.4-0.3-0.5C5.3,2,6.6,0.9,8,0.9
		c1.5,0,2.7,1,3,2.4c-0.2,0.1-0.3,0.3-0.3,0.5c0,0.4,0.3,0.7,0.7,0.7s0.7-0.3,0.7-0.7c0-0.2-0.1-0.5-0.3-0.6c0,0,0,0-0.1,0
		C11.4,1.5,9.8,0.1,8,0.1c-1.8,0-3.4,1.3-3.7,3.1c0,0,0,0-0.1,0C4.1,3.4,4,3.6,4,3.9z"/>
	<path id="XMLID_113_" class="st2" d="M8.3,12.6c-0.1,0-0.1,0-0.2-0.1l0,0L6.6,10c0,0,0,0,0,0L3.4,9.7h0c-0.1,0-0.2-0.1-0.2-0.2
		c0-0.1,0-0.2,0.1-0.3l7-4.4l0,0c0.1,0,0.1-0.1,0.2,0c0.1,0,0.2,0.2,0.2,0.3l-2,7.3C8.5,12.5,8.5,12.5,8.3,12.6
		C8.4,12.6,8.3,12.6,8.3,12.6z M4,9.3l2.7,0.2c0,0,0,0,0,0h0c0.1,0,0.1,0,0.2,0.1l0,0l0,0l1.3,2.2L10,5.6"/>
</g>
</svg>
