<?xml version="1.0" encoding="utf-8"?>
<!-- Generator: Adobe Illustrator 19.0.0, SVG Export Plug-In . SVG Version: 6.00 Build 0)  -->
<svg version="1.1" id="图层_1" xmlns="http://www.w3.org/2000/svg" xmlns:xlink="http://www.w3.org/1999/xlink" x="0px" y="0px"
	 viewBox="0 0 16 16" style="enable-background:new 0 0 16 16;" xml:space="preserve">
<style type="text/css">
	.st0{fill:#040000;}
</style>
<path id="XMLID_110_" class="st0" d="M15.5,0.9C15.1,0.8,14.6,1,14.6,1L0.4,8c0,0-0.3,0.2-0.3,0.4C0.1,8.7,0.4,9,0.4,9l5.1,1.6
	l0.3-0.9L2,8.4l11.8-5.8l-6.9,8.3v4.2h1v-3.9l5.1,1.8c0,0,0.3,0.1,0.5,0l0,0c0.2-0.1,0.3-0.4,0.3-0.4s2-10.8,2-10.9
	C15.9,1.3,15.8,1,15.5,0.9z M13,11.9l-4.3-1.6l5.8-7.1L13,11.9z"/>
</svg>
