<?xml version="1.0" encoding="utf-8"?>
<!-- Generator: Adobe Illustrator 19.0.0, SVG Export Plug-In . SVG Version: 6.00 Build 0)  -->
<svg version="1.1" id="图层_1" xmlns="http://www.w3.org/2000/svg" xmlns:xlink="http://www.w3.org/1999/xlink" x="0px" y="0px"
	 viewBox="0 0 16 16" style="enable-background:new 0 0 16 16;" xml:space="preserve">
<g id="XMLID_2_">
	<g id="XMLID_3_" transform="scale(0.1953125, 0.1953125)">
		<path id="XMLID_4_" class="st0" d="M31.6,0H5.7C2.6,0,0,2.5,0,5.7v25.9c0,3.1,2.5,5.7,5.7,5.7h25.9c3.1,0,5.7-2.5,5.7-5.7V5.7
			C37.3,2.5,34.8,0,31.6,0L31.6,0z M76.2,0H50.3c-3.1,0-5.7,2.5-5.7,5.7v25.9c0,3.1,2.5,5.7,5.7,5.7h25.9c3.1,0,5.7-2.5,5.7-5.7V5.7
			C81.9,2.5,79.4,0,76.2,0L76.2,0z M76.2,34.1H50.3c-1.3,0-2.4-1.1-2.4-2.4V5.7c0-1.3,1.1-2.4,2.4-2.4h25.9c1.3,0,2.4,1.1,2.4,2.4
			v25.9C78.7,33,77.6,34.1,76.2,34.1L76.2,34.1z M31.6,44.6H5.7c-3.1,0-5.7,2.5-5.7,5.7v25.9c0,3.1,2.5,5.7,5.7,5.7h25.9
			c3.1,0,5.7-2.5,5.7-5.7V50.3C37.3,47.2,34.8,44.6,31.6,44.6L31.6,44.6z M76.2,44.6H50.3c-3.1,0-5.7,2.5-5.7,5.7v25.9
			c0,3.1,2.5,5.7,5.7,5.7h25.9c3.1,0,5.7-2.5,5.7-5.7V50.3C81.9,47.2,79.4,44.6,76.2,44.6L76.2,44.6z"/>
	</g>
</g>
</svg>
