<?xml version="1.0" encoding="utf-8"?>
<!-- Generator: Adobe Illustrator 19.0.0, SVG Export Plug-In . SVG Version: 6.00 Build 0)  -->
<svg version="1.1" id="图层_1" xmlns="http://www.w3.org/2000/svg" xmlns:xlink="http://www.w3.org/1999/xlink" x="0px" y="0px"
	 viewBox="0 0 16 16" style="enable-background:new 0 0 16 16;" xml:space="preserve">
<g id="XMLID_8_">
	<g id="XMLID_9_" transform="scale(0.1953125, 0.1953125)">
		<path id="XMLID_10_" class="st0" d="M13.4,11.6L13.4,11.6c1.8-1.8,4.8-1.8,6.5,0l23.9,23.9c1.8,1.8,1.8,4.7,0,6.5l0,0
			c-1.8,1.8-4.7,1.8-6.5,0L13.4,18.2C11.6,16.4,11.6,13.4,13.4,11.6L13.4,11.6L13.4,11.6z M76.4,35.2H47.2c1.5,2.8,1.1,6.5-1.3,8.9
			c-2.9,2.9-7.7,2.9-10.6,0l-8.9-8.9H5.6c-2.9,0-5.3,2.4-5.3,5.3l0,0c0,2.9,2.4,5.3,5.3,5.3h1.3l12.3,36.1h44.4l12.3-36.1h0.6
			c2.9,0,5.3-2.4,5.3-5.3l0,0C81.7,37.6,79.3,35.2,76.4,35.2L76.4,35.2L76.4,35.2z M19.6,49.2h43c1.5,0,2.7,1.2,2.7,2.7l0,0
			c0,1.5-1.2,2.7-2.7,2.7h-43c-1.5,0-2.7-1.2-2.7-2.7l0,0C16.9,50.5,18.1,49.2,19.6,49.2L19.6,49.2z M25.6,70.9h31.3
			c1.5,0,2.7,1.2,2.7,2.7l0,0c0,1.5-1.2,2.7-2.7,2.7H25.6c-1.5,0-2.7-1.2-2.7-2.7l0,0C22.9,72.2,24.1,70.9,25.6,70.9L25.6,70.9z
			 M22.6,60.2h37.6c1.5,0,2.7,1.2,2.7,2.8l0,0c0,1.5-1.2,2.7-2.7,2.7H22.6c-1.5,0-2.7-1.2-2.7-2.7l0,0
			C19.9,61.5,21.1,60.2,22.6,60.2z M44.2,0v15.6h-7.8L52,31.2l15.6-15.6h-7.8V0H44.2z"/>
	</g>
</g>
</svg>
