<?xml version="1.0" encoding="utf-8"?>
<!-- Generator: Adobe Illustrator 19.0.0, SVG Export Plug-In . SVG Version: 6.00 Build 0)  -->
<svg version="1.1" id="图层_1" xmlns="http://www.w3.org/2000/svg" xmlns:xlink="http://www.w3.org/1999/xlink" x="0px" y="0px"
	 viewBox="0 0 45.3 45.3" style="enable-background:new 0 0 45.3 45.3;" xml:space="preserve">
<style type="text/css">
	.st0{fill:#040000;}
</style>
<g id="XMLID_1_">
	<path id="XMLID_716_" class="st0" d="M44.3,27.6c-0.1-0.2-0.2-0.3-0.4-0.4L41.6,26l-2.2-1.1l3-6c0.2-0.4-0.1-1-0.7-1.3
		s-1.3-0.2-1.5,0.2l-3,6l-2-1l-3.1-1.6c0,0,0,0,0,0c0,0,0,0,0,0c0,0,0,0,0,0c0,0,0,0,0,0c0,0,0,0,0,0c0,0,0,0-0.1,0c0,0,0,0,0,0
		c0,0,0,0-0.1,0c0,0,0,0,0,0c0,0,0,0,0,0c0,0,0,0,0,0c0,0,0,0,0,0c0,0,0,0,0,0c0,0,0,0,0,0c0,0,0,0,0,0c0,0,0,0,0,0c0,0,0,0,0,0
		c0,0,0,0,0,0c0,0,0,0,0,0c0,0,0,0,0,0c0,0,0,0,0,0c0,0,0,0,0,0c0,0,0,0,0,0c0,0,0,0,0,0c0,0,0,0,0,0c0,0,0,0,0,0c0,0,0,0,0,0
		c0,0,0,0,0,0c0,0,0,0,0,0c0,0,0,0,0,0c0,0,0,0,0,0c0,0,0,0,0,0c-0.7,1.4-1.7,2.8-2.8,4c0,0,0,0,0,0.1c-0.7,0.8-1.5,1.6-2.3,2.3
		c-2.2,1.9-4.8,3.4-7.7,4.5c-0.4,0.2-0.7,0.6-0.6,1c0,0.4,0.1,0.7,0.5,0.9L35.1,45c0.1,0.1,0.3,0.1,0.4,0.1c0.2,0.1,0.4,0.2,0.6,0.2
		c0.3,0,0.5-0.1,0.7-0.3c2.4-2.4,4.4-5.1,5.7-8c1.4-2.9,2-5.9,2.1-8.9C44.5,27.9,44.5,27.7,44.3,27.6z M40.6,36.2
		c-1.1,2.5-2.8,4.8-4.8,6.9L32,40.8l2.4-2.4c0.4-0.4,0.4-1,0-1.4c-0.4-0.4-1-0.4-1.4,0l-2.8,2.7l-4.5-2.8l2.7-1.9
		c0.5-0.3,0.6-0.9,0.2-1.4c-0.3-0.5-0.9-0.6-1.4-0.2l-3.4,2.4l-3.5-2.1c2.4-1.1,4.6-2.5,6.6-4.1c0.7-0.6,1.4-1.2,2-1.9l12.4,7.1
		C41.1,35.2,40.9,35.7,40.6,36.2z M41.9,32.8l-11.6-6.6c0.7-0.8,1.3-1.7,1.8-2.6l10.4,5.2C42.4,30.1,42.2,31.4,41.9,32.8z"/>
	<path id="XMLID_710_" class="st0" d="M24.7,41.2H6.6c-1.6,0-3-1.3-3-3V5.8c0-1.6,1.3-3,3-3h30.9c1.6,0,3,1.3,3,3V15
		c1,0.3,1.9,0.7,2.8,1.3V4.5c0-2.5-2-4.5-4.5-4.5H5.3C2.8,0,0.8,2,0.8,4.5v35.1c0,2.5,2,4.5,4.5,4.5h23.5
		C27.3,43.3,25.9,42.4,24.7,41.2z"/>
	<path id="XMLID_718_" class="st0" d="M23.1,19.6h-6.8v-3.1h6.8c0.7,0,1.2-0.5,1.2-1.2c0-0.7-0.5-1.2-1.2-1.2h-3.9l3-3.6
		c0.3-0.3,0.3-0.8,0.2-1.2c-0.1-0.2-0.2-0.5-0.4-0.6c-0.5-0.5-1.3-0.4-1.7,0.1L16,14.1h-1.6L9.9,8.8C9.5,8.3,8.7,8.2,8.2,8.7
		C8,8.9,7.9,9.1,7.8,9.3c-0.1,0.4,0,0.8,0.2,1.2l3,3.6H7c-0.7,0-1.2,0.5-1.2,1.2s0.5,1.2,1.2,1.2h6.9v3.1H7c-0.7,0-1.2,0.5-1.2,1.2
		C5.8,21.4,6.3,22,7,22l6.9,0v5.5c0,0.7,0.5,1.2,1.2,1.2c0.7,0,1.2-0.5,1.2-1.2l0-5.5h6.8c0.7,0,1.2-0.5,1.2-1.2
		C24.3,20.1,23.8,19.6,23.1,19.6z"/>
</g>
</svg>
