<?xml version="1.0" encoding="utf-8"?>
<!-- Generator: Adobe Illustrator 19.0.0, SVG Export Plug-In . SVG Version: 6.00 Build 0)  -->
<svg version="1.1" id="图层_1" xmlns="http://www.w3.org/2000/svg" xmlns:xlink="http://www.w3.org/1999/xlink" x="0px" y="0px"
	 viewBox="0 0 16 16" style="enable-background:new 0 0 16 16;" xml:space="preserve">
<style type="text/css">
	.st0{fill:#040000;}
</style>
<path id="XMLID_2_" class="st0" d="M14.4,4.6h-3c-0.3,0-0.6-0.2-0.6-0.6V1.1c0-0.6-0.6-1.1-1.1-1.1H6.3C5.6,0,5.1,0.5,5.1,1.1V4
	c0,0.3-0.2,0.6-0.6,0.6h-3c-0.6,0-1,0.5-1,1.1V8c0,0.6,0.5,1.1,1,1.1h0.1v5.7c0,0.6,0.5,1.1,1.1,1.1h10.3c0.6,0,1.1-0.6,1.1-1.1V9.1
	h0.1c0.6,0,1-0.6,1-1.1V5.7C15.4,5,15,4.6,14.4,4.6z M13.1,13.7c0,0.6-0.6,1.1-1.1,1.1V12c0-0.3-0.2-0.6-0.6-0.6s-0.6,0.2-0.6,0.6
	v2.9H8.6V12c0-0.3-0.2-0.6-0.6-0.6S7.4,11.7,7.4,12v2.9H5.1V12c0-0.3-0.2-0.6-0.6-0.6S4,11.7,4,12v2.9c-0.7,0-1.1-0.6-1.1-1.1V9.1
	h10.3V13.7z M14.3,7.4c0,0.3-0.2,0.6-0.6,0.6H2.3C1.9,8,1.7,7.8,1.7,7.4V6.3c0-0.3,0.2-0.6,0.6-0.6h2.9c0,0,0.5,0,0.8-0.3
	C6.3,5,6.3,4.6,6.3,4.6V1.7c0-0.3,0.2-0.6,0.6-0.6h2.3c0.3,0,0.6,0.2,0.6,0.6v2.9c0,0.6,0.5,1.1,1.1,1.1h2.9c0.3,0,0.6,0.2,0.6,0.6
	V7.4z"/>
</svg>
