<?xml version="1.0" encoding="utf-8"?>
<!-- Generator: Adobe Illustrator 19.0.0, SVG Export Plug-In . SVG Version: 6.00 Build 0)  -->
<svg version="1.1" id="图层_1" xmlns="http://www.w3.org/2000/svg" xmlns:xlink="http://www.w3.org/1999/xlink" x="0px" y="0px"
	 viewBox="0 0 16 16" style="enable-background:new 0 0 16 16;" xml:space="preserve">
<style type="text/css">
	.st0{fill:#040000;}
</style>
<path id="XMLID_227_" class="st0" d="M15.4,3.1H9.8c-0.3,0-0.6-0.3-0.6-0.6c0-0.3,0.3-0.6,0.6-0.6h5.5c0.3,0,0.6,0.3,0.6,0.6
	C16,2.8,15.7,3.1,15.4,3.1L15.4,3.1L15.4,3.1z M15.4,6.2H9.8c-0.3,0-0.6-0.3-0.6-0.6c0-0.3,0.3-0.6,0.6-0.6h5.5
	c0.3,0,0.6,0.3,0.6,0.6C16,5.9,15.7,6.2,15.4,6.2L15.4,6.2L15.4,6.2z M15.4,11.1H9.8c-0.3,0-0.6-0.3-0.6-0.6s0.3-0.6,0.6-0.6h5.5
	c0.3,0,0.6,0.3,0.6,0.6C16,10.8,15.7,11.1,15.4,11.1L15.4,11.1L15.4,11.1z M15.4,14.2H9.8c-0.3,0-0.6-0.3-0.6-0.6
	c0-0.3,0.3-0.6,0.6-0.6h5.5c0.3,0,0.6,0.3,0.6,0.6C16,13.9,15.7,14.2,15.4,14.2L15.4,14.2L15.4,14.2z M5.5,7.4H1.8
	C0.8,7.4,0,6.6,0,5.5V1.8C0,0.8,0.8,0,1.8,0h3.7c1,0,1.8,0.8,1.8,1.8v3.7C7.4,6.6,6.6,7.4,5.5,7.4L5.5,7.4L5.5,7.4z M1.8,1.2
	c-0.3,0-0.6,0.3-0.6,0.6v3.7c0,0.3,0.3,0.6,0.6,0.6h3.7c0.3,0,0.6-0.3,0.6-0.6V1.8c0-0.3-0.3-0.6-0.6-0.6L1.8,1.2L1.8,1.2z M5.5,16
	H1.8c-1,0-1.8-0.8-1.8-1.8v-3.7c0-1,0.8-1.8,1.8-1.8h3.7c1,0,1.8,0.8,1.8,1.8v3.7C7.4,15.2,6.6,16,5.5,16L5.5,16L5.5,16z M1.8,9.8
	c-0.3,0-0.6,0.3-0.6,0.6v3.7c0,0.3,0.3,0.6,0.6,0.6h3.7c0.3,0,0.6-0.3,0.6-0.6v-3.7c0-0.3-0.3-0.6-0.6-0.6L1.8,9.8L1.8,9.8z"/>
</svg>
