<?xml version="1.0" encoding="utf-8"?>
<!-- Generator: Adobe Illustrator 19.0.0, SVG Export Plug-In . SVG Version: 6.00 Build 0)  -->
<svg version="1.1" id="图层_1" xmlns="http://www.w3.org/2000/svg" xmlns:xlink="http://www.w3.org/1999/xlink" x="0px" y="0px"
	 viewBox="0 0 16 16" style="enable-background:new 0 0 16 16;" xml:space="preserve">
<style type="text/css">
	.st0{fill:#040000;}
</style>
<g id="XMLID_134_">
	<path id="XMLID_133_" class="st0" d="M2.6,10.8H5c0.3,0,0.5-0.2,0.5-0.4c0-0.3-0.2-0.4-0.5-0.4l-2.5,0c-0.3,0-0.5,0.2-0.5,0.4
		C2.1,10.6,2.3,10.8,2.6,10.8z"/>
	<path id="XMLID_132_" class="st0" d="M2.6,12.8H5c0.3,0,0.5-0.2,0.5-0.4S5.3,11.9,5,11.9H2.6c-0.3,0-0.5,0.2-0.5,0.4
		S2.3,12.8,2.6,12.8z"/>
	<path id="XMLID_137_" class="st0" d="M14.9,4.5h-2.2V3.4c0-1.2-0.9-2.1-2-2.1l-5.3,0c-1.2,0-2.2,1-2.2,2.1v4.7l-1.9,0
		c-0.7,0-1.2,0.5-1.2,1.2v4.2c0,0.7,0.6,1.2,1.2,1.2h5c0.6,0,1.1-0.5,1.1-1.2V9.3c0-0.7-0.4-1.2-1.1-1.2l-2.1,0V3.4
		c0-0.6,0.6-1.2,1.3-1.2h5.3c0.7,0,1.2,0.5,1.2,1.2v1.1h-2C9.2,4.5,8.7,5,8.7,5.7v4.2c0,0.7,0.5,1.2,1.2,1.2h5c0.6,0,1-0.5,1-1.2
		V5.7C15.9,5,15.6,4.5,14.9,4.5z M6.4,9.3v4.2c0,0.2,0,0.3-0.1,0.3h-5c-0.1,0-0.3-0.2-0.3-0.3V9.3C1,9.1,1.2,9,1.3,9h5
		C6.5,9,6.4,9.2,6.4,9.3z M15.1,9.9c0,0.2-0.1,0.3-0.2,0.3l-5,0c-0.1,0-0.3-0.1-0.3-0.3V5.7c0-0.2,0.2-0.3,0.3-0.3h5
		c0.2,0,0.2,0.3,0.2,0.3L15.1,9.9z"/>
	<path id="XMLID_121_" class="st0" d="M13.6,6.3h-2.5c-0.3,0-0.5,0.2-0.5,0.5c0,0.3,0.2,0.5,0.5,0.5h2.5c0.3,0,0.5-0.2,0.5-0.5
		C14.1,6.6,13.9,6.3,13.6,6.3z"/>
	<path id="XMLID_115_" class="st0" d="M13.6,8.3h-2.5c-0.3,0-0.5,0.2-0.5,0.5c0,0.3,0.2,0.5,0.5,0.5h2.5c0.3,0,0.5-0.2,0.5-0.5
		C14.1,8.5,13.9,8.3,13.6,8.3z"/>
</g>
</svg>
