<?xml version="1.0" encoding="utf-8"?>
<!-- Generator: Adobe Illustrator 19.0.0, SVG Export Plug-In . SVG Version: 6.00 Build 0)  -->
<svg version="1.1" id="图层_1" xmlns="http://www.w3.org/2000/svg" xmlns:xlink="http://www.w3.org/1999/xlink" x="0px" y="0px"
	 viewBox="0 0 16 16" style="enable-background:new 0 0 16 16;" xml:space="preserve">
<g id="XMLID_5_">
	<g id="XMLID_6_" transform="scale(0.1953125, 0.1953125)">
		<path id="XMLID_7_" class="st0" d="M76.6,5.7H5.1C1.9,5.7,0,7.5,0,10.8v48.5c0,3.3,1.9,5.1,5.1,5.1h30.7v7.7H20.4
			c-1.6,0-2.6,0.9-2.6,2.6v2.6h46l0-2.6c0-1.6-0.9-2.6-2.6-2.6H46v-7.7h30.7c3.2,0,5.1-1.8,5.1-5.1l0-48.5
			C81.8,7.5,79.9,5.7,76.6,5.7L76.6,5.7L76.6,5.7L76.6,5.7z M38,57.7c0-1.6,1.3-3,2.9-3c1.6,0,2.9,1.3,2.9,3c0,1.6-1.3,3-2.9,3
			C39.3,60.6,38,59.3,38,57.7L38,57.7L38,57.7L38,57.7z M5.1,51.7V10.8h71.5v40.9H5.1L5.1,51.7L5.1,51.7z"/>
	</g>
</g>
<g id="XMLID_15_">
	<g id="XMLID_16_" transform="scale(0.1953125, 0.1953125)">
		<path id="XMLID_17_" class="st0" d="M60,33.6c0-0.1,0-0.2-0.1-0.3c0,0,0,0,0,0c0-0.1-0.1-0.1-0.1-0.2c0,0,0,0,0,0
			c-0.1-0.1-0.1-0.1-0.2-0.1c0,0,0,0,0,0c-0.1,0-0.2-0.1-0.3-0.1l-5.8,0.6c-0.4,0-0.7,0.3-0.7,0.7c0,0.4,0.3,0.7,0.7,0.7l2.7,0
			c0,0,0,0,0,0c0.1,0,0.1,0,0.2,0c-2,2.1-4.5,3.9-7.5,5.2c-8.9,4-18.4,2.3-21.2-3.9c-2.8-6.1,2.2-14.4,11.1-18.4
			c0.2-0.1,0.4-0.1,0.5-0.2c-0.1,0-0.2,0-0.2,0c0.7,0,1.3-0.6,1.3-1.3c0-0.7-0.6-1.3-1.3-1.3c-0.2,0-0.4,0-0.5,0.1
			c-0.9,0.3-1.8,0.6-2.7,1C25.1,21,19.3,31,22.7,38.6c3.4,7.6,14.9,9.8,25.6,5c4.1-1.8,7.4-4.4,9.9-7.3c0,0,0,0,0,0
			c0,0.8,0,2.7,0,3.2c0,0.4,0.3,0.7,0.7,0.7c0.4,0,0.7-0.3,0.7-0.7l0.4-5.2l0,0l0,0L60,33.6L60,33.6z M37.4,22.3
			c-0.6,0.4-1,0.9-1.4,1.5c-0.4,0.6-0.5,1.3-0.5,2c0,0.8,0.2,1.5,0.5,2.1c0.3,0.6,0.8,1,1.4,1.4c0.6,0.3,1.2,0.6,1.9,0.8
			c0.5,0.1,1,0.3,1.6,0.4v5c-0.3,0-0.6-0.1-0.9-0.2c-0.4-0.2-0.8-0.4-1.1-0.7c-0.3-0.3-0.5-0.6-0.7-0.9c-0.2-0.3-0.2-0.7-0.2-1.1
			c0-0.2-0.1-0.4-0.2-0.5c-0.1-0.1-0.3-0.2-0.5-0.2h-1.8c-0.2,0-0.4,0.1-0.5,0.2c-0.1,0.1-0.2,0.3-0.2,0.5c0,0.2,0,0.3,0.1,0.5
			c0,0.2,0.1,0.4,0.1,0.6l0,0c0.4,1.3,1.2,2.4,2.3,3.1c1,0.6,2.3,0.9,3.6,1v0.6c0,0.2,0.1,0.4,0.2,0.5c0.1,0.1,0.3,0.2,0.5,0.2h1.2
			c0.2,0,0.4-0.1,0.5-0.2c0.1-0.1,0.2-0.3,0.2-0.5v-0.6c0.5,0,1.1-0.1,1.6-0.3c0.8-0.2,1.5-0.5,2.1-0.9c0.6-0.4,1.1-0.9,1.5-1.4
			c0.4-0.6,0.6-1.3,0.6-2.1c0-0.9-0.2-1.7-0.5-2.3c-0.3-0.6-0.8-1.1-1.4-1.5c-0.6-0.4-1.3-0.7-2-0.9c-0.6-0.2-1.2-0.3-1.9-0.4v-4.4
			c0.2,0,0.3,0.1,0.5,0.1c0.4,0.1,0.7,0.3,0.9,0.4l0,0c0.2,0.2,0.4,0.4,0.6,0.6c0.1,0.2,0.2,0.4,0.2,0.7c0,0.2,0.1,0.4,0.2,0.5
			s0.3,0.2,0.5,0.2h1.8c0.2,0,0.4-0.1,0.5-0.2c0.1-0.1,0.2-0.3,0.2-0.5c0-0.7-0.2-1.3-0.6-1.9c-0.3-0.6-0.8-1-1.3-1.4
			c-0.5-0.4-1.2-0.6-1.9-0.8c-0.5-0.1-1-0.2-1.5-0.2v-0.6c0-0.2-0.1-0.4-0.2-0.5c-0.1-0.1-0.3-0.2-0.5-0.2h-1.2
			c-0.2,0-0.4,0.1-0.5,0.2c-0.1,0.1-0.2,0.3-0.2,0.5v0.6c-0.5,0-1.1,0.1-1.6,0.2C38.6,21.6,38,21.9,37.4,22.3L37.4,22.3z M43.6,30.9
			c0.3,0.1,0.5,0.1,0.7,0.2c0.4,0.1,0.8,0.3,1.1,0.4c0.3,0.2,0.5,0.4,0.6,0.6l0,0c0.1,0.2,0.2,0.5,0.2,0.9c0,0.3-0.1,0.6-0.2,0.9
			c-0.2,0.3-0.4,0.5-0.7,0.7c-0.3,0.2-0.7,0.4-1.1,0.5c-0.2,0.1-0.4,0.1-0.7,0.2V30.9L43.6,30.9z M40.4,23.8c0.2,0,0.3-0.1,0.5-0.1
			v3.8c-0.2,0-0.4-0.1-0.5-0.1c-0.4-0.1-0.7-0.3-1-0.4l0,0c-0.2-0.2-0.4-0.3-0.6-0.5c-0.1-0.2-0.2-0.4-0.2-0.8
			c0-0.3,0.1-0.5,0.2-0.7c0.1-0.2,0.3-0.4,0.6-0.6C39.7,24.1,40,24,40.4,23.8L40.4,23.8z"/>
	</g>
</g>
</svg>
