<?xml version="1.0" encoding="utf-8"?>
<!-- Generator: Adobe Illustrator 19.0.0, SVG Export Plug-In . SVG Version: 6.00 Build 0)  -->
<svg version="1.1" id="图层_1" xmlns="http://www.w3.org/2000/svg" xmlns:xlink="http://www.w3.org/1999/xlink" x="0px" y="0px"
	 viewBox="0 0 16 16" style="enable-background:new 0 0 16 16;" xml:space="preserve">
<g id="XMLID_2_">
	<g id="XMLID_3_" transform="scale(0.1953125, 0.1953125)">
		<path id="XMLID_4_" class="st0" d="M77.4,62.8H4.5c-2.5,0-4.6-2.1-4.6-4.6l0-51.4c0-2.5,2.1-4.6,4.6-4.6h72.9
			C80,2.2,82,4.3,82,6.8v51.4C82,60.7,80,62.8,77.4,62.8L77.4,62.8z M76.4,8.7c0-0.5-0.4-0.9-0.9-0.9l-69.5,0
			c-0.5,0-0.9,0.4-0.9,0.9v48c0,0.5,0.4,0.9,0.9,0.9h69.5c0.5,0,0.9-0.4,0.9-0.9V8.7L76.4,8.7z M58.3,24.1H68v28.2h-9.7V24.1
			L58.3,24.1z M42.8,15.4h9.8v36.9h-9.8V15.4L42.8,15.4z M27.5,32.9h9.7v19.4h-9.7V32.9L27.5,32.9z M13.9,41.5h9.7v10.8h-9.7V41.5
			L13.9,41.5z M28,66.4c0-0.5,0.4-0.9,0.9-0.9h23.8c0.5,0,0.9,0.4,0.9,0.9v7.8h15.7v5.5H12.2v-5.5H28V66.4L28,66.4z"/>
	</g>
</g>
</svg>
