<?xml version="1.0" encoding="utf-8"?>
<!-- Generator: Adobe Illustrator 19.0.0, SVG Export Plug-In . SVG Version: 6.00 Build 0)  -->
<svg version="1.1" id="图层_1" xmlns="http://www.w3.org/2000/svg" xmlns:xlink="http://www.w3.org/1999/xlink" x="0px" y="0px"
	 viewBox="0 0 16 16" style="enable-background:new 0 0 16 16;" xml:space="preserve">
<g id="XMLID_2_">
	<g id="XMLID_3_" transform="scale(0.1953125, 0.1953125)">
		<path id="XMLID_4_" class="st0" d="M72.5,11.9L69,11.9c-0.1,0-4.6-0.2-12.6-3.3c-8.1-3.3-13.4-7-13.4-7L40.9,0l-2.1,1.5
			c0,0-5.3,3.8-13.4,7c-7.9,3.2-12.5,3.3-12.6,3.3l-3.4,0.1v34.4c0,17.3,28.2,35.5,31.5,35.6c3.2,0,31.5-18.3,31.5-35.6L72.5,11.9z
			 M37.2,56.1L22.5,43.8l4.5-5.2l9.4,7.9l17.9-20.4l5.3,4.5L37.2,56.1z"/>
	</g>
</g>
</svg>
