<?xml version="1.0" encoding="utf-8"?>
<!-- Generator: Adobe Illustrator 19.0.0, SVG Export Plug-In . SVG Version: 6.00 Build 0)  -->
<svg version="1.1" id="图层_1" xmlns="http://www.w3.org/2000/svg" xmlns:xlink="http://www.w3.org/1999/xlink" x="0px" y="0px"
	 viewBox="0 0 16 16" style="enable-background:new 0 0 16 16;" xml:space="preserve">
<style type="text/css">
	.st0{fill:#040000;}
</style>
<g id="XMLID_4_">
	<path id="XMLID_2_" class="st0" d="M10.8,4.9C10.8,4.9,10.8,4.9,10.8,4.9c-0.3-0.3-0.7-0.3-0.9,0c0,0,0,0,0,0L7.8,6.9L5.8,4.9
		c-0.3-0.3-0.7-0.3-0.9,0c-0.3,0.3-0.3,0.7,0,0.9l2.1,2.1L4.8,9.9c-0.3,0.3-0.2,0.7,0,0.9c0.3,0.2,0.7,0.2,0.9,0l2.1-2.1l2.1,2.1
		c0.3,0.3,0.7,0.3,0.9,0c0,0,0,0,0,0c0.3-0.3,0.3-0.7,0-0.9c0,0,0,0,0,0L8.8,7.9l2.1-2.1C11.1,5.5,11.1,5.1,10.8,4.9z"/>
	<path id="XMLID_1_" class="st0" d="M8,0C3.6,0,0,3.6,0,8c0,1,0.2,2,0.5,2.9h0c0,0,0.3,0.5,0.7,0.6C2,11.6,2,10.9,2,10.9
		C1.5,10,1.3,9,1.3,8c0-3.7,3-6.7,6.7-6.7s6.7,3,6.7,6.7s-3,6.7-6.7,6.7c-1,0-2-0.2-2.8-0.6c-0.3-0.2-0.4-0.2-0.7-0.4
		c-1.1-0.8-1.8,0.3-1.3,0.8l0.1,0.1C4.7,15.5,6.2,16,8,16c4.4,0,8-3.6,8-8S12.4,0,8,0z"/>
</g>
</svg>
