<?xml version="1.0" encoding="utf-8"?>
<!-- Generator: Adobe Illustrator 19.0.0, SVG Export Plug-In . SVG Version: 6.00 Build 0)  -->
<svg version="1.1" id="图层_1" xmlns="http://www.w3.org/2000/svg" xmlns:xlink="http://www.w3.org/1999/xlink" x="0px" y="0px"
	 viewBox="0 0 16 16" style="enable-background:new 0 0 16 16;" xml:space="preserve">
<style type="text/css">
	.st0{fill:#272635;}
</style>
<g id="XMLID_7_">
	<g id="XMLID_8_" transform="scale(0.1953125, 0.1953125)">
		<path id="XMLID_9_" class="st0" d="M58.3,10C45-3.3,23.3-3.3,10,10C-3.3,23.3-3.3,45,10,58.3c12.2,12.2,31.2,13.2,44.6,3.2
			l19.8,19.8c0.8,0.8,2.1,0.8,2.9,0l4-4c0.8-0.8,0.8-2.1,0-2.9L61.5,54.6C71.5,41.2,70.5,22.2,58.3,10z M53.5,53.5
			c-10.7,10.7-28,10.7-38.6,0c-10.7-10.7-10.7-28,0-38.6s28-10.7,38.6,0S64.1,42.8,53.5,53.5z"/>
	</g>
</g>
</svg>
