<?xml version="1.0" encoding="utf-8"?>
<!-- Generator: Adobe Illustrator 19.0.0, SVG Export Plug-In . SVG Version: 6.00 Build 0)  -->
<svg version="1.1" id="图层_1" xmlns="http://www.w3.org/2000/svg" xmlns:xlink="http://www.w3.org/1999/xlink" x="0px" y="0px"
	 viewBox="0 0 16 16" style="enable-background:new 0 0 16 16;" xml:space="preserve">
<g id="XMLID_6_">
	<g id="XMLID_7_" transform="scale(0.1953125, 0.1953125)">
		<path id="XMLID_8_" class="st0" d="M64.7,26.2c0.3,0.1,0.6,0.3,0.8,0.5l0.7,0.5l0,0.9c0,2.7-0.3,5-1,6.8c-0.7,1.6-1.6,2.9-3,3.6
			c-1.3,4.3-3.8,8.1-6.9,10.8c-3.3,3-7.4,4.7-11.5,4.7c-4.1,0-8.2-1.8-11.5-4.7c-3.1-2.7-5.5-6.5-6.9-10.8c-1.4-0.7-2.4-1.9-3.1-3.6
			c-0.7-1.8-1.1-4.1-1-6.9l0-0.9l0.7-0.5c0.1-0.1,0.3-0.2,0.4-0.3C21,14.6,22.4,9.2,27.5,5c8-6.5,23.1-6.6,31.2-0.7
			C64.2,8.3,66.2,15.5,64.7,26.2L64.7,26.2z M20.8,65.5c1.5,1.2,3.2,1.8,5.9,1.1c3-1,4.9-3.3,6.6-5.5c0.2-0.4,0.8-0.9,0.1-2
			c-1.3-1.9-3-3.5-5.1-4.7c-0.8-0.5-1.4,0-1.8,0.4l-2.8,2.6c-3.4-4.5-6.7-10-9.1-15.1l3.5-1.5c0.5-0.2,1.2-0.5,1.1-1.5
			c-0.2-2.5-0.9-4.7-2-6.8c-0.6-1.1-1.3-0.7-1.7-0.7c-2.7,0.6-5.5,1.4-7.6,3.8c-2.1,2.6-2,4.9-1.2,7.2C8.6,48.8,15.3,61.1,20.8,65.5
			L20.8,65.5z M37.1,59.6c2,0.7,4.2,1,6.4,1c5.8,0,11-2.4,14.7-6.3c2.7,0,5.5,0,8.7,0c6,5.6,9.8,18.9,8.8,27.6
			c-21.5,0-42.9,0-64.4,0c0.1-4.8,0.7-11.9,3.1-18.1c1.4,1.7,2.8,3.2,4.1,4.3c2.7,2.2,5.7,2.7,9,1.8l0.1,0l0.1,0
			c3.6-1.3,6-3.8,8.2-6.8l0.2-0.3l0.1-0.2C36.9,61.7,37.2,60.6,37.1,59.6L37.1,59.6z M62.3,28.8c-1.1,0.1-2.4,0.1-2.9,0.5
			c-0.5-1.5-0.9-3-1.4-4.5c-7.1,1.4-15,1.9-25.6-0.9c-1.1,1.7-2.1,3.5-3.2,5.2c-0.9-0.1-2.1-0.2-3.3-0.3c-0.2,0-0.3,0.1-0.5,0.1
			c-0.2,0.1-0.4,0.1-0.5,0.2c0,1.9,0.3,3.5,0.8,4.6c0.4,1,1.1,1.7,1.8,2l0.9,0.3l0.2,0.9c1.1,4,3.3,7.5,6.1,9.9
			c2.7,2.4,6,3.8,9.3,3.8c3.3,0,6.6-1.4,9.3-3.9c2.8-2.5,5-5.9,6-10l0.2-0.9l0.9-0.3c0.8-0.3,1.4-1,1.8-2c0.5-1.2,0.7-2.7,0.8-4.6
			C62.7,29,62.6,28.9,62.3,28.8L62.3,28.8z"/>
	</g>
</g>
</svg>
