<?xml version="1.0" encoding="utf-8"?>
<!-- Generator: Adobe Illustrator 19.0.0, SVG Export Plug-In . SVG Version: 6.00 Build 0)  -->
<svg version="1.1" id="图层_1" xmlns="http://www.w3.org/2000/svg" xmlns:xlink="http://www.w3.org/1999/xlink" x="0px" y="0px"
	 viewBox="0 0 16 16" style="enable-background:new 0 0 16 16;" xml:space="preserve">
<style type="text/css">
	.st0{fill:#040000;}
</style>
<path id="XMLID_40_" class="st0" d="M14,8.6c0-0.2,0-0.4,0-0.6s0-0.4,0-0.6l1.4-1.1c0.3-0.2,0.4-0.7,0.2-1l-1.5-2.6
	c-0.2-0.3-0.6-0.5-1-0.3L11.5,3c-0.3-0.2-0.6-0.4-0.9-0.6l-0.2-1.8c-0.1-0.4-0.4-0.7-0.8-0.7h-3c-0.4,0-0.7,0.3-0.8,0.7L5.5,2.5
	C5.2,2.6,4.8,2.8,4.5,3L2.9,2.4c-0.4-0.1-0.8,0-1,0.3L0.4,5.3c-0.2,0.3-0.1,0.8,0.2,1L2,7.4C2,7.6,2,7.8,2,8s0,0.4,0,0.6L0.6,9.7
	c-0.3,0.2-0.4,0.7-0.2,1l1.5,2.6c0.2,0.3,0.6,0.5,1,0.3L4.5,13c0.3,0.2,0.6,0.4,0.9,0.6l0.2,1.8c0.1,0.4,0.4,0.7,0.8,0.7h3
	c0.4,0,0.7-0.3,0.8-0.7l0.2-1.8c0.3-0.2,0.6-0.3,0.9-0.6l1.6,0.7c0.1,0,0.2,0.1,0.3,0.1c0.3,0,0.5-0.2,0.7-0.4l1.5-2.6
	c0.2-0.3,0.1-0.8-0.2-1L14,8.6z M13.4,12.8l-1.9-0.8c-0.1-0.1-0.3,0-0.4,0.1c-0.4,0.3-0.8,0.5-1.2,0.7c-0.1,0.1-0.2,0.2-0.3,0.3
	l-0.3,2l-2.9,0l-0.3-2c0-0.1-0.1-0.3-0.3-0.3c-0.4-0.2-0.8-0.4-1.2-0.7c-0.1-0.1-0.2-0.1-0.3-0.1c-0.1,0-0.1,0-0.2,0l-1.8,0.8
	l-1.5-2.6l1.6-1.2C2.8,9,2.9,8.8,2.9,8.7c0-0.2,0-0.5,0-0.7c0-0.2,0-0.5,0-0.7c0-0.1,0-0.3-0.2-0.4L1.2,5.7l1.4-2.6l1.9,0.8
	c0.1,0.1,0.3,0,0.4-0.1C5.2,3.6,5.6,3.3,6,3.2C6.2,3.1,6.3,3,6.3,2.8l0.2-2l2.9,0l0.3,2C9.7,3,9.8,3.1,10,3.2
	c0.4,0.2,0.8,0.4,1.2,0.7c0.1,0.1,0.3,0.1,0.4,0.1l1.8-0.8l1.5,2.6l-1.6,1.2c-0.1,0.1-0.2,0.2-0.2,0.4c0,0.2,0,0.5,0,0.7
	c0,0.2,0,0.5,0,0.7c0,0.1,0,0.3,0.2,0.4l1.6,1.2L13.4,12.8z M8,4.8C6.3,4.8,4.9,6.3,4.9,8c0,1.7,1.4,3.2,3.1,3.2s3.1-1.4,3.1-3.2
	C11.1,6.3,9.7,4.8,8,4.8z M8,10.3c-1.3,0-2.3-1-2.3-2.3s1-2.3,2.3-2.3s2.3,1,2.3,2.3S9.3,10.3,8,10.3z"/>
</svg>
