<?xml version="1.0" encoding="utf-8"?>
<!-- Generator: Adobe Illustrator 19.0.0, SVG Export Plug-In . SVG Version: 6.00 Build 0)  -->
<svg version="1.1" id="图层_1" xmlns="http://www.w3.org/2000/svg" xmlns:xlink="http://www.w3.org/1999/xlink" x="0px" y="0px"
	 viewBox="0 0 16 16" style="enable-background:new 0 0 16 16;" xml:space="preserve">
<style type="text/css">
	.st0{fill:#040000;}
	.st1{fill:#231815;}
</style>
<path id="XMLID_721_" class="st0" d="M6.6,2.9c0.2,0,0.4,0.1,0.6,0.3l3.1,3.1c0.2,0.2,0.2,0.5,0,0.8C10.2,7.3,10,7.4,9.7,7.4
	c-0.2,0-0.4-0.2-0.5-0.3L7.3,5.2c0,1.4,0,4.3,0,6.2c0,0,0,0.4,0.4,0.4l4.3,0c0.1,0,0.3,0,0.4,0.1c0.2,0.1,0.2,0.4,0.2,0.6
	c0,0.3-0.1,0.7-0.7,0.7l-0.2,0c-0.7,0-3.5,0-4.1,0c-1.1,0-1.5-0.6-1.5-1.7V5.3L4.6,7.1C4.4,7.3,4.3,7.3,4.1,7.3
	c-0.3,0-0.6-0.3-0.7-0.5c-0.1-0.2,0-0.5,0.1-0.6C3.6,6.1,5,4.6,6.2,3.2C6.5,2.9,6.5,2.9,6.6,2.9z"/>
<path id="XMLID_78_" class="st1" d="M13.5,0H2.5C1.1,0,0,1.1,0,2.5v11c0,1.4,1.1,2.5,2.5,2.5h11.1c1.4,0,2.5-1.1,2.5-2.5v-11
	C16,1.1,14.9,0,13.5,0z M15,13.2c0,0.9-0.8,1.6-1.7,1.6H2.7c-0.9,0-1.7-0.7-1.7-1.6V2.8c0-0.9,0.8-1.6,1.7-1.6h10.6
	c0.9,0,1.7,0.7,1.7,1.6V13.2z"/>
</svg>
