<?xml version="1.0" encoding="utf-8"?>
<!-- Generator: Adobe Illustrator 19.0.0, SVG Export Plug-In . SVG Version: 6.00 Build 0)  -->
<svg version="1.1" id="图层_1" xmlns="http://www.w3.org/2000/svg" xmlns:xlink="http://www.w3.org/1999/xlink" x="0px" y="0px"
	 viewBox="0 0 16 16" style="enable-background:new 0 0 16 16;" xml:space="preserve">
<g>
	<path d="M2,16c-1.1,0-2-0.9-2-2L0,2c0-1.1,0.9-2,2-2h12c1.1,0,2,0.9,2,2v12c0,1.1-0.9,2-2,2H2z M2,1.3C1.6,1.3,1.3,1.6,1.3,2v12
		c0,0.4,0.3,0.7,0.7,0.7h12c0.4,0,0.7-0.3,0.7-0.7V2c0-0.4-0.3-0.7-0.7-0.7L2,1.3L2,1.3z"/>
	<path d="M8.6,12.8c-0.7,0-3.3,0-4,0l-0.2,0c-0.6,0-0.6-0.3-0.6-0.6c0-0.2,0-0.4,0.2-0.5c0.1-0.1,0.3-0.1,0.4-0.1h4.1
		C9,11.5,9,11.2,9,11.2c0-1.8,0-4.6,0-5.9L7.2,7.1C7,7.2,6.9,7.4,6.7,7.4C6.5,7.4,6.3,7.3,6.1,7c-0.2-0.2-0.2-0.5,0-0.7l3-3
		C9.3,3.1,9.5,3,9.7,3c0.1,0,0.4,0,0.6,0.3c1.2,1.4,2.5,2.9,2.6,3C13,6.4,13.1,6.6,13,6.9c-0.1,0.2-0.4,0.5-0.7,0.5
		c-0.2,0-0.4-0.1-0.5-0.2l-1.5-1.8v5.8C10.3,12.3,9.7,12.8,8.6,12.8z"/>
</g>
</svg>
