<?xml version="1.0" encoding="utf-8"?>
<!-- Generator: Adobe Illustrator 19.0.0, SVG Export Plug-In . SVG Version: 6.00 Build 0)  -->
<svg version="1.1" id="图层_1" xmlns="http://www.w3.org/2000/svg" xmlns:xlink="http://www.w3.org/1999/xlink" x="0px" y="0px"
	 viewBox="0 0 16 16" style="enable-background:new 0 0 16 16;" xml:space="preserve">
<style type="text/css">
	.st0{fill:#040000;}
</style>
<path id="XMLID_10_" class="st0" d="M7.3,4.6l1.4-0.1C8.8,4.7,8.9,4.9,9,5.2h3.1v1.6h-1.2V6.2H5.4v0.6H4.3V5.2h3.3 M4.8,11.6V7h2.7
	V6.4h1.2V7h2.7v4.5h-1.2v-0.4H8.8v1.7H7.6v-1.7H6v0.4 M10.4,7.9H8.8v0.7h1.6 M6,8.7h1.6V7.9H6 M6,10.2h1.6V9.5H6 M8.8,10.2h1.6V9.5
	H8.8 M8.5,15.9C8.4,16,8.3,16,8.2,16c-0.1,0-0.2,0-0.3-0.1c-0.4-0.1-0.7-0.2-1.1-0.4c-3.4-1.3-5.2-3.4-5.3-7V6
	c0-0.4,0.3-0.7,0.7-0.7S2.8,5.6,2.8,6l0,0v2.6c0.1,3,1.5,4.6,4.4,5.7c0.3,0.1,0.6,0.2,0.9,0.3c0.3-0.1,0.6-0.2,0.9-0.3
	c2.9-1.1,4.4-2.7,4.4-5.7V6c0-0.4,0.3-0.7,0.7-0.7c0.4,0,0.7,0.3,0.7,0.7c0,0,0,0,0,0v2.6c-0.1,3.6-1.9,5.6-5.3,6.9
	C9.2,15.7,8.9,15.8,8.5,15.9L8.5,15.9z M8.1,2c1.1,1.1,3.2,1.6,6,1.6c0.4,0,0.7-0.3,0.7-0.7c0-0.4-0.3-0.7-0.7-0.7
	c-2.7,0-4.5-0.6-5.2-1.4c0,0-0.1-0.1-0.1-0.1c0,0,0-0.1,0-0.1C8.8,0.3,8.5,0,8.2,0c0,0,0,0,0,0C7.8,0,7.5,0.3,7.5,0.7
	c0,0,0,0.1,0,0.1c0,0.1-0.1,0.1-0.1,0.1C6.7,1.8,4.8,2.3,2.1,2.3C1.8,2.3,1.5,2.6,1.5,3c0,0.4,0.3,0.7,0.7,0.7c0,0,0,0,0,0
	C5,3.7,7,3.1,8.1,2L8.1,2z"/>
</svg>
