<?xml version="1.0" encoding="utf-8"?>
<!-- Generator: Adobe Illustrator 19.0.0, SVG Export Plug-In . SVG Version: 6.00 Build 0)  -->
<svg version="1.1" id="图层_1" xmlns="http://www.w3.org/2000/svg" xmlns:xlink="http://www.w3.org/1999/xlink" x="0px" y="0px"
	 viewBox="0 0 16 16" style="enable-background:new 0 0 16 16;" xml:space="preserve">
<style type="text/css">
	.st0{fill:#040000;}
</style>
<g id="XMLID_1_">
	<path id="XMLID_562_" class="st0" d="M6.7,10.6H5.2v0.9c0,0.2-0.1,0.3-0.3,0.3H4.5c-0.2,0-0.3-0.1-0.3-0.3v-0.9H2.7
		c-0.2,0-0.3-0.1-0.3-0.3V9.9c0-0.2,0.1-0.3,0.3-0.3h1.5V8.7H2.7c-0.2,0-0.3-0.1-0.3-0.3V8.1c0-0.2,0.1-0.3,0.3-0.3h1.5L2.8,6.4
		C2.7,6.2,2.7,6,2.8,5.9L3,5.7c0.1-0.1,0.3-0.1,0.4,0l1.2,1.2L6,5.7c0.1-0.1,0.3-0.1,0.4,0l0.2,0.2c0.1,0.1,0.1,0.3,0,0.4L5.2,7.8
		h1.5C6.9,7.8,7,7.9,7,8.1v0.3c0,0.2-0.1,0.3-0.3,0.3H5.2v0.9h1.5C6.9,9.6,7,9.8,7,9.9v0.3C7,10.4,6.9,10.6,6.7,10.6z"/>
	<path id="XMLID_582_" class="st0" d="M1.5,13.1c-0.3,0-0.6-0.3-0.6-0.6V5.1c0,0,0,0,0.1,0h13.5v1h0.9v-3c0-0.7-0.5-1.2-1.2-1.2H1.2
		C0.5,1.9,0,2.4,0,3.1v9.8c0,0.7,0.5,1.2,1.2,1.2h9.2l-0.2-1H1.5z M0.9,3.5c0-0.3,0.3-0.6,0.6-0.6h12.3c0.3,0,0.6,0.3,0.6,0.6V4H1
		c0,0,0,0-0.1,0V3.5z"/>
	<g id="XMLID_561_">
		<path id="XMLID_574_" class="st0" d="M15.8,6.9L14,5.9c-0.2-0.1-0.4,0-0.6,0.2l-2.5,5c0,0,0,0,0,0.1c-0.1,0.1-0.1,0.3-0.1,0.4
			l0.1,2l0,0c0,0,0,0,0,0.1h-0.5c-0.1,0-0.2,0.1-0.2,0.2s0.1,0.2,0.2,0.2h4.5c0.1,0,0.2-0.1,0.2-0.2s-0.1-0.2-0.2-0.2h-3.1l1.3-0.8
			c0.2-0.1,0.2-0.2,0.3-0.4c0,0,0,0,0,0l2.5-5C16.1,7.2,16,7,15.8,6.9z M11.6,13.2c-0.2,0.2-0.4,0.1-0.4-0.2l0,0l0-0.3l0.7,0.3
			L11.6,13.2z M12.6,12.5l-0.2,0.2l-1.2-0.5c0,0,0,0,0,0l0-0.3c0-0.3,0.2-0.4,0.3-0.4l1.2,0.6C12.9,12.1,12.8,12.3,12.6,12.5z
			 M15.2,7.6l-2,3.9c0,0,0,0.1-0.1,0.1l-1.5-0.7c0,0,0-0.1,0-0.1l2-3.9c0.1-0.1,0.2-0.2,0.2-0.1l1.2,0.6C15.3,7.4,15.3,7.5,15.2,7.6
			z"/>
		<path id="XMLID_585_" class="st0" d="M13.5,12.7c-0.1,0-0.2,0.1-0.2,0.2c0,0.1,0.1,0.2,0.2,0.2h1.1c0.1,0,0.2-0.1,0.2-0.2
			c0-0.1-0.1-0.2-0.2-0.2H13.5z"/>
	</g>
</g>
</svg>
