<?xml version="1.0" encoding="utf-8"?>
<!-- Generator: Adobe Illustrator 19.0.0, SVG Export Plug-In . SVG Version: 6.00 Build 0)  -->
<svg version="1.1" id="图层_1" xmlns="http://www.w3.org/2000/svg" xmlns:xlink="http://www.w3.org/1999/xlink" x="0px" y="0px"
	 viewBox="0 0 16 16" style="enable-background:new 0 0 16 16;" xml:space="preserve">
<style type="text/css">
	.st0{fill:#040000;}
</style>
<g id="XMLID_1_">
	<path id="XMLID_2_" class="st0" d="M6.8,8.4c0.2,0,0.3-0.1,0.3-0.3V7.8c0-0.2-0.1-0.3-0.3-0.3H5.3L6.7,6c0.1-0.1,0.1-0.3,0-0.4
		L6.5,5.4c-0.1-0.1-0.3-0.1-0.4,0L4.8,6.6L3.6,5.4c-0.1-0.1-0.3-0.1-0.4,0L2.9,5.6C2.8,5.7,2.8,5.9,2.9,6l1.4,1.4H2.8
		c-0.2,0-0.3,0.1-0.3,0.3v0.3c0,0.2,0.1,0.3,0.3,0.3h1.5v0.9H2.8c-0.2,0-0.3,0.1-0.3,0.3v0.3c0,0.2,0.1,0.3,0.3,0.3h1.5v0.9
		c0,0.2,0.1,0.3,0.3,0.3H5c0.2,0,0.3-0.1,0.3-0.3v-0.9h1.5c0.2,0,0.3-0.1,0.3-0.3V9.6c0-0.2-0.1-0.3-0.3-0.3H5.3V8.4H6.8z"/>
	<path id="XMLID_8_" class="st0" d="M15.8,8l-0.9-0.9c-0.1-0.1-0.4-0.1-0.6,0L13.4,8l1.5,1.5l0.9-0.9C15.9,8.4,15.9,8.1,15.8,8z"/>
	<polygon id="XMLID_11_" class="st0" points="11.9,13.1 11.3,13.8 15.7,13.8 15.7,13.1 12.6,13.1 	"/>
	<polygon id="XMLID_12_" class="st0" points="13,8.3 9.2,12.4 9.2,13.8 10.7,13.8 14.5,9.7 	"/>
	<path id="XMLID_15_" class="st0" d="M1,12.2V4.8c0,0,0,0,0.1,0h13.5v0.5h0.9V2.8c0-0.7-0.5-1.2-1.2-1.2h-13c-0.7,0-1.2,0.5-1.2,1.2
		v9.9c0,0.7,0.5,1.2,1.2,1.2H9v-1H1.7C1.3,12.8,1,12.5,1,12.2z M1,3.2c0-0.3,0.3-0.6,0.6-0.6H14c0.3,0,0.6,0.3,0.6,0.6v0.5H1.1
		c0,0,0,0-0.1,0V3.2z"/>
</g>
</svg>
