<?xml version="1.0" encoding="utf-8"?>
<!-- Generator: Adobe Illustrator 19.0.0, SVG Export Plug-In . SVG Version: 6.00 Build 0)  -->
<svg version="1.1" id="图层_1" xmlns="http://www.w3.org/2000/svg" xmlns:xlink="http://www.w3.org/1999/xlink" x="0px" y="0px"
	 viewBox="0 0 16 16" style="enable-background:new 0 0 16 16;" xml:space="preserve">
<style type="text/css">
	.st0{fill:#040000;}
</style>
<g id="XMLID_119_">
	<g id="XMLID_120_" transform="scale(0.1953125, 0.1953125)">
		<path id="XMLID_121_" class="st0" d="M63.8,26.7c0.3,0.1,0.6,0.3,0.8,0.5l0.7,0.5v0.9c0,2.6-0.3,4.8-1,6.6
			c-0.7,1.5-1.5,2.8-2.9,3.5c-1.3,4.2-3.7,7.8-6.7,10.4c-3.2,2.9-7.2,4.5-11.1,4.5s-7.9-1.7-11.1-4.5c-3-2.6-5.3-6.3-6.7-10.4
			c-1.4-0.7-2.3-1.8-3-3.5c-0.7-1.7-1.1-4-1-6.7v-0.9l0.7-0.5c0.1-0.1,0.3-0.2,0.4-0.3c-1.4-11.3,0-16.5,4.9-20.6
			c7.7-6.3,22.3-6.4,30.2-0.7C63.4,9.4,65.3,16.4,63.8,26.7L63.8,26.7z M21.4,64.7c1.4,1.2,3.1,1.7,5.7,1.1c2.9-1,4.7-3.2,6.4-5.3
			c0.2-0.4,0.8-0.9,0.1-1.9c-1.3-1.8-2.9-3.4-4.9-4.5c-0.8-0.5-1.4,0-1.7,0.4l-2.7,2.5c-3.3-4.3-6.5-9.7-8.8-14.6l3.4-1.4
			c0.5-0.2,1.2-0.5,1.1-1.4c-0.2-2.4-0.9-4.5-1.9-6.6c-0.6-1.1-1.3-0.7-1.6-0.7c-2.6,0.6-5.3,1.4-7.3,3.7c-2,2.5-1.9,4.7-1.2,7
			C9.6,48.5,16.1,60.4,21.4,64.7L21.4,64.7z M37.2,59c1.9,0.7,4.1,1,6.2,1c5.6,0,10.6-2.3,14.2-6.1c2.6,0,5.3,0,8.4,0
			c5.8,5.4,9.5,18.3,8.5,26.7c-20.8,0-41.5,0-62.2,0c0.1-4.6,0.7-11.5,3-17.5c1.4,1.6,2.7,3.1,4,4.2c2.6,2.1,5.5,2.6,8.7,1.7H28h0.1
			c3.5-1.3,5.8-3.7,7.9-6.6l0.2-0.3l0.1-0.2C37,61,37.3,60,37.2,59L37.2,59z M61.5,29.2c-1.1,0.1-2.3,0.1-2.8,0.5
			c-0.5-1.4-0.9-2.9-1.4-4.3c-6.9,1.4-14.5,1.8-24.7-0.9c-1.1,1.6-2,3.4-3.1,5c-0.9-0.1-2-0.2-3.2-0.3c-0.2,0-0.3,0.1-0.5,0.1
			c-0.2,0.1-0.4,0.1-0.5,0.2c0,1.8,0.3,3.4,0.8,4.4c0.4,1,1.1,1.6,1.7,1.9l0.9,0.3L29,37c1.1,3.9,3.2,7.2,5.9,9.6
			c2.6,2.3,5.8,3.7,9,3.7c3.2,0,6.4-1.4,9-3.8c2.7-2.4,4.8-5.7,5.8-9.7l0.2-0.9l0.9-0.3c0.8-0.3,1.4-1,1.7-1.9
			c0.5-1.2,0.7-2.6,0.8-4.4C61.9,29.4,61.8,29.3,61.5,29.2L61.5,29.2z"/>
	</g>
</g>
</svg>
