<?xml version="1.0" encoding="utf-8"?>
<!-- Generator: Adobe Illustrator 19.0.0, SVG Export Plug-In . SVG Version: 6.00 Build 0)  -->
<svg version="1.1" id="图层_1" xmlns="http://www.w3.org/2000/svg" xmlns:xlink="http://www.w3.org/1999/xlink" x="0px" y="0px"
	 viewBox="0 0 16 16" style="enable-background:new 0 0 16 16;" xml:space="preserve">
<g id="XMLID_20_">
	<g id="XMLID_21_" transform="scale(0.1953125, 0.1953125)">
		<path id="XMLID_22_" class="st0" d="M39.5,44.4l-17.8-9c-0.4-0.2-0.8-0.2-1.2,0l0,0l-19,9c-0.5,0.2-0.9,0.7-0.9,1.3v24.6h0
			c0,0.5,0.3,1,0.7,1.3l18.4,10.1l0,0h0l0,0l0,0l0,0l0,0l0,0l0,0l0,0l0,0h0l0,0l0,0l0,0l0,0h0l0,0l0,0l0,0l0,0l0,0l0,0h0l0,0l0,0h0
			l0,0h0l0,0l0,0h0l0,0h0h0h0h0l0,0h0h0l0,0l0,0h0h0h0l0,0h0h0h0l0,0l0,0h0l0,0h0l0,0h0h0h0h0l0,0h0h0h0h0h0h0h0h0h0h0l0,0h0h0h0h0
			h0h0h0h0h0h0h0l0,0h0h0h0h0h0h0l0,0h0h0h0h0h0h0h0h0h0h0h0h0h0h0h0h0l0,0h0l0,0l0,0h0h0h0l0,0h0h0h0l0,0l0,0h0h0l0,0h0h0l0,0h0
			l0,0h0l0,0l0,0h0l0,0h0l0,0l0,0h0l0,0l0,0l0,0l0,0l0,0l0,0h0l0,0l0,0l0,0l0,0h0l0,0l0,0l0,0l0,0l0,0l0,0l0,0l0,0h0l0,0l18.4-10.1
			c0.5-0.3,0.7-0.7,0.7-1.3h0l0-24.6C40.4,45.2,40.1,44.7,39.5,44.4z M21.1,38.3l4,2l-15.4,8l-4.5-2.5L21.1,38.3z M19.1,78.1
			L3.5,69.5V48.2l4.8,2.6v4.7l3.5,1.7v-4.5l7.3,4L19.1,78.1L19.1,78.1z M20.5,54.3l-7.1-3.9L29,42.3l7,3.5L20.5,54.3z M80.3,44.4
			l-17.8-9c-0.4-0.2-0.8-0.2-1.2,0l0,0l-19,9c-0.5,0.2-0.9,0.7-0.9,1.3v24.6h0c0,0.5,0.3,1,0.7,1.3l18.4,10.1l0,0h0l0,0l0,0l0,0l0,0
			l0,0l0,0l0,0l0,0h0l0,0l0,0l0,0l0,0h0l0,0l0,0l0,0l0,0l0,0l0,0h0h0l0,0h0l0,0h0l0,0l0,0h0l0,0h0l0,0h0h0l0,0h0h0l0,0l0,0h0h0h0
			l0,0h0h0h0l0,0l0,0h0l0,0h0h0h0h0h0h0l0,0h0h0h0h0h0h0l0,0h0h0h0l0,0h0h0h0h0h0h0h0h0h0h0h0l0,0h0h0h0h0h0h0l0,0h0h0h0h0h0h0h0h0
			h0h0h0h0h0h0h0h0l0,0h0l0,0l0,0h0h0h0l0,0h0h0h0l0,0l0,0h0h0l0,0h0h0l0,0h0l0,0h0l0,0l0,0h0l0,0h0l0,0l0,0h0l0,0l0,0l0,0l0,0l0,0
			l0,0h0l0,0l0,0l0,0l0,0h0l0,0l0,0l0,0l0,0l0,0l0,0l0,0v0h0l0,0l18.7-10.1c0.5-0.3,0.7-0.7,0.7-1.3h0V45.8
			C81.2,45.2,80.9,44.7,80.3,44.4z M62,38.3l4,2l-15.4,8L46,45.9L62,38.3z M60,78.1l-15.6-8.6V48.2l4.8,2.6v4.7l3.5,1.7v-4.5l7.3,4
			L60,78.1L60,78.1z M61.4,54.3l-7.1-3.9l15.5-8.1l7,3.5L61.4,54.3z M60.4,9.2l-17.8-9c-0.4-0.2-0.8-0.2-1.2,0l0,0l-19,9
			c-0.5,0.2-0.9,0.7-0.9,1.3v24.6h0c0,0.5,0.3,1,0.7,1.3l18.4,10.1l0,0h0l0,0l0,0l0,0l0,0l0,0l0,0l0,0l0,0h0l0,0l0,0l0,0l0,0h0l0,0
			l0,0l0,0l0,0l0,0l0,0h0l0,0l0,0h0l0,0h0l0,0l0,0h0l0,0h0l0,0h0l0,0l0,0h0h0l0,0l0,0h0h0h0l0,0h0h0h0l0,0h0h0l0,0h0h0h0h0h0h0h0h0
			h0h0h0h0h0l0,0h0h0h0l0,0h0h0h0l0,0h0h0h0h0h0h0h0l0,0h0h0h0h0h0h0l0,0h0h0h0h0h0h0h0h0h0l0,0h0h0h0h0h0h0l0,0h0h0l0,0h0h0h0l0,0
			h0h0h0l0,0l0,0h0h0l0,0l0,0h0l0,0h0l0,0h0l0,0l0,0h0h0h0l0,0l0,0h0l0,0l0,0l0,0l0,0l0,0l0,0h0h0l0,0l0,0l0,0h0l0,0l0,0l0,0l0,0
			l0,0l0,0l0,0v0h0l0,0l18.4-10.1c0.5-0.3,0.7-0.7,0.7-1.3h0V10.5C61.3,9.9,60.9,9.4,60.4,9.2z M43,3.5l4,2l-15.4,8l-4.5-2.5L43,3.5
			z M40,43.3l-15.6-8.6V13.4l4.8,2.6v4.7l3.5,1.7V18l7.3,4V43.3L40,43.3z M41.4,19l-7.1-3.9L49.9,7l7,3.5L41.4,19z"/>
	</g>
</g>
</svg>
