<?xml version="1.0" encoding="utf-8"?>
<!-- Generator: Adobe Illustrator 19.0.0, SVG Export Plug-In . SVG Version: 6.00 Build 0)  -->
<svg version="1.1" id="图层_1" xmlns="http://www.w3.org/2000/svg" xmlns:xlink="http://www.w3.org/1999/xlink" x="0px" y="0px"
	 viewBox="0 0 16 16" style="enable-background:new 0 0 16 16;" xml:space="preserve">
<g id="XMLID_8_">
	<g id="XMLID_9_" transform="scale(0.1953125, 0.1953125)">
		<path id="XMLID_10_" class="st0" d="M62.1,32.7c0,0-0.5-0.5-0.9-0.5h-5.5V43h12c0-0.5-0.5-1.2-0.9-1.8L62.1,32.7z M41,0
			C18.3,0,0,18.3,0,41s18.3,41,41,41s41-18.3,41-41S63.6,0,41,0z M27.4,62.5c-3.1,0-5.7-2.4-5.7-5.4s2.5-5.4,5.7-5.4
			c3.1,0,5.7,2.4,5.7,5.4C33.1,60.1,30.5,62.5,27.4,62.5z M59.1,62.5c-3.1,0-5.7-2.4-5.7-5.4s2.5-5.4,5.7-5.4c3.1,0,5.7,2.4,5.7,5.4
			C64.7,60.1,62.2,62.5,59.1,62.5z M69.2,56H67c-0.6-3.7-3.9-6.6-7.9-6.6c-4,0-7.4,2.9-7.9,6.6l-15.8,0c-0.6-3.7-3.9-6.6-7.9-6.6
			S20,52.3,19.5,56H15c-1.2,0-2.3-1-2.3-2.2V21.4c0-1.2,1-2.2,2.3-2.2h36.2c1.2,0,2.3,1,2.3,2.2v6.5h7.9c1.7,0,2.4,1,3.4,2.2
			l5.1,8.6c0,0,1.7,2.3,1.7,4.4c0,2,0,10.8,0,10.8C71.5,55,70.5,56,69.2,56z M40.3,23.4l-5.7,5.4l-5.7-5.4h-4.4l7.7,7.3H25v1.4h7.7
			v4.6H25v1.4h7.7v8.4h3.8v-8.4h7.7v-1.4h-7.7v-4.6h7.7v-1.4H37l7.7-7.3H40.3z"/>
	</g>
</g>
</svg>
