<?xml version="1.0" standalone="no"?><!DOCTYPE svg PUBLIC "-//W3C//DTD SVG 1.1//EN" "http://www.w3.org/Graphics/SVG/1.1/DTD/svg11.dtd"><svg t="1495165820829" class="icon" style="" viewBox="0 0 1024 1024" version="1.1" xmlns="http://www.w3.org/2000/svg" p-id="4377" xmlns:xlink="http://www.w3.org/1999/xlink" width="16" height="16"><defs><style type="text/css"></style></defs><path d="M511.93859 0.001023c-282.742573 0-511.918136 229.193982-511.918136 511.918136 0 282.531771 229.175563 511.918136 511.918136 511.918136 282.743596 0 511.919159-229.386364 511.919159-511.918136C1023.857749 229.195006 794.682186 0.001023 511.93859 0.001023zM775.378538 667.470911c0 47.838541-56.299237 107.694791-125.807311 107.694791-19.092847 0-37.416168-4.326539-53.54859-12.017708l-0.404206 0.404206c-143.535067-72.065316-263.246543-191.776791-335.311859-335.311859l0.404206-0.38374c-7.671727-16.343223-12.21009-34.455743-12.21009-53.761438 0-69.488631 59.856249-125.613906 107.694791-125.613906 10.05603 0 18.900465 3.941775 25.399483 10.440793 1.961678 1.961678 3.53757 4.134157 5.114484 6.306636l78.756715 101.388155c6.499018 6.499018 10.652618 15.555278 10.652618 25.591865 0 8.075933-2.769067 15.362896-7.498788 21.266349l-27.956725 28.149107c-5.306866 4.345981-8.653077 10.844999-8.653077 18.11252 0 8.268314 4.114714 15.57472 10.42135 19.900236-0.384763 0.192382-0.576121 0.384763-0.768503 0.596588 28.341488 39.167045 62.989613 73.238025 102.176101 101.792361 0-0.404206 0.192382-0.596588 0.38374-0.808412 4.345981 6.115278 11.42112 10.249435 19.689435 10.249435 7.095605 0 13.382798-3.15383 17.727757-8.075933l28.341488-28.553313c6.114255-4.517897 13.402241-7.268544 21.457708-7.268544 10.05603 0 18.919908 3.922333 25.419949 10.422374l101.387132 78.948073c2.365884 1.384533 4.538363 2.961448 6.499018 4.923126 6.500041 6.499018 10.440793 15.57472 10.440793 25.418926l0.192382 0L775.378538 667.470911z" p-id="4378" fill="#1bcdc4"></path></svg>