<?xml version="1.0" encoding="utf-8"?>
<!-- Generator: Adobe Illustrator 19.0.0, SVG Export Plug-In . SVG Version: 6.00 Build 0)  -->
<svg version="1.1" id="图层_1" xmlns="http://www.w3.org/2000/svg" xmlns:xlink="http://www.w3.org/1999/xlink" x="0px" y="0px"
	 viewBox="0 0 16 16" style="enable-background:new 0 0 16 16;" xml:space="preserve">
<path id="XMLID_6_" d="M15.8,5.2c0,0-0.1-0.4-0.5-0.4c-0.4,0-0.5,0.3-0.5,0.4c0,0,0,6,0,6.1c0,0.1,0,0.5-0.4,0.7
	c-0.3,0.2-1.5,0.6-3.4,0.7c-2.2,0.1-4.6-1.2-6.3-1.2c-1,0-2,0.2-2.7,0.4c-0.1,0-0.4,0.3-0.3,0.7C1.8,13.1,2.1,13,2.3,13
	c0.8-0.3,1.1-0.4,2.4-0.3c1.1,0,3.5,1.2,6.3,1.2c2,0,3.8-0.6,4.1-0.8c0.6-0.3,0.7-0.7,0.7-1.1C15.8,11.7,15.8,5.2,15.8,5.2z
	 M10.5,12c1.7,0,2.6-0.3,3-0.5c0.4-0.2,0.5-0.4,0.5-0.6c0-0.1,0-7.2,0-7.6c0-0.2-0.1-0.3-0.3-0.4c-0.1,0-0.3-0.1-0.6,0
	c-0.6,0-1.1,0.5-2.7,0.5C8.3,3.5,6,2.3,4.2,2.3c-2.9,0-3.3,0.4-3.7,0.6C0.2,3.1,0.1,3.4,0.1,3.6V11c0,0.2,0.3,0.5,0.8,0.4
	c0.8-0.2,2-0.5,3.3-0.5C6.1,10.8,8.4,12,10.5,12z M7,4.1c1.7,0,3.1,1.3,3.1,3c0,1.7-1.4,3-3.1,3c-1.7,0-3.1-1.3-3.1-3
	C4,5.5,5.3,4.1,7,4.1z M5.6,6.7c0,0.2,0.2,0.3,0.4,0.3h0.8v0.4H5.9c-0.2,0-0.4,0.2-0.4,0.3c0,0.2,0.2,0.3,0.4,0.3h0.8v0.9
	c0,0.2,0.2,0.3,0.4,0.3c0.2,0,0.4-0.2,0.4-0.3V8.2h0.8c0.2,0,0.4-0.2,0.4-0.3c0-0.2-0.2-0.3-0.4-0.3H7.4V7.1h0.8
	c0.2,0,0.4-0.2,0.4-0.3c0-0.2-0.2-0.3-0.4-0.3H7.8l0.7-0.6c0.1-0.1,0.1-0.4,0-0.5c-0.1-0.1-0.4-0.1-0.5,0L7.1,6.1L6.2,5.2
	c-0.1-0.1-0.4-0.1-0.5,0c-0.1,0.1-0.1,0.4,0,0.5l0.7,0.6H5.9C5.7,6.4,5.6,6.5,5.6,6.7z"/>
</svg>
