<?xml version="1.0" encoding="utf-8"?>
<!-- Generator: Adobe Illustrator 19.0.0, SVG Export Plug-In . SVG Version: 6.00 Build 0)  -->
<svg version="1.1" id="图层_1" xmlns="http://www.w3.org/2000/svg" xmlns:xlink="http://www.w3.org/1999/xlink" x="0px" y="0px"
	 viewBox="0 0 16 16" style="enable-background:new 0 0 16 16;" xml:space="preserve">
<g id="XMLID_11_">
	<g id="XMLID_12_" transform="scale(0.1953125, 0.1953125)">
		<path id="XMLID_13_" class="st0" d="M74,0.1h-66c-3.4,0-6.2,2.8-6.2,6.2v69.4c0,3.4,2.8,6.2,6.2,6.2h66c3.4,0,6.2-2.8,6.2-6.2
			l0-69.4C80.2,2.9,77.4,0.1,74,0.1z M21.2,12.8c0.6-1.5,2.1-2.3,3.7-2c1.4,0.3,2.3,1.1,2.6,2.5c0.3,1.4-0.1,2.6-1.2,3.5
			c-0.1,0.1-0.2,0.2-0.2,0.3c-0.2,1.2-0.2,2.4,0,3.7c0.1,0.5,0.1,1.1,0.2,1.6h0c0.2,0.8,0.7,3,1.3,4.2c0,0,0,0,0,0
			c1,2.1,2.3,4,4.1,5.5c4.5,3.8,9.5,4.7,15,2.3c3.8-1.7,6.4-4.7,8-8.5c0,0,1-2.7,1.2-4.4c0.2-1.4,0.2-2.8,0.1-4.2
			c0-0.3-0.1-0.5-0.4-0.6c-1.2-1-1.6-2.7-0.9-4c0.7-1.4,2.2-2.1,3.7-1.8c1.4,0.3,2.3,1.3,2.5,2.7c0.3,1.3-0.4,2.6-1.5,3.3
			c-0.2,0.1-0.2,0.2-0.2,0.4c0,1.3,0,2.5,0,3.8c0,0.4-0.1,0.9-0.1,1.3c0,0-0.4,2.1-1,3.9c-1,2.8-2.6,5.3-4.7,7.5
			c-2.7,2.7-5.9,4.4-9.7,5c-0.6,0.1-1.1,0.1-1.7,0.2h-2c-0.1,0-0.1,0-0.2,0c-3.2-0.2-6.2-1.3-8.8-3.2c-3.4-2.4-5.7-5.7-7.1-9.7
			c-0.3-0.8-0.8-2.3-1-3.7c0-0.1,0-0.2,0-0.3c-0.2-1.6-0.3-3.1-0.1-4.7c0-0.3,0-0.4-0.3-0.5C21.2,16,20.7,14.3,21.2,12.8z
			 M77.3,72.9c0,4.2-1.8,5.9-4.7,5.9h-2.2c0.5-1.2,0.8-2.5,0.8-3.8c0-4.5-3.2-8.3-7.5-9.1c1.1,1.7,1.8,5,1.8,8.8
			c0,1.4-0.1,2.8-0.3,4.1h-6.4c-0.2-1.2-0.3-2.6-0.3-4.1c0-3.8,0.7-7.1,1.8-8.8c-4.3,0.8-7.5,4.5-7.5,9.1c0,1.4,0.3,2.7,0.8,3.8
			H43.1l0.5-0.7c0.8-0.9-0.4-1.4-0.4-1.4H39c-1.4,0.1-0.6,1.6-0.6,1.6l0.4,0.6H28.4c0.5-1.2,0.8-2.5,0.8-3.8c0-4.5-3.3-8.3-7.5-9.1
			c1.1,1.7,1.8,5,1.8,8.8c0,1.4-0.1,2.8-0.3,4.1l-6.4,0c-0.2-1.2-0.3-2.6-0.3-4.1c0-3.8,0.7-7.1,1.8-8.8c-4.3,0.8-7.5,4.5-7.5,9.1
			c0,1.4,0.3,2.7,0.8,3.8h-2c-5.6,0-4.8-6.5-4.8-6.5V53.6c1.8-10.3,8.7-4,8.7-4l6,6.6C24,60,30.9,60,30.9,60h24.4
			c4.8,0,9.7-4.6,9.7-4.6l6-6.4c5.7-4.3,6.4,7.5,6.4,7.5V72.9z"/>
	</g>
</g>
</svg>
