<?xml version="1.0" encoding="utf-8"?>
<!-- Generator: Adobe Illustrator 19.0.0, SVG Export Plug-In . SVG Version: 6.00 Build 0)  -->
<svg version="1.1" id="图层_1" xmlns="http://www.w3.org/2000/svg" xmlns:xlink="http://www.w3.org/1999/xlink" x="0px" y="0px"
	 viewBox="0 0 16 16" style="enable-background:new 0 0 16 16;" xml:space="preserve">
<style type="text/css">
	.st0{fill:#040000;}
</style>
<g id="XMLID_94_">
	<path id="XMLID_102_" class="st0" d="M10.8,2.1c0.9-0.9,2.3-1,3.2-0.1c0.8,0.8,0.8,2.3-0.1,3.2l-2.5,2.5l0.9,0.9L14.8,6
		c1.4-1.4,1.4-3.6,0.1-4.9c-1.3-1.3-3.5-1.3-4.9,0.1L7.4,3.7l0.9,0.9L10.8,2.1z"/>
	<path id="XMLID_101_" class="st0" d="M5.3,13.7c-0.9,0.9-2.3,1-3.2,0.1c-0.8-0.8-0.8-2.3,0.1-3.2l2.5-2.5L3.9,7.3L1.4,9.8
		c-1.4,1.4-1.4,3.6-0.1,4.9s3.5,1.3,4.9-0.1l2.5-2.5l-0.9-0.9L5.3,13.7z"/>
	<path id="XMLID_100_" class="st0" d="M3.3,6.7L3.3,6.7H0.5C0.2,6.7,0,6.4,0,6.1c0-0.3,0.2-0.5,0.5-0.5l0,0l2.8,0
		c0.3,0,0.5,0.2,0.5,0.5C3.9,6.4,3.7,6.7,3.3,6.7z"/>
	<path id="XMLID_99_" class="st0" d="M4.2,4.7C4,4.7,3.9,4.6,3.8,4.5l-2-2C1.6,2.3,1.6,2,1.8,1.8c0.2-0.2,0.6-0.2,0.8,0l2,2
		c0.2,0.2,0.2,0.6,0,0.8C4.4,4.6,4.3,4.7,4.2,4.7z"/>
	<path id="XMLID_98_" class="st0" d="M6.1,3.9c-0.3,0-0.5-0.2-0.5-0.5V0.5C5.6,0.2,5.8,0,6.1,0c0.3,0,0.5,0.2,0.5,0.5v2.8
		C6.7,3.7,6.4,3.9,6.1,3.9z"/>
	<path id="XMLID_97_" class="st0" d="M9.9,16c-0.3,0-0.5-0.2-0.5-0.5l0-2.8c0-0.3,0.2-0.5,0.5-0.5c0.3,0,0.5,0.2,0.5,0.5v2.8
		C10.4,15.8,10.2,16,9.9,16z"/>
	<path id="XMLID_96_" class="st0" d="M13.8,14.4c-0.1,0-0.3-0.1-0.4-0.2l-2-2c-0.2-0.2-0.2-0.6,0-0.8c0.2-0.2,0.6-0.2,0.8,0l2,2
		c0.2,0.2,0.2,0.6,0,0.8C14.1,14.3,14,14.4,13.8,14.4z"/>
	<path id="XMLID_95_" class="st0" d="M15.5,10.4h-2.8c-0.3,0-0.5-0.2-0.5-0.5c0-0.3,0.2-0.5,0.5-0.5h2.8c0.3,0,0.5,0.2,0.5,0.5
		C16,10.2,15.8,10.4,15.5,10.4z"/>
</g>
</svg>
