<?xml version="1.0" encoding="utf-8"?>
<!-- Generator: Adobe Illustrator 19.0.0, SVG Export Plug-In . SVG Version: 6.00 Build 0)  -->
<svg version="1.1" id="图层_1" xmlns="http://www.w3.org/2000/svg" xmlns:xlink="http://www.w3.org/1999/xlink" x="0px" y="0px"
	 viewBox="0 0 16 16" style="enable-background:new 0 0 16 16;" xml:space="preserve">
<g>
	<path d="M2,16c-1.1,0-2-0.9-2-2L0,2c0-1.1,0.9-2,2-2h12c1.1,0,2,0.9,2,2v12c0,1.1-0.9,2-2,2H2z M2,1.3C1.6,1.3,1.3,1.6,1.3,2v12
		c0,0.4,0.3,0.7,0.7,0.7h12c0.4,0,0.7-0.3,0.7-0.7V2c0-0.4-0.3-0.7-0.7-0.7L2,1.3L2,1.3z"/>
	<path d="M8.3,3c0.7,0,3.3,0,4,0l0.2,0C13,3,13,3.4,13,3.7c0,0.2,0,0.4-0.2,0.5c-0.1,0.1-0.3,0.1-0.4,0.1H8.3
		c-0.4,0-0.4,0.3-0.4,0.4c0,1.8,0,4.6,0,5.9l1.8-1.8c0.2-0.2,0.3-0.3,0.5-0.3c0.2,0,0.4,0.1,0.6,0.4c0.2,0.2,0.2,0.5,0,0.7l-3,3
		c-0.2,0.2-0.4,0.3-0.6,0.3c-0.1,0-0.4,0-0.6-0.3c-1.2-1.4-2.5-2.9-2.6-3C3.9,9.4,3.8,9.2,3.9,9C4,8.8,4.2,8.5,4.6,8.5
		c0.2,0,0.4,0.1,0.5,0.2l1.5,1.8V4.7C6.6,3.6,7.2,3,8.3,3z"/>
</g>
</svg>
