<?xml version="1.0" encoding="utf-8"?>
<!-- Generator: Adobe Illustrator 19.0.0, SVG Export Plug-In . SVG Version: 6.00 Build 0)  -->
<svg version="1.1" id="图层_1" xmlns="http://www.w3.org/2000/svg" xmlns:xlink="http://www.w3.org/1999/xlink" x="0px" y="0px"
	 viewBox="0 0 45.3 45.3" style="enable-background:new 0 0 45.3 45.3;" xml:space="preserve">
<style type="text/css">
	.st0{fill:#272635;}
</style>
<g id="XMLID_2_">
	<g id="XMLID_3_" transform="scale(0.1953125, 0.1953125)">
		<path id="XMLID_4_" class="st0" d="M178.1,62c0,34.2-27.8,62-62,62c-34.2,0-62-27.8-62-62c0-34.2,27.8-62,62-62
			C150.3,0,178.1,27.8,178.1,62z M111.7,232.2H1.9c0,0-6.6-78.6,71-114.5L111.7,232.2z M120.5,232.2h109.7c0,0,6.6-78.6-71-114.5
			L120.5,232.2z M105,133.3h22.2l5.7,38.8l-17.1,43.5l-16.5-43.5L105,133.3z"/>
	</g>
</g>
</svg>
