<?xml version="1.0" encoding="utf-8"?>
<!-- Generator: Adobe Illustrator 19.0.0, SVG Export Plug-In . SVG Version: 6.00 Build 0)  -->
<svg version="1.1" id="图层_1" xmlns="http://www.w3.org/2000/svg" xmlns:xlink="http://www.w3.org/1999/xlink" x="0px" y="0px"
	 viewBox="0 0 16 16" style="enable-background:new 0 0 16 16;" xml:space="preserve">
<g id="XMLID_2_">
	<g id="XMLID_3_" transform="scale(0.1953125, 0.1953125)">
		<path id="XMLID_4_" class="st0" d="M45.8,79l1.4-7.9l-5.7-5.6c-2-1.9-2.7-4.5-1.9-6.9c0.8-2.4,2.9-4.1,5.6-4.5l6.9-1
			c-0.3-0.2-0.6-0.4-0.8-0.6c-0.9-0.8-1.5-1.6-1.9-2.4c-0.4-0.8-0.6-1.7-0.6-2.5c0-0.8,0-1.7,0.2-2.5c0.1-0.6,0.3-1.2,0.5-1.7
			c0.2-0.5,0.5-0.8,0.8-1.2c0.3-0.3,0.7-0.6,1.1-0.9c0.4-0.3,0.9-0.6,1.4-1.1c0.4-0.4,0.8-0.9,1.2-1.6c0.3-0.7,0.6-1.4,0.9-2
			c0.3-0.8,0.5-1.6,0.7-2.5c0.5-0.2,1-0.4,1.5-0.9c0.4-0.4,0.8-0.9,1.2-1.6c0.3-0.7,0.6-1.6,0.8-2.7c0.1-0.9,0.1-1.6,0-2.2
			c-0.1-0.6-0.3-1.1-0.5-1.4c-0.2-0.4-0.5-0.8-0.9-1c0-2.1-0.1-4.3-0.4-6.4c-0.3-1.8-0.7-3.8-1.4-5.8c-0.7-2.1-1.7-3.9-3-5.7
			c-0.6-0.8-1.4-1.5-2.3-2.2c-0.9-0.7-2.1-1.4-3.3-2c-1.2-0.6-2.6-1.1-4-1.4c-1.4-0.4-2.9-0.6-4.5-0.6c-1.2,0-2.5,0.1-3.8,0.3
			c-1.3,0.2-2.6,0.6-3.9,1.1c-1.3,0.5-2.6,1.3-3.8,2.2c-1.3,0.9-2.4,2.1-3.4,3.6c-1.1,1.5-1.9,3.3-2.5,5.2c-0.6,1.9-1,3.8-1.2,5.5
			c-0.3,2-0.4,4.1-0.3,6.1c-0.4,0.6-0.8,1.1-1,1.7c-0.2,0.5-0.4,1.2-0.4,1.9c-0.1,0.7,0,1.6,0.3,2.5c0.3,0.9,0.6,1.6,1,2.1
			c0.4,0.5,0.7,0.9,1.1,1.1c0.4,0.3,0.8,0.5,1.1,0.6c0.3,0.8,0.5,1.7,0.8,2.5c0.3,0.7,0.6,1.4,0.9,2c0.3,0.7,0.7,1.2,1.1,1.6
			c0.9,0.8,1.7,1.5,2.5,2.2c0.7,0.7,1.1,1.7,1.2,3c0,0.8,0.1,1.6,0.1,2.3c0,0.7-0.1,1.4-0.4,2c-0.2,0.6-0.7,1.3-1.3,1.9
			c-0.6,0.6-1.5,1.3-2.6,2c-1.4,0.9-3,1.6-4.9,2.1c-1.9,0.5-9.9,3.3-11.7,3.9c-1.7,0.6-3.3,1.4-4.5,2.4c-1.3,1-2.1,2.5-2.4,4.5
			c-0.5,3.4-0.6,4-0.4,6.2c0.3,2.2,0.7,3.5,1.3,3.9c0.5,0.4,1.9,0.8,4.2,1.3s16.8,3.3,33.7,3.3c2.2,0,4.3,0,6.4-0.1
			C45.6,80.5,45.6,79.8,45.8,79L45.8,79z M79.1,59.6l-8.4-1.2c-1.3-0.2-2.8-1.3-3.4-2.5l-3.8-7.6c-0.3-0.6-0.7-0.9-1.1-0.9
			s-0.8,0.3-1.1,0.9l-3.8,7.6c-0.6,1.2-2.1,2.3-3.4,2.5l-8.4,1.2c-1.3,0.2-1.6,1.1-0.6,2l6.1,5.9c0.9,0.9,1.5,2.7,1.3,4l-1.4,8.4
			c-0.2,0.9,0.2,1.5,0.8,1.5c0.3,0,0.5-0.1,0.8-0.3l7.5-4c0.6-0.3,1.3-0.5,2.1-0.5c0.8,0,1.5,0.2,2.1,0.5l7.5,4
			c0.3,0.2,0.6,0.3,0.8,0.3c0.6,0,1-0.6,0.8-1.5l-1.4-8.4c-0.2-1.3,0.4-3.1,1.3-4l6.1-5.9C80.7,60.7,80.4,59.8,79.1,59.6L79.1,59.6z
			"/>
	</g>
</g>
</svg>
