<?xml version="1.0" encoding="utf-8"?>
<!-- Generator: Adobe Illustrator 19.0.0, SVG Export Plug-In . SVG Version: 6.00 Build 0)  -->
<svg version="1.1" id="图层_1" xmlns="http://www.w3.org/2000/svg" xmlns:xlink="http://www.w3.org/1999/xlink" x="0px" y="0px"
	 viewBox="0 0 16 16" style="enable-background:new 0 0 16 16;" xml:space="preserve">
<g id="XMLID_2_">
	<g id="XMLID_3_" transform="scale(0.1953125, 0.1953125)">
		<path id="XMLID_4_" class="st0" d="M6.2,81.9c0-1.8,0-3.6,0-5.3c0.1-8.7,0-17.3,0.4-26c0.4-8.9,6.2-10.3,13.6-9.8
			c0.7,0,1.5,1.4,1.9,2.3c5,10,10,20.1,14.9,30.2c0.4,0.9,0.9,1.7,1.8,2.4c-2-9.9-3.9-19.8-6-29.6c-0.4-1.9,0-3.1,1.4-4.4
			c2.3-2,4.4-4.2,7.2-6.8c-7.7-0.9-13.1-3.9-16.1-10.4c-1.7-3.8-2-7.8-1-11.8c2-7.8,9.5-13,18.1-12.6c7.9,0.4,14.7,6.9,15.8,15
			c1.3,9.6-3.8,15.7-17.6,20.2c2.6,2.3,4.9,4.3,7.2,6.3c1.5,1.3,1.9,2.6,1.4,4.6c-2.1,9.8-4,19.6-5.4,29.6c0.5-1,1.1-2,1.6-3
			C50.3,62.8,55.2,52.9,60,43c0.9-1.8,1.8-2.4,3.8-2.3c8.4,0.2,11.7,3.1,11.8,11.5c0.2,9.8,0,19.7,0,29.7
			C52.5,81.9,29.6,81.9,6.2,81.9z"/>
	</g>
</g>
</svg>
