<?xml version="1.0" encoding="utf-8"?>
<!-- Generator: Adobe Illustrator 19.0.0, SVG Export Plug-In . SVG Version: 6.00 Build 0)  -->
<svg version="1.1" id="图层_1" xmlns="http://www.w3.org/2000/svg" xmlns:xlink="http://www.w3.org/1999/xlink" x="0px" y="0px"
	 viewBox="0 0 16 16" style="enable-background:new 0 0 16 16;" xml:space="preserve">
<g id="XMLID_11_">
	<g id="XMLID_12_" transform="scale(0.1953125, 0.1953125)">
		<path id="XMLID_13_" class="st0" d="M30.9,0H5.5C2.4,0,0,2.4,0,5.5l0,25.5c0,3,2.4,5.5,5.5,5.5h25.5c3,0,5.5-2.4,5.5-5.5V5.5
			C36.4,2.4,34,0,30.9,0z M29.6,20.5h-9.1v9.1h-4.6v-9.1H6.8v-4.6h9.1V6.8h4.6v9.1h9.1V20.5z M76.5,0H51c-3,0-5.5,2.4-5.5,5.5v25.5
			c0,3,2.4,5.5,5.5,5.5h25.5c3,0,5.5-2.4,5.5-5.5l0-25.5C81.9,2.4,79.5,0,76.5,0z M75.1,20.5H52.3v-4.6h22.8V20.5z M30.9,45.5H5.5
			C2.4,45.5,0,48,0,51v25.5c0,3,2.4,5.5,5.5,5.5h25.5c3,0,5.5-2.4,5.5-5.5V51C36.4,48,34,45.5,30.9,45.5z M27.9,70.2l-3.2,3.2
			l-6.4-6.4l-6.4,6.4l-3.2-3.2l6.4-6.4l-6.4-6.4l3.2-3.2l6.4,6.4l6.4-6.4l3.2,3.2l-6.4,6.4L27.9,70.2z M76.5,45.5H51
			c-3,0-5.5,2.4-5.5,5.5v25.5c0,3,2.4,5.5,5.5,5.5h25.5c3,0,5.5-2.4,5.5-5.5l0-25.5C81.9,48,79.5,45.5,76.5,45.5z M72.8,70.5H54.6
			V66h18.2V70.5z M72.8,61.4H54.6v-4.6h18.2V61.4z"/>
	</g>
</g>
</svg>
