<?xml version="1.0" encoding="utf-8"?>
<!-- Generator: Adobe Illustrator 19.0.0, SVG Export Plug-In . SVG Version: 6.00 Build 0)  -->
<svg version="1.1" id="图层_1" xmlns="http://www.w3.org/2000/svg" xmlns:xlink="http://www.w3.org/1999/xlink" x="0px" y="0px"
	 viewBox="0 0 16 16" style="enable-background:new 0 0 16 16;" xml:space="preserve">
<style type="text/css">
	.st0{fill:#231815;}
</style>
<path id="XMLID_57_" class="st0" d="M13.9,0H2.1C1,0,0,0.9,0,1.9v12.2c0,1,0.9,1.9,2,1.9h11.9c1.1,0,2-0.8,2-1.9V1.9
	C16,0.9,15,0,13.9,0z M0.9,2.5c0-0.9,0.8-1.7,1.8-1.7H4v3.1H0.9V2.5z M0.9,4.8H4v3.1H0.9V4.8z M0.9,8.7H4v2.9H0.9V8.7z M0.9,13.5
	v-1.1H4v2.8H2.7C1.7,15.2,0.9,14.4,0.9,13.5z M15.1,13.5c0,0.9-0.8,1.7-1.8,1.7H4.9v-2.8h10.2V13.5z M15.1,11.6H4.9V8.7h10.2V11.6z
	 M15.1,7.9H4.9V4.8h10.2V7.9z M15.1,3.9H4.9V0.8h8.4c1,0,1.8,0.8,1.8,1.7V3.9z"/>
</svg>
