<?xml version="1.0" standalone="no"?><!DOCTYPE svg PUBLIC "-//W3C//DTD SVG 1.1//EN" "http://www.w3.org/Graphics/SVG/1.1/DTD/svg11.dtd"><svg t="1495266421647" class="icon" style="" viewBox="0 0 1024 1024" version="1.1" xmlns="http://www.w3.org/2000/svg" p-id="3108" xmlns:xlink="http://www.w3.org/1999/xlink" width="16" height="16"><defs><style type="text/css"></style></defs><path d="M633.926527 389.75816 487.813844 389.75816 487.813844 243.495538C487.813844 216.570304 465.982481 194.741647 439.109983 194.741647 412.191259 194.741647 390.406121 216.570304 390.406121 243.495538L390.406121 389.75816 244.293439 389.75816C217.371716 389.75816 195.589577 411.589889 195.589577 438.512051 195.589577 465.438308 217.37274 487.269964 244.293439 487.269964L390.406121 487.269964 390.406121 633.53361C390.406121 660.454821 412.192283 682.28655 439.109983 682.28655 465.983505 682.28655 487.815892 660.454821 487.815892 633.53361L487.815892 487.269964 633.928502 487.269964C660.802024 487.269964 682.632363 465.438308 682.632363 438.512051 682.632363 411.59084 660.801 389.75816 633.928502 389.75816L633.926527 389.75816ZM1009.006933 936.674547 782.783261 710.196488C918.591615 537.990265 907.108757 287.468677 748.317499 128.514386 577.139939-42.813773 299.606956-42.813773 128.428445 128.514386-42.797316 299.867633-42.797316 577.637301 128.428445 748.989523 287.548255 908.250643 538.566547 919.469752 710.635264 782.643853L936.759537 1009.020318C956.737055 1028.993227 989.079664 1028.993227 1009.006933 1009.020318 1028.985474 989.047408 1028.985474 956.64848 1009.006933 936.675571L1009.006933 936.674547ZM679.113596 678.997448C545.935778 812.287831 330.095719 812.287831 196.96515 678.997448 63.790331 545.712038 63.790331 329.624249 196.96515 196.36005 330.095719 63.069594 545.935778 63.069594 679.113596 196.36005 812.240143 329.625273 812.240143 545.712038 679.113596 678.997448L679.113596 678.997448Z" p-id="3109"></path></svg>