<?xml version="1.0" standalone="no"?><!DOCTYPE svg PUBLIC "-//W3C//DTD SVG 1.1//EN" "http://www.w3.org/Graphics/SVG/1.1/DTD/svg11.dtd"><svg t="1495263735800" class="icon" style="" viewBox="0 0 1024 1024" version="1.1" xmlns="http://www.w3.org/2000/svg" p-id="2404" xmlns:xlink="http://www.w3.org/1999/xlink" width="16" height="16"><defs><style type="text/css"></style></defs><path d="M510.819616 63.030545c-247.376087 0-447.911356 200.537316-447.911356 447.911356 0 247.375064 200.537316 447.912379 447.911356 447.912379 247.373017 0 447.910333-200.538339 447.910333-447.912379C958.729949 263.567861 758.193657 63.030545 510.819616 63.030545zM565.838697 695.002964c-4.304026 39.773865-44.400233 57.539484-77.266781 43.598984-17.422811-7.391341-26.725688-22.168905-30.475082-40.439014-0.731664-3.568269-0.721431-7.28901-1.055029-10.939143 0.330528-13.214976 2.604314-25.874297 11.30037-36.302811 11.763928-14.110369 27.502377-19.787672 45.427632-18.883069C549.142433 633.82051 569.587068 660.354839 565.838697 695.002964zM570.241984 343.107405c-3.03001 19.777439-9.705036 40.726563-13.772678 61.119009-5.066389 25.413809-9.984399 51.320852-13.888312 76.93216-3.738138 24.527626-6.14393 50.13791-9.04091 74.792427-1.233084 10.482749-2.225691 22.258956-3.337002 33.327036-12.129248 0-24.080441 0-36.077683 0-0.191358 0-0.426719-3.264347-0.511653-3.920286-4.075829-31.009248-7.610328-63.86147-12.422937-94.756107-4.552689-29.225625-10.200316-58.313104-16.052604-87.313601-3.606131-17.86488-8.855692-35.428907-13.081946-53.173037-1.325182-5.569856-2.995217-17.820877-2.407839-23.159466 2.520403-22.896476 16.21224-45.410236 45.017286-51.631938 6.346545-1.37123 23.953551-1.287319 24.78243-1.216711 22.76754 1.911536 41.772382 14.712073 49.218982 36.275181C573.66699 324.857762 570.939879 338.553693 570.241984 343.107405z" p-id="2405" fill="#d81e06"></path></svg>