<?xml version="1.0" standalone="no"?>
<!DOCTYPE svg PUBLIC "-//W3C//DTD SVG 20010904//EN"
 "http://www.w3.org/TR/2001/REC-SVG-20010904/DTD/svg10.dtd">
<svg version="1.0" xmlns="http://www.w3.org/2000/svg"
 width="200.000000pt" height="200.000000pt" viewBox="0 0 200.000000 200.000000"
 preserveAspectRatio="xMidYMid meet">
<metadata>
Created by potrace 1.13, written by Peter Selinger 2001-2015
</metadata>
<g transform="translate(0.000000,200.000000) scale(0.100000,-0.100000)"
fill="#000000" stroke="none">
<path d="M600 1696 c-224 -48 -394 -190 -451 -378 -17 -55 -21 -88 -17 -158 4
-77 9 -98 40 -162 35 -70 109 -159 172 -207 l30 -22 -27 -83 c-15 -45 -27 -85
-27 -89 0 -4 45 16 101 44 l101 50 91 -15 c50 -9 112 -16 139 -16 l49 0 -6 38
c-4 20 -8 48 -11 62 -3 14 0 59 6 99 33 232 229 402 483 418 103 7 103 7 52
110 -67 135 -222 253 -390 298 -82 23 -254 28 -335 11z m-5 -271 c50 -49 20
-129 -47 -129 -72 0 -117 59 -84 110 32 48 94 57 131 19z m429 4 c30 -24 35
-71 11 -106 -49 -71 -185 2 -143 77 27 50 88 63 132 29z"/>
<path d="M1243 1239 c-73 -12 -152 -44 -220 -88 -234 -151 -269 -449 -73 -641
128 -126 309 -180 493 -145 l92 17 74 -41 c41 -23 77 -41 81 -41 4 0 -1 31
-13 70 l-20 70 75 78 c45 47 86 101 102 135 146 310 -198 652 -591 586z"/>
</g>
</svg>
