<?xml version="1.0" encoding="utf-8"?>
<!-- Generator: Adobe Illustrator 19.0.0, SVG Export Plug-In . SVG Version: 6.00 Build 0)  -->
<svg version="1.1" id="图层_1" xmlns="http://www.w3.org/2000/svg" xmlns:xlink="http://www.w3.org/1999/xlink" x="0px" y="0px"
	 viewBox="0 0 16 16" style="enable-background:new 0 0 16 16;" xml:space="preserve">
<path d="M10.8,5.4c0.2,0,0.4,0,0.5,0c-0.5-2.3-2.9-4-5.7-4C2.6,1.5,0,3.6,0,6.3c0,1.6,0.8,2.8,2.3,3.8l-0.6,1.7l2-1
	c0.7,0.1,1.3,0.3,2,0.3c0.2,0,0.4,0,0.5,0C6.1,10.7,6,10.3,6,9.9C6,7.4,8.1,5.4,10.8,5.4z M7.8,3.9c0.4,0,0.7,0.3,0.7,0.7
	c0,0.4-0.3,0.7-0.7,0.7C7.4,5.3,6.9,5,6.9,4.6C6.9,4.2,7.4,3.9,7.8,3.9z M3.8,5.3C3.4,5.3,3,5,3,4.6c0-0.4,0.4-0.7,0.9-0.7
	c0.4,0,0.7,0.3,0.7,0.7C4.5,5,4.3,5.3,3.8,5.3z"/>
<path d="M16,9.8c0-2.3-2.3-4.1-4.8-4.1c-2.7,0-4.8,1.8-4.8,4.1c0,2.3,2.1,4.1,4.8,4.1c0.6,0,1.1-0.1,1.7-0.3l1.6,0.9L14,13.1
	C15.2,12.3,16,11.1,16,9.8z M9.6,9.1c-0.3,0-0.6-0.3-0.6-0.6C9.1,8.3,9.4,8,9.6,8c0.4,0,0.7,0.3,0.7,0.6C10.3,8.9,10.1,9.1,9.6,9.1z
	 M12.8,9.1c-0.3,0-0.6-0.3-0.6-0.6c0-0.3,0.3-0.6,0.6-0.6c0.4,0,0.7,0.3,0.7,0.6C13.5,8.9,13.2,9.1,12.8,9.1z"/>
</svg>
