<?xml version="1.0" encoding="utf-8"?>
<!-- Generator: Adobe Illustrator 19.0.0, SVG Export Plug-In . SVG Version: 6.00 Build 0)  -->
<svg version="1.1" id="图层_1" xmlns="http://www.w3.org/2000/svg" xmlns:xlink="http://www.w3.org/1999/xlink" x="0px" y="0px"
	 viewBox="0 0 16 16" style="enable-background:new 0 0 16 16;" xml:space="preserve">
<style type="text/css">
	.st0{fill:#040000;}
	.st1{fill:#231815;}
</style>
<g id="XMLID_38_">
	<path id="XMLID_725_" class="st0" d="M9.6,13.1c-0.2,0-0.4-0.1-0.6-0.3L5.9,9.7c-0.2-0.2-0.2-0.5,0-0.8c0.2-0.2,0.4-0.4,0.6-0.4
		c0.2,0,0.4,0.2,0.5,0.3l1.9,1.9c0-1.4,0-4.3,0-6.2c0,0,0-0.4-0.4-0.4l-4.3,0c-0.1,0-0.3,0-0.4-0.1C3.6,4,3.6,3.7,3.6,3.6
		c0-0.3,0.1-0.7,0.7-0.7l0.2,0c0.7,0,3.5,0,4.1,0c1.1,0,1.5,0.6,1.5,1.7v6.1l1.5-1.8c0.2-0.2,0.4-0.2,0.5-0.2c0.3,0,0.6,0.3,0.7,0.5
		c0.1,0.2,0,0.5-0.1,0.6c-0.1,0.1-1.5,1.7-2.7,3.1C9.8,13,9.8,13.1,9.6,13.1z"/>
	<path id="XMLID_26_" class="st1" d="M13.5,0H2.5C1.1,0,0,1.2,0,2.5v11C0,14.8,1.1,16,2.5,16h11.1c1.4,0,2.5-1.1,2.5-2.5v-11
		C16,1.2,14.9,0,13.5,0z M15,13.2c0,0.9-0.8,1.6-1.7,1.6H2.7c-0.9,0-1.7-0.7-1.7-1.6V2.8c0-0.9,0.8-1.6,1.7-1.6h10.6
		c0.9,0,1.7,0.7,1.7,1.6V13.2z"/>
</g>
</svg>
