<?xml version="1.0" encoding="utf-8"?>
<!-- Generator: Adobe Illustrator 19.0.0, SVG Export Plug-In . SVG Version: 6.00 Build 0)  -->
<svg version="1.1" id="图层_1" xmlns="http://www.w3.org/2000/svg" xmlns:xlink="http://www.w3.org/1999/xlink" x="0px" y="0px"
	 viewBox="0 0 16 16" style="enable-background:new 0 0 16 16;" xml:space="preserve">
<style type="text/css">
	.st0{fill:#040000;}
</style>
<g id="XMLID_1_">
	<path id="XMLID_737_" class="st0" d="M4.3,11.4c-0.3,0-0.6,0.3-0.6,0.6c0,0.3,0.3,0.6,0.6,0.6h2.2c0-0.3-0.1-0.5-0.1-0.8
		c0-0.1,0-0.3,0-0.4H4.3z"/>
	<path id="XMLID_736_" class="st0" d="M8.3,7.7h-4C3.9,7.7,3.7,8,3.7,8.3c0,0.3,0.3,0.6,0.6,0.6h3C7.6,8.5,7.9,8.1,8.3,7.7z"/>
	<path id="XMLID_735_" class="st0" d="M12,1.9h0.6c0.7,0,1.2,0.5,1.2,1.2v3.8c0.4,0.2,0.8,0.4,1.2,0.7V3.1c0-1.3-1.1-2.4-2.4-2.4H12
		c-0.3,0-0.6,0.3-0.6,0.6C11.4,1.6,11.7,1.9,12,1.9z"/>
	<path id="XMLID_733_" class="st0" d="M6,1.9h3c0.5,0,0.9-0.4,0.9-0.9C9.9,0.4,9.5,0,9,0L6,0C5.5,0,5.1,0.4,5.1,0.9
		C5.1,1.5,5.5,1.9,6,1.9z"/>
	<path id="XMLID_732_" class="st0" d="M7.2,14.4H2.5c-0.7,0-1.2-0.5-1.2-1.2l0-10.1c0-0.7,0.5-1.2,1.2-1.2h0.6
		c0.3,0,0.6-0.3,0.6-0.6S3.4,0.6,3.1,0.6H2.5C1.1,0.6,0,1.7,0,3.1v10.1c0,1.3,1.1,2.4,2.4,2.4h5.7C7.7,15.3,7.4,14.9,7.2,14.4z"/>
	<path id="XMLID_731_" class="st0" d="M4.3,5.3h6.5c0.3,0,0.6-0.3,0.6-0.6c0-0.3-0.3-0.6-0.6-0.6H4.3c-0.3,0-0.6,0.3-0.6,0.6
		C3.7,5,3.9,5.3,4.3,5.3z"/>
	<path id="XMLID_739_" class="st0" d="M11.8,7.5c-2.3,0-4.2,1.9-4.2,4.2c0,2.3,1.9,4.2,4.2,4.2s4.2-1.9,4.2-4.2
		C16,9.4,14.1,7.5,11.8,7.5z M14.5,11.5c0,0.1-0.1,0.2-0.2,0.2v0l-2.2,0v0.9h2.2c0.1,0,0.2,0.1,0.2,0.2v0.4c0,0.1-0.1,0.2-0.2,0.2
		l-2.2,0v0.8c0,0.1-0.1,0.2-0.2,0.2h-0.4c-0.1,0-0.2-0.1-0.2-0.2v-0.8h-2c-0.1,0-0.2-0.1-0.2-0.2v-0.4c0-0.1,0.1-0.2,0.2-0.2h2v-0.9
		l-2,0c-0.1,0-0.2-0.1-0.2-0.2v-0.4c0-0.1,0.1-0.2,0.2-0.2h1.4L9.8,9.7C9.8,9.5,9.8,9.3,10,9.1c0.3-0.2,0.6,0,0.6,0l1.1,1.7h0.1
		l1.1-1.7c0.1-0.2,0.4-0.2,0.6-0.1c0.3,0.2,0.1,0.5,0.1,0.5l-0.8,1.3h1.5c0.1,0,0.2,0.1,0.2,0.2L14.5,11.5z"/>
</g>
</svg>
