<?xml version="1.0" encoding="utf-8"?>
<!-- Generator: Adobe Illustrator 19.0.0, SVG Export Plug-In . SVG Version: 6.00 Build 0)  -->
<svg version="1.1" id="图层_1" xmlns="http://www.w3.org/2000/svg" xmlns:xlink="http://www.w3.org/1999/xlink" x="0px" y="0px"
	 viewBox="0 0 16 16" style="enable-background:new 0 0 16 16;" xml:space="preserve">
<style type="text/css">
	.st0{fill:#040000;}
</style>
<g id="XMLID_1_">
	<path id="XMLID_7_" class="st0" d="M12.9,5.3c-0.6,0-0.6,0.6-0.6,0.6v4.5c0,0,0,0.6,0.6,0.6c0.6,0,2.8-2.3,2.8-2.8
		C15.8,7.6,13.5,5.3,12.9,5.3z"/>
	<path id="XMLID_8_" class="st0" d="M8.4,3.6h1.7c0,0,0.6,0,0.6-0.6c0-0.6-2.3-2.8-2.8-2.8c-0.6,0-2.8,2.3-2.8,2.8
		c0,0.6,0.6,0.6,0.6,0.6h1.7v3.9H3.4V5.9c0,0,0-0.6-0.6-0.6C2.3,5.3,0,7.6,0,8.1c0,0.6,2.3,2.8,2.8,2.8c0.6,0,0.6-0.6,0.6-0.6V8.7
		h3.9v3.9H5.6c0,0-0.6,0-0.6,0.6S7.3,16,7.9,16c0.6,0,2.8-2.2,2.8-2.8s-0.6-0.6-0.6-0.6H8.4V8.7h3.9V7.6H8.4V3.6z"/>
</g>
</svg>
