<?xml version="1.0" encoding="utf-8"?>
<!-- Generator: Adobe Illustrator 19.0.0, SVG Export Plug-In . SVG Version: 6.00 Build 0)  -->
<svg version="1.1" id="图层_1" xmlns="http://www.w3.org/2000/svg" xmlns:xlink="http://www.w3.org/1999/xlink" x="0px" y="0px"
	 viewBox="0 0 45.3 45.3" style="enable-background:new 0 0 45.3 45.3;" xml:space="preserve">
<style type="text/css">
	.st0{fill:#070001;}
</style>
<g id="XMLID_670_">
	<circle id="XMLID_677_" class="st0" cx="19.9" cy="33.2" r="1.9"/>
	<path id="XMLID_676_" class="st0" d="M19.9,28.2c0.8,0,1.7-0.6,1.7-1.4V10.7c0-0.8-0.8-1.4-1.7-1.4c-0.8,0-1.7,0.6-1.7,1.4v16.1
		C18.3,27.7,19.1,28.2,19.9,28.2z"/>
	<path id="XMLID_679_" class="st0" d="M39.1,23.5c0.3-3.1,0.3-6.4,0.3-10.8c0-1.9,0-4.4,0-6.7c0-0.8-0.6-1.4-1.1-1.7
		C32.4,2.7,27.1,1.6,20.5,1h-0.3c-3.9,0-7.2,0.6-10,1.1C7.1,2.7,4.4,3.5,1.9,4.3C1,4.6,0.5,5.2,0.5,6c0,2.2,0,4.2,0,6.1
		C0.2,28.5,0.2,34.3,16.3,43.2c1.4,0.8,2.5,1.1,3.6,1.1c1.1,0,2.2-0.3,3.6-1.1c1.9-1.1,3.9-2.2,5.3-3.1c1.7,1.4,3.9,2.2,6.1,2.2
		c5.6,0,10-4.4,10-10C44.9,28.5,42.7,25.2,39.1,23.5z M24.9,32.4c0,1.9,0.6,3.9,1.7,5.6c-1.4,0.8-3.1,1.7-4.7,2.8
		c-0.8,0.6-1.4,0.6-1.9,0.6c-0.6,0-1.1-0.3-1.9-0.6C3.3,32.7,3.3,28.5,3.5,11.8c0-1.7,0-3.3,0-5c2.2-0.6,4.7-1.4,7.2-1.9
		c2.8-0.6,5.8-1.1,9.2-1.1C26.3,4.3,31,5.5,36.3,6.8c0,1.9,0,3.9,0,5.6c0,4.2,0,7.2,0,10c-0.6,0-0.8,0-1.4,0
		C29.4,22.7,24.9,27.1,24.9,32.4z M41.4,33c0,0.6-0.5,1.1-1.1,1.1h-3.7v3.7c0,0.6-0.5,1.1-1.1,1.1H35c-0.6,0-1.1-0.5-1.1-1.1V34
		h-3.7c-0.6,0-1.1-0.5-1.1-1.1v-0.6c0-0.6,0.5-1.1,1.1-1.1h3.7v-3.7c0-0.6,0.5-1.1,1.1-1.1h0.6c0.6,0,1.1,0.5,1.1,1.1v3.7h3.7
		c0.6,0,1.1,0.5,1.1,1.1V33z"/>
</g>
</svg>
