<?xml version="1.0" encoding="utf-8"?>
<!-- Generator: Adobe Illustrator 19.0.0, SVG Export Plug-In . SVG Version: 6.00 Build 0)  -->
<svg version="1.1" id="图层_1" xmlns="http://www.w3.org/2000/svg" xmlns:xlink="http://www.w3.org/1999/xlink" x="0px" y="0px"
	 viewBox="0 0 16 16" style="enable-background:new 0 0 16 16;" xml:space="preserve">
<style type="text/css">
	.st0{fill:#040000;}
</style>
<g id="XMLID_1_">
	<path id="XMLID_235_" class="st0" d="M14.1,15.8H1.9C0.9,15.8,0,15,0,13.9V2.1C0,1,0.9,0.2,1.9,0.2h12.2C15.1,0.2,16,1,16,2.1v11.8
		C16,15,15.1,15.8,14.1,15.8z M1.9,1.4c-0.4,0-0.7,0.3-0.7,0.7v11.8c0,0.4,0.3,0.7,0.7,0.7h12.2c0.4,0,0.7-0.3,0.7-0.7l0-11.8
		c0-0.4-0.3-0.7-0.7-0.7L1.9,1.4L1.9,1.4z"/>
	<path id="XMLID_233_" class="st0" d="M13.5,9.7H8.9c-0.3,0-0.6,0.3-0.6,0.6c0,0.3,0.3,0.6,0.6,0.6h4.5c0.3,0,0.6-0.3,0.6-0.6
		C14,10,13.8,9.7,13.5,9.7L13.5,9.7L13.5,9.7z"/>
	<path id="XMLID_232_" class="st0" d="M13.5,7.4H8.9C8.6,7.4,8.4,7.7,8.4,8c0,0.3,0.3,0.6,0.6,0.6h4.5C13.8,8.6,14,8.3,14,8
		C14,7.7,13.8,7.4,13.5,7.4L13.5,7.4L13.5,7.4z"/>
	<path id="XMLID_231_" class="st0" d="M13.5,5.1H8.9c-0.3,0-0.6,0.3-0.6,0.6c0,0.3,0.3,0.6,0.6,0.6h4.5C13.8,6.3,14,6,14,5.7
		C14,5.4,13.8,5.1,13.5,5.1L13.5,5.1L13.5,5.1z"/>
	<path id="XMLID_228_" class="st0" d="M7.4,9.7C7.3,9.5,7.2,9.4,7.1,9.2C7,9,6.8,8.9,6.6,8.7C6.6,8.7,6.1,8.3,6,8.3
		C6.5,8,6.7,7.4,6.7,6.8c0-1.1-0.9-2-2-2s-2,0.9-2,2c0,0.6,0.3,1.1,0.7,1.5c0,0-0.4,0.2-0.5,0.3C2.9,8.7,2.8,8.8,2.7,9
		C2.3,9.4,2,10,2,10.6c0,0.3,0.2,0.5,0.5,0.5c0.3,0,0.4-0.2,0.5-0.5c0.1-0.4,0.2-0.8,0.6-1.1c0.3-0.3,0.8-0.5,1.2-0.5
		c0.4,0,0.7,0.1,1,0.3c0.3,0.2,0.6,0.6,0.7,0.9c0.1,0.2,0,0.3,0.1,0.5c0.1,0.2,0.3,0.3,0.5,0.3c0.3,0,0.5-0.2,0.5-0.5
		C7.6,10.3,7.5,10,7.4,9.7z M4.8,5.9c0.5,0,0.9,0.4,0.9,0.9S5.3,7.7,4.8,7.7S3.9,7.3,3.9,6.8C3.9,6.3,4.3,5.9,4.8,5.9z"/>
</g>
</svg>
